<svg width="24" height="24" viewBox="0 0 24 24" fill="none" xmlns="http://www.w3.org/2000/svg">
<path opacity="0.9" fill-rule="evenodd" clip-rule="evenodd" d="M8.99723 2.5C8.99723 2.22386 9.22109 2 9.49723 2H14.4972C14.7734 2 14.9972 2.22386 14.9972 2.5V5.67376C15.3394 5.83631 15.6663 6.02575 15.975 6.23933L18.7245 4.65195C18.9636 4.51388 19.2694 4.59581 19.4075 4.83496L21.9075 9.16509C21.9738 9.27993 21.9917 9.41641 21.9574 9.5445C21.9231 9.67259 21.8393 9.7818 21.7245 9.8481L18.9748 11.4356C18.9897 11.6219 18.9972 11.8101 18.9972 12C18.9972 12.1899 18.9897 12.3781 18.9748 12.5644L21.7245 14.1519C21.9636 14.29 22.0455 14.5958 21.9075 14.835L19.4075 19.1651C19.3412 19.2799 19.232 19.3637 19.1039 19.3981C18.9758 19.4324 18.8393 19.4144 18.7245 19.3481L15.975 17.7607C15.6663 17.9743 15.3394 18.1637 14.9972 18.3262V21.5C14.9972 21.7761 14.7734 22 14.4972 22H9.49723C9.22109 22 8.99723 21.7761 8.99723 21.5V18.3262C8.65504 18.1637 8.3282 17.9743 8.01945 17.7607L5.26998 19.3481C5.15514 19.4144 5.01866 19.4324 4.89057 19.3981C4.76248 19.3637 4.65327 19.2799 4.58697 19.1651L2.08697 14.835C2.02066 14.7201 2.0027 14.5836 2.03702 14.4556C2.07134 14.3275 2.15514 14.2183 2.26998 14.1519L5.01968 12.5644C5.0048 12.3781 4.99723 12.1899 4.99723 12C4.99723 11.8101 5.0048 11.6219 5.01968 11.4356L2.26998 9.8481C2.03083 9.71003 1.9489 9.40423 2.08697 9.16509L4.58697 4.83496C4.72504 4.59581 5.03084 4.51388 5.26998 4.65195L8.01942 6.23933C8.32818 6.02575 8.65502 5.83631 8.99723 5.67376V2.5ZM9.99723 3V5.99816C9.99723 6.19996 9.87593 6.38197 9.68968 6.45964C9.21015 6.65962 8.76192 6.92016 8.35459 7.23185C8.19418 7.3546 7.97567 7.36878 7.80074 7.26778L5.20299 5.76797L3.20299 9.23207L5.8004 10.7317C5.97502 10.8325 6.07199 11.0283 6.04634 11.2283C6.01395 11.4808 5.99723 11.7383 5.99723 12C5.99723 12.2617 6.01396 12.5193 6.04634 12.7717C6.072 12.9717 5.97503 13.1675 5.80041 13.2684L3.20299 14.768L5.20299 18.2321L7.80078 16.7322C7.9757 16.6313 8.19421 16.6454 8.35462 16.7682C8.76194 17.0799 9.21016 17.3404 9.68968 17.5404C9.87593 17.618 9.99723 17.8 9.99723 18.0018V21H13.9972V18.0018C13.9972 17.8 14.1185 17.618 14.3048 17.5404C14.7843 17.3404 15.2325 17.0799 15.6398 16.7682C15.8002 16.6454 16.0188 16.6313 16.1937 16.7323L18.7915 18.2321L20.7915 14.768L18.1941 13.2684C18.0194 13.1675 17.9225 12.9717 17.9481 12.7717C17.9805 12.5193 17.9972 12.2617 17.9972 12C17.9972 11.7383 17.9805 11.4808 17.9481 11.2283C17.9225 11.0283 18.0194 10.8325 18.1941 10.7317L20.7915 9.23207L18.7915 5.76797L16.1937 7.26778C16.0188 7.36877 15.8003 7.3546 15.6399 7.23185C15.2325 6.92016 14.7843 6.65962 14.3048 6.45964C14.1185 6.38197 13.9972 6.19996 13.9972 5.99816V3H9.99723ZM11.9972 10C10.8926 10 9.99721 10.8954 9.99721 12C9.99721 13.1046 10.8926 14 11.9972 14C13.1018 14 13.9972 13.1046 13.9972 12C13.9972 10.8954 13.1018 10 11.9972 10ZM8.99721 12C8.99721 10.3431 10.3404 9 11.9972 9C13.6541 9 14.9972 10.3431 14.9972 12C14.9972 13.6569 13.6541 15 11.9972 15C10.3404 15 8.99721 13.6569 8.99721 12Z" fill="#3955A7"/>
</svg>
