<svg xmlns="http://www.w3.org/2000/svg" width="22" height="21" viewBox="0 0 22 21">
    <g fill="#8B9DFF" fill-rule="evenodd" stroke="#8B9DFF" stroke-width=".2">
        <path d="M.912 4.459L.761 3.284a.755.755 0 0 1 .63-.842l7.453-1.188 11.805 9.12a.376.376 0 0 1 .069.53l-6.688 8.658a.38.38 0 0 1-.53.07L1.687 10.505l-.68-5.3-.095-.747zm.046 6.297c.013.1.065.19.145.251l11.936 9.22c.495.384 1.205.292 1.588-.204l6.688-8.658a1.133 1.133 0 0 0-.203-1.588L9.175.557a.376.376 0 0 0-.291-.074L1.272 1.698A1.502 1.502 0 0 0 .013 3.38l.945 7.376z"/>
        <path d="M3.918 6.325a.809.809 0 0 0 1.132-.146.81.81 0 0 0-.145-1.132.809.809 0 0 0-1.133.145.809.809 0 0 0 .146 1.133m1.42-1.837c.66.51.781 1.464.27 2.124a1.512 1.512 0 0 1-2.123.271 1.514 1.514 0 1 1 1.852-2.395"/>
    </g>
</svg>
