<svg height="21" viewBox="0 0 22 21" width="22" xmlns="http://www.w3.org/2000/svg"><g fill="#8b9dff" fill-rule="evenodd" stroke="#8b9dff" stroke-width=".2"><path d="m.912 4.459-.151-1.175a.755.755 0 0 1 .63-.842l7.453-1.188 11.805 9.12a.376.376 0 0 1 .069.53l-6.688 8.658a.38.38 0 0 1 -.53.07l-11.813-9.127-.68-5.3-.095-.747zm.046 6.297c.013.1.065.19.145.251l11.936 9.22c.495.384 1.205.292 1.588-.204l6.688-8.658a1.133 1.133 0 0 0 -.203-1.588l-11.937-9.22a.376.376 0 0 0 -.291-.074l-7.612 1.215a1.502 1.502 0 0 0 -1.259 1.682z"/><path d="m3.918 6.325a.809.809 0 0 0 1.132-.146.81.81 0 0 0 -.145-1.132.809.809 0 0 0 -1.133.145.809.809 0 0 0 .146 1.133m1.42-1.837c.66.51.781 1.464.27 2.124a1.512 1.512 0 0 1 -2.123.271 1.514 1.514 0 1 1 1.852-2.395"/></g></svg>