<svg xmlns="http://www.w3.org/2000/svg" width="55" height="55" viewBox="0 0 55 55">
    <path fill="#F6720D" fill-rule="evenodd" d="M17.411 45.27l20.11-.006a.5.5 0 0 0 .578-.494c0-4.353-2.222-6.057-7.398-6.484 1.715-1.032 2.862-2.896 2.862-5.024 0-3.251-2.675-5.886-5.965-5.886a.502.502 0 0 0-.106.011.502.502 0 0 0-.106-.011c-3.295 0-5.965 2.632-5.965 5.886 0 2.13 1.145 3.993 2.86 5.025-5.177.427-7.401 2.13-7.401 6.484a.5.5 0 0 0 .531.5zM27.5 55C12.312 55 0 42.688 0 27.5S12.312 0 27.5 0 55 12.312 55 27.5 42.688 55 27.5 55zM13.578 22.157c-.735.156-.72.853-.203 1.233.288.213.758.4 1.297.514 1.281.272 2.679.119 3.893-.572 1.031.564 1.99.87 2.975.87h10.994c3.46 0 6.379-3.086 6.379-6.6 0-3.515-2.918-6.599-6.379-6.599H21.54c-3.478 0-6.382 2.99-6.382 6.486 0 .62.094 1.298.262 1.87-.193 1.303-1.05 2.631-1.842 2.798zm8.79-5.159A1.37 1.37 0 0 1 21 18.366a1.373 1.373 0 0 1-1.368-1.368 1.37 1.37 0 0 1 2.736 0zm11.998 0a1.37 1.37 0 0 1-1.368 1.368 1.366 1.366 0 1 1 1.368-1.368zm-6 0c0 .752-.608 1.368-1.364 1.368a1.373 1.373 0 0 1-1.368-1.368 1.37 1.37 0 0 1 1.368-1.364c.756 0 1.364.612 1.364 1.364z"/>
</svg>
