<svg height="18" viewBox="0 0 21 18" width="21" xmlns="http://www.w3.org/2000/svg"><g fill="none"><g fill="#5586ff"><path d="m20.184 12.966c.492-.54.706-1.511.787-2.007a1.96 1.96 0 0 0 0-.617c-.081-.494-.295-1.468-.787-2.007-.648-.496-2.126-.247-2.126-.247v5.125s1.472.25 2.126-.247z"/><path d="m20.753 11.858c-.554.272-1.272.334-1.223-.162.226-1.356-.473-2.958-.834-3.668a5.701 5.701 0 0 0 -.636.06v5.125s1.47.25 2.124-.247c.264-.325.458-.703.57-1.108z" opacity=".5"/><path d="m.816 12.966c-.494-.54-.71-1.511-.792-2.007a1.96 1.96 0 0 1 0-.617c.082-.494.298-1.468.787-2.007.649-.496 2.127-.247 2.127-.247v5.125s-1.478.25-2.122-.247z"/><path d="m.237 11.858c.556.272 1.274.334 1.233-.162-.228-1.356.471-2.958.832-3.67.213.008.425.028.636.06v5.127s-1.478.25-2.122-.247a3.056 3.056 0 0 1 -.58-1.108z" opacity=".5"/></g><path d="m20.072 10.57c0 3.87-4.281 7.008-9.582 7.008s-9.583-3.139-9.583-6.998c0-3.858 4.282-6.997 9.583-6.997 5.3 0 9.582 3.118 9.582 6.987z" fill="#fff"/><path d="m18.4 6.614c.526.848.808 1.825.816 2.824 0 3.871-4.282 7.008-9.583 7.008-3.282 0-6.167-1.217-7.902-3.05 1.484 2.47 4.848 4.182 8.767 4.182 5.289 0 9.582-3.139 9.582-6.998-.008-1.477-.625-2.84-1.68-3.966z" fill="#d0d2d3" opacity=".5"/><path d="m13.13 4.94c0 .545-1.178.987-2.634.987s-2.636-.444-2.636-.987 1.18-.988 2.636-.988 2.634.44 2.634.988z" fill="#231f20"/><rect fill="#354983" height="4.729" rx="2.365" width="13.581" x="3.705" y="8.205"/><path d="m7.86 10.57c0 .74-.594 1.34-1.328 1.342a1.336 1.336 0 0 1 -1.33-1.338 1.336 1.336 0 0 1 1.322-1.346c.354-.001.694.14.944.391.25.252.392.594.392.951zm7.929 0c0 .741-.595 1.342-1.33 1.342-.734 0-1.329-.6-1.329-1.342 0-.741.595-1.342 1.33-1.342.352 0 .69.14.94.393.25.251.39.593.389.949z" fill="#bce6f7"/><path d="m8.451 12.935h1.85l1.343-4.73h-1.85zm2.212 0h.428l1.344-4.73h-.428z" fill="#fff" opacity=".5"/><path d="m11.403 1.103a.897.897 0 0 0 -.769-.896.891.891 0 0 0 -.98.652c-.12.435.1.892.512 1.067v2.849c0 .113.09.205.204.205h.287a.205.205 0 0 0 .204-.205v-2.845a.898.898 0 0 0 .542-.827z" fill="#fff"/></g></svg>