<svg width="24" height="24" viewBox="0 0 24 24" fill="none" xmlns="http://www.w3.org/2000/svg">
<g opacity="0.9">
<path opacity="0.9" fill-rule="evenodd" clip-rule="evenodd" d="M9 10.5C9 11.3284 8.32843 12 7.5 12C6.67157 12 6 11.3284 6 10.5C6 9.67157 6.67157 9 7.5 9C8.32843 9 9 9.67157 9 10.5ZM8 10.5C8 10.7761 7.77614 11 7.5 11C7.22386 11 7 10.7761 7 10.5C7 10.2239 7.22386 10 7.5 10C7.77614 10 8 10.2239 8 10.5Z" fill="#3955A7"/>
<path opacity="0.9" fill-rule="evenodd" clip-rule="evenodd" d="M16.5 12C17.3284 12 18 11.3284 18 10.5C18 9.67157 17.3284 9 16.5 9C15.6716 9 15 9.67157 15 10.5C15 11.3284 15.6716 12 16.5 12ZM16.5 11C16.7761 11 17 10.7761 17 10.5C17 10.2239 16.7761 10 16.5 10C16.2239 10 16 10.2239 16 10.5C16 10.7761 16.2239 11 16.5 11Z" fill="#3955A7"/>
<path opacity="0.9" d="M9.5 14C9.22386 14 9 14.2239 9 14.5C9 14.7761 9.22386 15 9.5 15H14.5C14.7761 15 15 14.7761 15 14.5C15 14.2239 14.7761 14 14.5 14H9.5Z" fill="#3955A7"/>
<path opacity="0.9" fill-rule="evenodd" clip-rule="evenodd" d="M12.5 2.91465C13.0826 2.70873 13.5 2.15311 13.5 1.5C13.5 0.671573 12.8284 0 12 0C11.1716 0 10.5 0.671573 10.5 1.5C10.5 2.15311 10.9174 2.70873 11.5 2.91465V5H5C3.34315 5 2 6.34315 2 8V10C1.44772 10 1 10.4477 1 11V13C1 13.5523 1.44772 14 2 14V16C2 17.6569 3.34315 19 5 19H19C20.6569 19 22 17.6569 22 16V14C22.5523 14 23 13.5523 23 13V11C23 10.4477 22.5523 10 22 10V8C22 6.34315 20.6569 5 19 5H12.5V2.91465ZM12 2C12.2761 2 12.5 1.77614 12.5 1.5C12.5 1.22386 12.2761 1 12 1C11.7239 1 11.5 1.22386 11.5 1.5C11.5 1.77614 11.7239 2 12 2ZM3 8C3 6.89543 3.89543 6 5 6H19C20.1046 6 21 6.89543 21 8V16C21 17.1046 20.1046 18 19 18H5C3.89543 18 3 17.1046 3 16V8Z" fill="#3955A7"/>
</g>
</svg>
