<svg xmlns="http://www.w3.org/2000/svg" width="55" height="55" viewBox="0 0 55 55">
    <path fill="#F6720D" fill-rule="evenodd" d="M27.5 55C12.312 55 0 42.688 0 27.5S12.312 0 27.5 0 55 12.312 55 27.5 42.688 55 27.5 55zM11.633 39.483h7.26v-9.904c0-1.987-1.623-3.6-3.63-3.6-2.008 0-3.63 1.613-3.63 3.6v9.904zm17.983 0V21.965c0-1.987-1.622-3.6-3.63-3.6-2.007 0-3.63 1.613-3.63 3.6v17.518h7.26zm10.724 0V12.32c0-1.991-1.623-3.6-3.63-3.6-2.008 0-3.63 1.609-3.63 3.6v27.162h7.26zM12 42v1h29v-1H12z"/>
</svg>
