<svg enable-background="new 0 0 50 50" viewBox="0 0 50 50" xmlns="http://www.w3.org/2000/svg"><g clip-rule="evenodd" fill-rule="evenodd"><path d="m29 12c-4.5 0-8.4 2-10.5 4.9l13 14.1c.2-.1.4-.1.6-.1 1.4 2.2 3.6 2.4 3.6 2.4s-.6-2-.5-3.5c3.5-1.7 5.9-4.8 5.9-8.3 0-5.2-5.5-9.5-12.1-9.5z" fill="#fff"/><path d="m29 11.5c-4.5 0-8.7 2-10.9 5.1l.8.6c2-2.9 5.9-4.7 10.1-4.7 6.4 0 11.6 4.1 11.6 9.1 0 3.2-2.1 6.2-5.6 7.8l-.3.2v.3c-.1 1 .2 2.1.3 2.8-.7-.2-1.7-.8-2.5-2l-.2-.3h-.3c-.2.1-.4.1-.6.2l.2.9c.1 0 .2-.1.3-.1 1.5 2.2 3.7 2.4 3.8 2.4l.7.1-.2-.7s-.5-1.7-.5-3.1c3.7-1.9 5.9-5 5.9-8.5-.1-5.6-5.7-10.1-12.6-10.1z" fill="#162036"/><path d="m21 16.7c-6.7 0-12.1 4.3-12.1 9.6 0 3.5 2.4 6.5 5.9 8.2.1 1.5-.5 3.5-.5 3.5s2.2-.2 3.6-2.4c1 .2 2 .3 3.1.3 6.7 0 12.1-4.3 12.1-9.6s-5.4-9.6-12.1-9.6z" fill="#fff"/><path d="m21 17.1c6.4 0 11.6 4.1 11.6 9.2 0 5-5.2 9.1-11.6 9.1-1 0-2-.1-3-.3h-.1c-.2 0-.3.1-.4.2-.8 1.2-1.9 1.8-2.5 2.1.2-.8.4-1.9.4-2.9 0-.2-.1-.3-.3-.4-3.5-1.7-5.6-4.6-5.6-7.8-.1-5.1 5.1-9.2 11.5-9.2zm0-.9c-6.9 0-12.5 4.5-12.5 10.1 0 3.5 2.2 6.7 5.9 8.5 0 1.3-.5 3-.5 3.1-.1.2 0 .3.1.4s.2.2.4.2h.1c.1-.1 2.3-.3 3.8-2.4 1 .2 2 .3 2.9.3 6.9 0 12.6-4.6 12.6-10.1-.2-5.6-5.9-10.1-12.8-10.1z" fill="#ff720b"/></g></svg>