<?xml version="1.0" encoding="utf-8"?>
<!-- Generator: Adobe Illustrator 23.0.3, SVG Export Plug-In . SVG Version: 6.00 Build 0)  -->
<svg version="1.1" id="Bubble" xmlns="http://www.w3.org/2000/svg" xmlns:xlink="http://www.w3.org/1999/xlink" x="0px" y="0px"
	 viewBox="0 0 50 50" style="enable-background:new 0 0 50 50;" xml:space="preserve">
<style type="text/css">
	.st0{fill-rule:evenodd;clip-rule:evenodd;fill:#FFFFFF;}
	.st1{fill-rule:evenodd;clip-rule:evenodd;fill:#162036;}
	.st2{fill-rule:evenodd;clip-rule:evenodd;fill:#FF720B;}
</style>
<g>
	<path class="st0" d="M29,12c-4.5,0-8.4,2-10.5,4.9L31.5,31c0.2-0.1,0.4-0.1,0.6-0.1c1.4,2.2,3.6,2.4,3.6,2.4s-0.6-2-0.5-3.5
		c3.5-1.7,5.9-4.8,5.9-8.3C41.1,16.3,35.6,12,29,12z"/>
	<path class="st1" d="M29,11.5c-4.5,0-8.7,2-10.9,5.1l0.8,0.6c2-2.9,5.9-4.7,10.1-4.7c6.4,0,11.6,4.1,11.6,9.1
		c0,3.2-2.1,6.2-5.6,7.8l-0.3,0.2v0.3c-0.1,1,0.2,2.1,0.3,2.8c-0.7-0.2-1.7-0.8-2.5-2l-0.2-0.3L32,30.4c-0.2,0.1-0.4,0.1-0.6,0.2
		l0.2,0.9c0.1,0,0.2-0.1,0.3-0.1c1.5,2.2,3.7,2.4,3.8,2.4l0.7,0.1l-0.2-0.7c0,0-0.5-1.7-0.5-3.1c3.7-1.9,5.9-5,5.9-8.5
		C41.5,16,35.9,11.5,29,11.5z"/>
	<path class="st0" d="M21,16.7c-6.7,0-12.1,4.3-12.1,9.6c0,3.5,2.4,6.5,5.9,8.2c0.1,1.5-0.5,3.5-0.5,3.5s2.2-0.2,3.6-2.4
		c1,0.2,2,0.3,3.1,0.3c6.7,0,12.1-4.3,12.1-9.6C33.1,21,27.7,16.7,21,16.7z"/>
	<path class="st2" d="M21,17.1c6.4,0,11.6,4.1,11.6,9.2c0,5-5.2,9.1-11.6,9.1c-1,0-2-0.1-3-0.3c0,0-0.1,0-0.1,0
		c-0.2,0-0.3,0.1-0.4,0.2c-0.8,1.2-1.9,1.8-2.5,2.1c0.2-0.8,0.4-1.9,0.4-2.9c0-0.2-0.1-0.3-0.3-0.4c-3.5-1.7-5.6-4.6-5.6-7.8
		C9.4,21.2,14.6,17.1,21,17.1z M21,16.2c-6.9,0-12.5,4.5-12.5,10.1c0,3.5,2.2,6.7,5.9,8.5c0,1.3-0.5,3-0.5,3.1
		c-0.1,0.2,0,0.3,0.1,0.4c0.1,0.1,0.2,0.2,0.4,0.2h0.1c0.1-0.1,2.3-0.3,3.8-2.4c1,0.2,2,0.3,2.9,0.3c6.9,0,12.6-4.6,12.6-10.1
		C33.6,20.7,27.9,16.2,21,16.2z"/>
</g>
</svg>
