<svg xmlns="http://www.w3.org/2000/svg" width="42" height="35" viewBox="0 0 42 35">
    <g fill="none" fill-rule="nonzero">
        <path fill="#5586FF" d="M40.369 25.44c.983-1.068 1.41-2.997 1.574-3.975a3.85 3.85 0 0 0 0-1.223c-.163-.983-.591-2.908-1.574-3.976-1.297-.987-4.253-.49-4.253-.49V25.93s2.944.493 4.253-.49z"/>
        <path fill="#5586FF" d="M41.507 23.243c-1.11.538-2.545.656-2.447-.322.453-2.692-.946-5.86-1.668-7.267-.426.014-.85.053-1.272.118v10.154s2.94.497 4.249-.485a5.974 5.974 0 0 0 1.138-2.198z" opacity=".5" style="mix-blend-mode:multiply"/>
        <path fill="#5586FF" d="M1.631 25.44C.644 24.373.212 22.428.05 21.466a3.85 3.85 0 0 1 0-1.223c.163-.983.595-2.908 1.574-3.976 1.297-.987 4.253-.49 4.253-.49V25.93s-2.956.493-4.245-.49z"/>
        <path fill="#5586FF" d="M.473 23.243c1.113.538 2.549.656 2.467-.322-.457-2.692.942-5.86 1.664-7.267.426.014.85.053 1.272.118v10.154s-2.956.497-4.245-.485a6.035 6.035 0 0 1-1.158-2.198z" opacity=".5" style="mix-blend-mode:multiply"/>
        <path fill="#FFF" d="M40.145 20.694c0 7.666-8.563 13.864-19.165 13.864-10.602 0-19.165-6.214-19.165-13.864S10.378 6.83 20.98 6.83c10.602 0 19.165 6.219 19.165 13.864z"/>
        <path fill="#D0D2D3" d="M36.801 12.857a10.716 10.716 0 0 1 1.631 5.594c0 7.666-8.563 13.885-19.165 13.885-6.565 0-12.335-2.394-15.805-6.043 2.968 4.893 9.697 8.282 17.534 8.282 10.577 0 19.165-6.215 19.165-13.865-.016-2.927-1.252-5.623-3.36-7.853z" opacity=".5" style="mix-blend-mode:multiply"/>
        <path fill="#231F20" d="M26.26 9.534c0 1.08-2.357 1.957-5.268 1.957-2.912 0-5.273-.89-5.273-1.957 0-1.069 2.361-1.962 5.273-1.962 2.911 0 5.268.877 5.268 1.962z"/>
        <rect width="27.161" height="9.37" x="7.409" y="16.009" fill="#354983" rx="4.685"/>
        <path fill="#FFF" d="M16.902 25.38H20.6l2.688-9.371h-3.699zM21.326 25.38h.857l2.687-9.371h-.857z" opacity=".5" style="mix-blend-mode:soft-light"/>
        <path fill="#FFF" d="M13.114 20.197a3.205 3.205 0 0 1 2.605 1.223 2.618 2.618 0 0 0-5.21 0 3.205 3.205 0 0 1 2.605-1.223zM28.919 20.197a3.193 3.193 0 0 1 2.605 1.223 2.618 2.618 0 0 0-5.207 0 3.193 3.193 0 0 1 2.602-1.223zM22.806 1.937a1.782 1.782 0 1 0-2.475 1.631v5.643c0 .226.183.408.408.408h.575a.408.408 0 0 0 .408-.408V3.576a1.782 1.782 0 0 0 1.084-1.64z"/>
    </g>
</svg>
