<svg height="22" viewBox="0 0 22 22" width="22" xmlns="http://www.w3.org/2000/svg" xmlns:xlink="http://www.w3.org/1999/xlink"><mask id="a" fill="#fff"><path d="m0 .001h21.22v21.213h-21.22z" fill="#fff" fill-rule="evenodd"/></mask><path d="m18.115 3.103c-4.136-4.136-10.87-4.136-15.01 0a10.575 10.575 0 0 0 -2.867 5.274 10.588 10.588 0 0 0 .394 5.833.43.43 0 0 0 .552.259.433.433 0 0 0 .259-.553 9.763 9.763 0 0 1 -.36-5.357 9.69 9.69 0 0 1 2.637-4.846c3.8-3.8 9.985-3.8 13.786 0a9.68 9.68 0 0 1 2.851 6.776 9.69 9.69 0 0 1 -2.678 6.829l-.063.066c-.036.041-.072.08-.11.115-3.8 3.803-9.986 3.803-13.786 0a.628.628 0 0 1 -.06-.06v-.119c0-.085 0-.173.002-.258.003-.03.006-.058.006-.088.002-.058.005-.116.01-.17 0-.034.006-.07.009-.102.003-.053.008-.102.014-.154.002-.039.008-.072.013-.108l.02-.148.016-.107.025-.143.022-.11.03-.138.025-.11c.01-.047.022-.09.033-.135.01-.038.022-.074.03-.112.014-.042.025-.086.039-.132.01-.036.022-.072.035-.108l.042-.129c.01-.038.024-.074.038-.11a2.35 2.35 0 0 1 .047-.126l.041-.108c.02-.04.036-.082.052-.123l.044-.108.058-.12.05-.105c.019-.041.038-.08.06-.121.017-.033.036-.066.052-.102l.066-.115c.017-.036.036-.069.055-.102l.07-.116.06-.096.071-.113.063-.096.08-.11.063-.093.083-.108.069-.088c.027-.038.057-.071.085-.107l.074-.085c.028-.036.06-.072.088-.105.028-.027.052-.055.077-.085l.094-.099c.024-.027.052-.055.077-.08l.099-.099c.027-.024.052-.052.08-.077.032-.033.068-.063.104-.096.027-.022.052-.05.08-.074.035-.03.074-.06.11-.094.027-.022.055-.044.082-.068l.116-.091.082-.063.124-.091c.027-.02.052-.041.08-.058.046-.033.093-.063.14-.096.025-.014.047-.03.071-.047.06-.038.124-.08.185-.115a5.835 5.835 0 0 1 .253-.146l.077-.041c.05-.028.099-.055.148-.08.033-.017.066-.03.1-.047.04-.019.082-.041.123-.058a4.218 4.218 0 0 0 2.91 1.17 4.22 4.22 0 0 0 2.912-1.17 7.013 7.013 0 0 1 3.456 3.518.432.432 0 1 0 .792-.347 7.785 7.785 0 0 0 -3.67-3.853 4.209 4.209 0 0 0 .73-2.367 4.225 4.225 0 0 0 -4.22-4.219.432.432 0 0 0 0 .864 3.362 3.362 0 0 1 3.357 3.355 3.362 3.362 0 0 1 -3.358 3.355 3.36 3.36 0 0 1 -2.489-1.112 3.353 3.353 0 0 1 -.867-2.244c0-.902.355-1.75.999-2.385a.433.433 0 0 0 -.61-.613 4.188 4.188 0 0 0 -1.252 2.998c0 .85.258 1.672.731 2.365l-.013.008c-.033.016-.066.036-.1.052l-.153.08c-.036.02-.072.038-.105.06-.047.028-.096.053-.143.083-.036.02-.069.041-.107.063l-.132.083c-.036.024-.072.046-.107.071l-.127.085-.107.077-.121.088c-.033.028-.069.053-.102.08-.041.03-.08.06-.118.094l-.102.082-.113.096c-.033.028-.066.058-.096.086-.038.033-.074.068-.11.101l-.093.088c-.036.036-.072.07-.108.108-.03.027-.06.057-.09.088-.036.035-.07.074-.102.11l-.085.093c-.036.039-.07.077-.102.116-.028.03-.052.06-.08.093-.033.041-.069.083-.099.124-.027.03-.05.06-.074.09-.036.045-.069.091-.102.138l-.066.083-.124.181c-.008.014-.022.03-.033.047-.05.074-.099.154-.145.228-.02.028-.033.055-.053.083l-.09.156c-.02.033-.036.066-.055.1-.028.046-.053.096-.077.142-.02.036-.036.072-.055.108a3.372 3.372 0 0 1 -.072.14l-.052.113c-.02.046-.041.09-.06.137l-.05.116c-.02.046-.039.096-.058.143l-.047.118c-.016.047-.033.093-.052.14-.014.041-.027.083-.041.121-.017.047-.03.096-.047.146-.01.038-.025.08-.038.121-.011.05-.028.096-.042.146-.01.041-.022.082-.03.123a2.947 2.947 0 0 0 -.066.273c-.01.052-.022.101-.033.151l-.025.126-.024.154c-.009.044-.017.083-.022.124l-.02.162-.016.121-.017.171-.008.113a4.27 4.27 0 0 0 -.01.192c0 .03-.004.063-.006.094-.003.096-.006.192-.006.288 0 .105.006.204.008.314.003.025.006.05.011.074v.003a.287.287 0 0 0 .022.069c0 .002 0 .005.003.005a.23.23 0 0 0 .033.063l.006.009c.01.019.024.035.04.052.004.003.004.003.004.005l.057.061.13.137a10.587 10.587 0 0 0 7.504 3.102c2.72 0 5.437-1.034 7.505-3.102.047-.046.088-.09.132-.137l.055-.06a10.542 10.542 0 0 0 2.918-7.434 10.536 10.536 0 0 0 -3.105-7.378" fill="#8b9dff" fill-rule="evenodd" mask="url(#a)"/></svg>