<svg width="24" height="24" viewBox="0 0 24 24" fill="none" xmlns="http://www.w3.org/2000/svg">
<g opacity="0.9">
<path opacity="0.9" fill-rule="evenodd" clip-rule="evenodd" d="M13.6437 12.0018C14.4754 11.2689 15 10.1957 15 9C15 6.79086 13.2091 5 11 5C8.79086 5 7 6.79086 7 9C7 10.1957 7.52463 11.2689 8.35627 12.0018C5.38513 12.0781 3 14.5105 3 17.5V19.5C3 19.7761 3.22386 20 3.5 20C3.77614 20 4 19.7761 4 19.5V17.5C4 15.0147 6.01472 13 8.5 13H13.5C15.9853 13 18 15.0147 18 17.5V19.5C18 19.7761 18.2239 20 18.5 20C18.7761 20 19 19.7761 19 19.5V17.5C19 14.5105 16.6149 12.0781 13.6437 12.0018ZM14 9C14 10.6569 12.6569 12 11 12C9.34315 12 8 10.6569 8 9C8 7.34315 9.34315 6 11 6C12.6569 6 14 7.34315 14 9Z" fill="#3955A7"/>
<path opacity="0.9" d="M15.5 5.5C15.5 5.22386 15.7239 5 16 5C17.933 5 19.5 6.567 19.5 8.5C19.5 9.61822 18.9756 10.614 18.1593 11.2547C20.3859 11.9584 22 14.0407 22 16.5V18C22 18.2761 21.7761 18.5 21.5 18.5C21.2239 18.5 21 18.2761 21 18V16.5C21 14.0147 18.9853 12 16.5 12C16.4529 12 16.4073 11.9935 16.364 11.9813C16.2444 11.9937 16.1229 12 16 12C15.7239 12 15.5 11.7761 15.5 11.5C15.5 11.2239 15.7239 11 16 11C17.3807 11 18.5 9.88071 18.5 8.5C18.5 7.11929 17.3807 6 16 6C15.7239 6 15.5 5.77614 15.5 5.5Z" fill="#3955A7"/>
</g>
</svg>
