<svg width="24" height="24" viewBox="0 0 24 24" fill="none" xmlns="http://www.w3.org/2000/svg">
<path fill-rule="evenodd" clip-rule="evenodd" d="M7.5 7C6.67157 7 6 7.67157 6 8.5V13.5C6 13.7761 6.22386 14 6.5 14H8.5C8.77614 14 9 13.7761 9 13.5V8.5C9 7.67157 8.32843 7 7.5 7ZM7 8.5C7 8.22386 7.22386 8 7.5 8C7.77614 8 8 8.22386 8 8.5V13H7V8.5Z" fill="#3955A7"/>
<path fill-rule="evenodd" clip-rule="evenodd" d="M10 6.5C10 5.67157 10.6716 5 11.5 5C12.3284 5 13 5.67157 13 6.5V13.5C13 13.7761 12.7761 14 12.5 14H10.5C10.2239 14 10 13.7761 10 13.5V6.5ZM11.5 6C11.2239 6 11 6.22386 11 6.5V13H12V6.5C12 6.22386 11.7761 6 11.5 6Z" fill="#3955A7"/>
<path fill-rule="evenodd" clip-rule="evenodd" d="M15.5 9C14.6716 9 14 9.67157 14 10.5V13.5C14 13.7761 14.2239 14 14.5 14H16.5C16.7761 14 17 13.7761 17 13.5V10.5C17 9.67157 16.3284 9 15.5 9ZM15 10.5C15 10.2239 15.2239 10 15.5 10C15.7761 10 16 10.2239 16 10.5V13H15V10.5Z" fill="#3955A7"/>
<path fill-rule="evenodd" clip-rule="evenodd" d="M5.5 1C4.11929 1 3 2.11929 3 3.5V20.5C3 21.8807 4.11929 23 5.5 23H18.5C19.8807 23 21 21.8807 21 20.5V6.33724L15.9418 1.18538C15.8254 1.0668 15.6662 1 15.5 1H5.5ZM4 3.5C4 2.67157 4.67157 2 5.5 2H15V4.54167C15 5.92238 16.1193 7.04167 17.5 7.04167H20V20.5C20 21.3284 19.3284 22 18.5 22H5.5C4.67157 22 4 21.3284 4 20.5V3.5ZM19.3084 6.04167L16 2.67202V4.54167C16 5.37009 16.6716 6.04167 17.5 6.04167H19.3084Z" fill="#3955A7"/>
</svg>
