<svg width="24" height="24" viewBox="0 0 24 24" fill="none" xmlns="http://www.w3.org/2000/svg">
<g opacity="0.9">
<path opacity="0.9" d="M14.9667 5.67962C15.0658 5.42189 14.9372 5.13259 14.6795 5.03346C14.4218 4.93433 14.1325 5.06291 14.0333 5.32065L9.03334 18.3206C8.93421 18.5784 9.06279 18.8677 9.32052 18.9668C9.57826 19.0659 9.86756 18.9374 9.96669 18.6796L14.9667 5.67962Z" fill="#3955A7"/>
<path opacity="0.9" d="M6.76205 5.07424C6.99723 5.21897 7.07055 5.52694 6.92583 5.76212L3.08709 12.0001L6.92583 18.238C7.07055 18.4732 6.99723 18.7812 6.76205 18.9259C6.52687 19.0706 6.2189 18.9973 6.07417 18.7621L2.07417 12.2621C1.97528 12.1014 1.97528 11.8987 2.07417 11.738L6.07417 5.23802C6.2189 5.00284 6.52687 4.92952 6.76205 5.07424Z" fill="#3955A7"/>
<path opacity="0.9" d="M17.238 5.07424C17.0028 5.21897 16.9294 5.52694 17.0742 5.76212L20.9129 12.0001L17.0742 18.238C16.9294 18.4732 17.0028 18.7812 17.238 18.9259C17.4731 19.0706 17.7811 18.9973 17.9258 18.7621L21.9258 12.2621C22.0247 12.1014 22.0247 11.8987 21.9258 11.738L17.9258 5.23802C17.7811 5.00284 17.4731 4.92952 17.238 5.07424Z" fill="#3955A7"/>
</g>
</svg>
