<svg xmlns="http://www.w3.org/2000/svg" width="55" height="55" viewBox="0 0 55 55">
    <g fill="none" fill-rule="evenodd">
        <circle cx="27" cy="28" r="26" fill="#FFF"/>
        <path fill="#F6720D" d="M27.5 55C12.312 55 0 42.688 0 27.5S12.312 0 27.5 0 55 12.312 55 27.5 42.688 55 27.5 55zm9.086-34.95v-5.77c0-.985-.803-1.78-1.794-1.78H12.294c-.99 0-1.794.795-1.794 1.78v15.647c0 .986.803 1.78 1.794 1.78h1.273l.059 2.735a.5.5 0 0 0 .802.388l4.117-3.122h1.838v5.77c0 .985.803 1.78 1.794 1.78h16.248l4.117 3.122a.5.5 0 0 0 .802-.388l.058-2.734h1.273c.99 0 1.794-.795 1.794-1.78V21.83c0-.984-.804-1.78-1.794-1.78h-8.09z"/>
    </g>
</svg>
