<svg height="55" viewBox="0 0 55 55" width="55" xmlns="http://www.w3.org/2000/svg"><g fill="none" fill-rule="evenodd"><circle cx="27" cy="28" fill="#fff" r="26"/><path d="m27.5 55c-15.188 0-27.5-12.312-27.5-27.5s12.312-27.5 27.5-27.5 27.5 12.312 27.5 27.5-12.312 27.5-27.5 27.5zm9.086-34.95v-5.77c0-.985-.803-1.78-1.794-1.78h-22.498c-.99 0-1.794.795-1.794 1.78v15.647c0 .986.803 1.78 1.794 1.78h1.273l.059 2.735a.5.5 0 0 0 .802.388l4.117-3.122h1.838v5.77c0 .985.803 1.78 1.794 1.78h16.248l4.117 3.122a.5.5 0 0 0 .802-.388l.058-2.734h1.273c.99 0 1.794-.795 1.794-1.78v-15.648c0-.984-.804-1.78-1.794-1.78h-8.09z" fill="#f6720d"/></g></svg>