<svg width="24" height="24" viewBox="0 0 24 24" fill="none" xmlns="http://www.w3.org/2000/svg">
<g opacity="0.9">
<path opacity="0.9" fill-rule="evenodd" clip-rule="evenodd" d="M10.5929 1.19539C10.7228 1.02637 10.9455 0.958263 11.1477 1.02576L20.1196 4.02097C20.2503 4.06459 20.3572 4.16017 20.415 4.28515C20.4729 4.41014 20.4767 4.55346 20.4254 4.68131C20.1289 5.42097 20.1008 5.99602 20.208 6.53539C20.3202 7.09962 20.5828 7.64698 20.929 8.34884C20.9919 8.47621 20.9976 8.62429 20.9447 8.75612C20.6482 9.49579 20.6201 10.0708 20.7273 10.6102C20.8395 11.1744 21.1021 11.7218 21.4483 12.4237C21.527 12.5831 21.5151 12.7722 21.4171 12.9205L14.9053 22.7757C14.7752 22.9727 14.5249 23.0518 14.3052 22.9653L4.75946 19.2108C4.69933 19.1872 4.64435 19.1521 4.59757 19.1075C3.86628 18.4108 3.42662 17.6757 3.29473 16.9166C3.18498 16.285 3.29581 15.6796 3.56981 15.1211C3.0024 14.5079 2.65621 13.8673 2.54176 13.2087C2.40855 12.442 2.60033 11.7138 3.01442 11.0616C3.02242 11.049 3.03098 11.0368 3.04007 11.0249L10.5929 1.19539ZM4.41953 15.6653C4.2638 16.0251 4.21729 16.3847 4.27996 16.7454C4.36168 17.2157 4.63923 17.7456 5.21855 18.3168L14.2943 21.8865L20.4248 12.6083C20.1364 12.0172 19.8708 11.4303 19.7465 10.8053C19.7353 10.749 19.7253 10.6925 19.7165 10.6358L14.1525 19.0674C14.0224 19.2646 13.772 19.3438 13.5522 19.2574L4.41953 15.6653ZM19.9056 8.53365L13.5411 18.1784L4.46559 14.6088C3.88626 14.0376 3.60871 13.5077 3.527 13.0375C3.46389 12.6743 3.51147 12.3122 3.66977 11.95L12.8819 15.3801C13.0997 15.4612 13.3447 15.3816 13.4732 15.1878L19.1961 6.55446C19.2052 6.61335 19.2156 6.67199 19.2272 6.73044C19.3515 7.35554 19.6171 7.94254 19.9056 8.53365ZM19.184 4.76288L11.1689 2.08708L4.24558 11.0973L12.8589 14.3045L19.184 4.76288Z" fill="#3955A7"/>
<path opacity="0.9" fill-rule="evenodd" clip-rule="evenodd" d="M11.4724 4.50244C11.7289 4.16319 12.172 4.02336 12.5768 4.15388L15.8019 5.1937C16.2596 5.34126 16.4356 5.89573 16.1468 6.28026L15.3969 7.2789C15.1354 7.62717 14.6786 7.76612 14.2674 7.62245L11.0971 6.5146C10.649 6.358 10.4834 5.81019 10.7697 5.43155L11.4724 4.50244ZM15.0945 6.01632L12.27 5.10563L11.8156 5.70639L14.5973 6.67843L15.0945 6.01632Z" fill="#3955A7"/>
</g>
</svg>
