<svg enable-background="new 0 0 23 23" viewBox="0 0 23 23" xmlns="http://www.w3.org/2000/svg"><path d="m11.5 1.3c-5.4 0-9.9 4.4-9.9 9.9 0 2 .6 3.9 1.7 5.5l-1.1 4.3c0 .1 0 .3.1.4s.2.1.3.1h.2l3.8-1.8c1.5.9 3.2 1.3 4.9 1.3 5.4 0 9.9-4.4 9.9-9.9 0-5.4-4.5-9.8-9.9-9.8z" style="fill:none;stroke:#5879da;stroke-width:.75;stroke-linecap:round;stroke-linejoin:round;stroke-miterlimit:10"/><g fill="#5779da"><path d="m10.6 14.8h1.7v1.3h-1.7z"/><path d="m14.6 10.2c-.2.4-.7.9-1.5 1.5-.4.3-.6.6-.7.8s-.1.6-.1 1.1h-1.7c0-.2 0-.4 0-.4 0-.5.1-1 .3-1.3.2-.4.5-.7 1.1-1.2.5-.4.9-.7 1-.9 0-.3.1-.5.1-.8 0-.4-.1-.7-.4-.9-.3-.3-.7-.4-1.2-.4s-.9.1-1.2.4-.5.7-.6 1.2l-1.7-.2c0-.8.4-1.5 1-2s1.4-.8 2.5-.8 1.9.3 2.5.8c.6.6.9 1.2.9 1.9 0 .5-.1.9-.3 1.2z"/></g></svg>