<svg xmlns="http://www.w3.org/2000/svg" xmlns:xlink="http://www.w3.org/1999/xlink" width="16" height="16" viewBox="0 0 16 16">
    <defs>
        <path id="a" d="M0 .122h8.053V15.8H0z"/>
        <path id="c" d="M.016.091h8.023V15.8H.016z"/>
    </defs>
    <g fill="none" fill-rule="evenodd">
        <path fill="#F6720E" d="M7.654 2.06c-.16-.342-.85-.897-1.088-1.073a1.887 1.887 0 0 0-1.807-.37c-.988.31-1.547 1.335-1.249 2.29.08.255.213.479.383.665a2.09 2.09 0 0 0-1.113.04C1.7 3.948 1.088 5.07 1.415 6.113c.151.485.478.868.893 1.106C1.032 7.462.15 8.63.321 9.89c.128.94.808 1.675 1.683 1.942-.16.418-.221.877-.157 1.348.21 1.543 1.672 2.617 3.266 2.4 1.175-.159 2.094-.974 2.413-2.01.22-1.592.31-10.157.128-11.51"/>
        <g transform="translate(0 .109)">
            <mask id="b" fill="#fff">
                <use xlink:href="#a"/>
            </mask>
            <path fill="#666" d="M3.41 3.706a1.82 1.82 0 0 0-.54.083C1.949 4.077 1.425 5.03 1.7 5.916c.123.394.392.726.756.935l.705.404-.798.151C1.237 7.62.47 8.644.619 9.74c.107.79.685 1.456 1.472 1.696l.308.094-.115.3a2.416 2.416 0 0 0-.14 1.2c.09.666.443 1.255.994 1.66.554.407 1.242.58 1.935.485 1.013-.138 1.858-.835 2.159-1.779.208-1.58.302-9.862.13-11.353-.142-.243-.655-.686-.975-.924l-.02-.015A1.595 1.595 0 0 0 4.849.795c-.828.26-1.3 1.118-1.051 1.915.064.205.17.39.317.55l.66.722-.951-.228a1.766 1.766 0 0 0-.412-.048M4.7 15.8c-.69 0-1.36-.216-1.918-.627a3.052 3.052 0 0 1-1.154-3.268A2.678 2.678 0 0 1 .024 9.82C-.14 8.61.557 7.466 1.668 6.993a2.222 2.222 0 0 1-.54-.898c-.375-1.2.326-2.492 1.563-2.879.2-.063.408-.099.616-.108a2.114 2.114 0 0 1-.083-.22C2.877 1.776 3.524.58 4.67.222a2.2 2.2 0 0 1 2.085.422c.135.1.96.729 1.172 1.181l.02.042.005.045c.19 1.42.096 9.976-.128 11.59l-.01.048c-.364 1.178-1.407 2.05-2.66 2.22-.15.02-.301.03-.451.03" mask="url(#b)"/>
        </g>
        <path fill="#F6720E" d="M3.893 3.553s.154.104.626.54c1.296 1.2.888 2.042.888 2.042"/>
        <path fill="#666" d="M5.407 6.435a.3.3 0 0 1-.27-.43c.008-.022.27-.681-.822-1.691-.436-.403-.59-.513-.592-.514a.3.3 0 1 1 .338-.496c.017.012.187.13.662.57 1.442 1.334.974 2.349.954 2.392a.3.3 0 0 1-.27.169"/>
        <path fill="#F6720E" d="M4.81 8.253s1.364.13 1.564 1.022c0 0 .146-1.438 1.304-1.428"/>
        <path fill="#666" d="M6.374 9.575a.3.3 0 0 1-.293-.234c-.148-.661-1.289-.789-1.3-.79a.3.3 0 1 1 .057-.597c.048.004.895.092 1.43.582.223-.5.654-.99 1.398-.99h.015a.3.3 0 0 1-.003.6h-.011c-.867 0-.99 1.112-.994 1.16a.3.3 0 0 1-.299.27"/>
        <path fill="#F6720E" d="M2.004 11.813s1.362-1.465 2.495-.223"/>
        <path fill="#666" d="M2.004 12.113a.3.3 0 0 1-.22-.504c.031-.034.772-.819 1.685-.819h.007c.467.003.885.204 1.244.598a.3.3 0 1 1-.443.404c-.245-.269-.508-.4-.804-.402h-.005c-.643 0-1.239.621-1.244.627a.3.3 0 0 1-.22.096"/>
        <path fill="#FFF" d="M7.799 2.258c-.04-.55.883-1.14 1.124-1.311.643-.485 1.311-.548 1.963-.327.98.331 1.516 1.369 1.195 2.317a1.756 1.756 0 0 1-.397.655c.355-.076.738-.06 1.111.066 1.072.362 1.658 1.496 1.308 2.533a1.938 1.938 0 0 1-.918 1.085c1.27.27 2.125 1.458 1.925 2.714-.15.938-.846 1.657-1.727 1.904.15.421.201.882.126 1.351-.244 1.537-1.73 2.578-3.32 2.326-1.17-.187-2.07-1.023-2.366-2.065-.291-1.347.114-10.06-.024-11.248"/>
        <g transform="translate(7.4 .109)">
            <mask id="d" fill="#fff">
                <use xlink:href="#c"/>
            </mask>
            <path fill="#666" d="M.698 2.123c.058.525.022 2.3-.02 4.355-.055 2.72-.124 6.104.039 6.856.267.943 1.101 1.67 2.12 1.832 1.422.226 2.758-.706 2.976-2.077a2.416 2.416 0 0 0-.112-1.204l-.108-.302.31-.087c.792-.222 1.386-.875 1.51-1.662.174-1.092-.569-2.134-1.69-2.373l-.796-.169.714-.388c.37-.2.646-.527.778-.918.296-.878-.206-1.844-1.12-2.153a1.795 1.795 0 0 0-.952-.056l-.956.205.676-.706c.15-.156.261-.34.33-.543.267-.79-.185-1.66-1.007-1.938-.61-.206-1.16-.113-1.686.282l-.074.052c-.782.54-.94.838-.932.994M3.264 15.8a3.33 3.33 0 0 1-.522-.042C1.494 15.56.471 14.665.135 13.478-.048 12.64.019 9.36.078 6.466c.04-1.957.078-3.807.023-4.281L.1 2.17C.05 1.49.919.89 1.29.635l.06-.042C2.02.089 2.794-.04 3.583.227 4.718.61 5.338 1.82 4.965 2.925a2.066 2.066 0 0 1-.087.218c.207.014.413.054.613.122 1.228.414 1.899 1.721 1.496 2.913-.114.339-.306.64-.56.886 1.1.498 1.771 1.657 1.58 2.864a2.68 2.68 0 0 1-1.653 2.047c.097.395.116.807.052 1.208-.243 1.528-1.598 2.617-3.142 2.617" mask="url(#d)"/>
        </g>
        <path fill="#FFF" d="M11.684 3.592s-.145.032-.74.273c-.846.343-1.67-.525-1.67-.525"/>
        <path fill="#666" d="M10.53 4.246c-.798 0-1.441-.666-1.474-.7a.3.3 0 1 1 .436-.413c.006.007.696.715 1.34.454.588-.238.759-.281.787-.288a.3.3 0 1 1 .134.585c-.012.004-.168.046-.697.26-.18.072-.356.102-.526.102"/>
        <path fill="#FFF" d="M13.383 11.894s-1.367.524-2.453-.94"/>
        <path fill="#666" d="M12.808 12.288c-.625 0-1.45-.252-2.119-1.155a.3.3 0 0 1 .482-.358c.93 1.253 2.059.855 2.107.838a.301.301 0 0 1 .385.175.3.3 0 0 1-.172.386 1.956 1.956 0 0 1-.683.114"/>
    </g>
</svg>
