<svg height="16" viewBox="0 0 16 16" width="16" xmlns="http://www.w3.org/2000/svg" xmlns:xlink="http://www.w3.org/1999/xlink"><mask id="a" fill="#fff"><path d="m0 .122h8.053v15.678h-8.053z" fill="#fff" fill-rule="evenodd"/></mask><mask id="b" fill="#fff"><path d="m.016.091h8.023v15.709h-8.023z" fill="#fff" fill-rule="evenodd"/></mask><g fill="none" fill-rule="evenodd"><path d="m7.654 2.06c-.16-.342-.85-.897-1.088-1.073a1.887 1.887 0 0 0 -1.807-.37c-.988.31-1.547 1.335-1.249 2.29.08.255.213.479.383.665a2.09 2.09 0 0 0 -1.113.04c-1.08.336-1.692 1.458-1.365 2.501.151.485.478.868.893 1.106-1.276.243-2.158 1.411-1.987 2.671.128.94.808 1.675 1.683 1.942-.16.418-.221.877-.157 1.348.21 1.543 1.672 2.617 3.266 2.4 1.175-.159 2.094-.974 2.413-2.01.22-1.592.31-10.157.128-11.51" fill="#f6720e"/><path d="m3.41 3.706a1.82 1.82 0 0 0 -.54.083c-.921.288-1.445 1.241-1.17 2.127.123.394.392.726.756.935l.705.404-.798.151c-1.126.214-1.893 1.238-1.744 2.334.107.79.685 1.456 1.472 1.696l.308.094-.115.3a2.416 2.416 0 0 0 -.14 1.2c.09.666.443 1.255.994 1.66.554.407 1.242.58 1.935.485 1.013-.138 1.858-.835 2.159-1.779.208-1.58.302-9.862.13-11.353-.142-.243-.655-.686-.975-.924l-.02-.015a1.595 1.595 0 0 0 -1.518-.309c-.828.26-1.3 1.118-1.051 1.915.064.205.17.39.317.55l.66.722-.951-.228a1.766 1.766 0 0 0 -.412-.048m1.288 12.094c-.69 0-1.36-.216-1.918-.627a3.052 3.052 0 0 1 -1.154-3.268 2.678 2.678 0 0 1 -1.604-2.085c-.164-1.21.533-2.354 1.644-2.827a2.222 2.222 0 0 1 -.54-.898c-.375-1.2.326-2.492 1.563-2.879.2-.063.408-.099.616-.108a2.114 2.114 0 0 1 -.083-.22c-.347-1.112.3-2.308 1.446-2.666a2.2 2.2 0 0 1 2.085.422c.135.1.96.729 1.172 1.181l.02.042.005.045c.19 1.42.096 9.976-.128 11.59l-.01.048c-.364 1.178-1.407 2.05-2.66 2.22-.15.02-.301.03-.451.03" fill="#666" mask="url(#a)" transform="translate(0 .109)"/><path d="m3.893 3.553s.154.104.626.54c1.296 1.2.888 2.042.888 2.042" fill="#f6720e"/><path d="m5.407 6.435a.3.3 0 0 1 -.27-.43c.008-.022.27-.681-.822-1.691-.436-.403-.59-.513-.592-.514a.3.3 0 1 1 .338-.496c.017.012.187.13.662.57 1.442 1.334.974 2.349.954 2.392a.3.3 0 0 1 -.27.169" fill="#666"/><path d="m4.81 8.253s1.364.13 1.564 1.022c0 0 .146-1.438 1.304-1.428" fill="#f6720e"/><path d="m6.374 9.575a.3.3 0 0 1 -.293-.234c-.148-.661-1.289-.789-1.3-.79a.3.3 0 1 1 .057-.597c.048.004.895.092 1.43.582.223-.5.654-.99 1.398-.99h.015a.3.3 0 0 1 -.003.6h-.011c-.867 0-.99 1.112-.994 1.16a.3.3 0 0 1 -.299.27" fill="#666"/><path d="m2.004 11.813s1.362-1.465 2.495-.223" fill="#f6720e"/><path d="m2.004 12.113a.3.3 0 0 1 -.22-.504c.031-.034.772-.819 1.685-.819h.007c.467.003.885.204 1.244.598a.3.3 0 1 1 -.443.404c-.245-.269-.508-.4-.804-.402h-.005c-.643 0-1.239.621-1.244.627a.3.3 0 0 1 -.22.096" fill="#666"/><path d="m7.799 2.258c-.04-.55.883-1.14 1.124-1.311.643-.485 1.311-.548 1.963-.327.98.331 1.516 1.369 1.195 2.317a1.756 1.756 0 0 1 -.397.655c.355-.076.738-.06 1.111.066 1.072.362 1.658 1.496 1.308 2.533a1.938 1.938 0 0 1 -.918 1.085c1.27.27 2.125 1.458 1.925 2.714-.15.938-.846 1.657-1.727 1.904.15.421.201.882.126 1.351-.244 1.537-1.73 2.578-3.32 2.326-1.17-.187-2.07-1.023-2.366-2.065-.291-1.347.114-10.06-.024-11.248" fill="#fff"/><path d="m.698 2.123c.058.525.022 2.3-.02 4.355-.055 2.72-.124 6.104.039 6.856.267.943 1.101 1.67 2.12 1.832 1.422.226 2.758-.706 2.976-2.077a2.416 2.416 0 0 0 -.112-1.204l-.108-.302.31-.087c.792-.222 1.386-.875 1.51-1.662.174-1.092-.569-2.134-1.69-2.373l-.796-.169.714-.388c.37-.2.646-.527.778-.918.296-.878-.206-1.844-1.12-2.153a1.795 1.795 0 0 0 -.952-.056l-.956.205.676-.706c.15-.156.261-.34.33-.543.267-.79-.185-1.66-1.007-1.938-.61-.206-1.16-.113-1.686.282l-.074.052c-.782.54-.94.838-.932.994m2.566 13.677a3.33 3.33 0 0 1 -.522-.042c-1.248-.198-2.271-1.093-2.607-2.28-.183-.838-.116-4.118-.057-7.012.04-1.957.078-3.807.023-4.281l-.001-.015c-.05-.68.819-1.28 1.19-1.535l.06-.042c.67-.504 1.444-.633 2.233-.366 1.135.383 1.755 1.593 1.382 2.698a2.066 2.066 0 0 1 -.087.218c.207.014.413.054.613.122 1.228.414 1.899 1.721 1.496 2.913-.114.339-.306.64-.56.886 1.1.498 1.771 1.657 1.58 2.864a2.68 2.68 0 0 1 -1.653 2.047c.097.395.116.807.052 1.208-.243 1.528-1.598 2.617-3.142 2.617" fill="#666" mask="url(#b)" transform="translate(7.4 .109)"/><path d="m11.684 3.592s-.145.032-.74.273c-.846.343-1.67-.525-1.67-.525" fill="#fff"/><path d="m10.53 4.246c-.798 0-1.441-.666-1.474-.7a.3.3 0 1 1 .436-.413c.006.007.696.715 1.34.454.588-.238.759-.281.787-.288a.3.3 0 1 1 .134.585c-.012.004-.168.046-.697.26-.18.072-.356.102-.526.102" fill="#666"/><path d="m13.383 11.894s-1.367.524-2.453-.94" fill="#fff"/><path d="m12.808 12.288c-.625 0-1.45-.252-2.119-1.155a.3.3 0 0 1 .482-.358c.93 1.253 2.059.855 2.107.838a.301.301 0 0 1 .385.175.3.3 0 0 1 -.172.386 1.956 1.956 0 0 1 -.683.114" fill="#666"/></g></svg>