<svg xmlns="http://www.w3.org/2000/svg" xmlns:xlink="http://www.w3.org/1999/xlink" width="25" height="43" viewBox="0 0 25 43">
    <defs>
        <path id="a" d="M.265.265h8.117V7.5H.265z"/>
        <path id="c" d="M0 41.86h24.952V.288H0z"/>
        <path id="e" d="M.052 11.528c0 6.22 5.042 11.262 11.261 11.262 6.22 0 11.261-5.042 11.261-11.262 0-6.219-5.042-11.26-11.26-11.26C5.093.267.051 5.308.051 11.527"/>
        <path id="g" d="M.052 11.528c0 6.22 5.042 11.262 11.261 11.262 6.22 0 11.261-5.042 11.261-11.262 0-6.219-5.042-11.26-11.26-11.26C5.093.267.051 5.308.051 11.527"/>
    </defs>
    <g fill="none" fill-rule="evenodd">
        <g transform="translate(0 .003)">
            <path fill="#CFDBDD" d="M24.023 18.656c0 6.377-5.17 11.548-11.547 11.548-6.378 0-11.547-5.17-11.547-11.548 0-6.377 5.17-11.547 11.547-11.547 6.377 0 11.547 5.17 11.547 11.547"/>
            <path fill="#5586FF" d="M12.476 7.4c-6.207 0-11.257 5.05-11.257 11.256 0 6.207 5.05 11.257 11.257 11.257s11.257-5.05 11.257-11.257S18.683 7.4 12.476 7.4m0 23.095c-6.527 0-11.838-5.31-11.838-11.838 0-6.527 5.31-11.838 11.838-11.838 6.527 0 11.838 5.31 11.838 11.838s-5.31 11.838-11.838 11.838"/>
            <path fill="#FFF" d="M5.5 17.673H2.617a2.332 2.332 0 0 1-2.325-2.326v-2a2.332 2.332 0 0 1 2.325-2.326h2.885a2.332 2.332 0 0 1 2.325 2.325v2.001a2.332 2.332 0 0 1-2.325 2.326"/>
            <path fill="#5586FF" d="M2.616 11.312a2.037 2.037 0 0 0-2.035 2.035v2c0 1.122.913 2.035 2.035 2.035h2.885a2.037 2.037 0 0 0 2.035-2.035v-2A2.037 2.037 0 0 0 5.5 11.312H2.616zm2.885 6.652H2.616A2.62 2.62 0 0 1 0 15.347v-2a2.62 2.62 0 0 1 2.616-2.617h2.885a2.62 2.62 0 0 1 2.616 2.617v2a2.62 2.62 0 0 1-2.616 2.617z"/>
            <path fill="#FFF" d="M22.335 17.673h-2.884a2.333 2.333 0 0 1-2.326-2.326v-2a2.333 2.333 0 0 1 2.326-2.326h2.884a2.332 2.332 0 0 1 2.326 2.325v2.001a2.332 2.332 0 0 1-2.326 2.326"/>
            <g transform="translate(16.57 10.465)">
                <mask id="b" fill="#fff">
                    <use xlink:href="#a"/>
                </mask>
                <path fill="#5586FF" d="M2.881.847A2.037 2.037 0 0 0 .846 2.88v2.001c0 1.122.913 2.035 2.035 2.035h2.885A2.037 2.037 0 0 0 7.8 4.882v-2A2.037 2.037 0 0 0 5.766.846H2.88zm2.885 6.652H2.88A2.62 2.62 0 0 1 .265 4.882v-2A2.62 2.62 0 0 1 2.88.264h2.885a2.62 2.62 0 0 1 2.616 2.616v2.001A2.62 2.62 0 0 1 5.766 7.5z" mask="url(#b)"/>
            </g>
            <path fill="#FFF" d="M16.406 21.538H8.582c-3.03 0-5.51-2.479-5.51-5.51v-4.84c0-3.03 2.48-5.51 5.51-5.51h7.824c3.03 0 5.51 2.48 5.51 5.51v4.84c0 3.031-2.48 5.51-5.51 5.51"/>
            <path fill="#5586FF" d="M8.582 5.969a5.225 5.225 0 0 0-5.22 5.219v4.84a5.225 5.225 0 0 0 5.22 5.22h7.824a5.225 5.225 0 0 0 5.219-5.22v-4.84a5.225 5.225 0 0 0-5.22-5.22H8.583zm7.824 15.86H8.582a5.807 5.807 0 0 1-5.8-5.8v-4.841c0-3.199 2.601-5.8 5.8-5.8h7.824c3.198 0 5.8 2.601 5.8 5.8v4.84c0 3.199-2.602 5.801-5.8 5.801z"/>
            <path fill="#FFF" d="M16.297 18.974H8.69a3.387 3.387 0 0 1-3.377-3.376v-3.37A3.387 3.387 0 0 1 8.69 8.851h7.607a3.387 3.387 0 0 1 3.377 3.377v3.37a3.387 3.387 0 0 1-3.377 3.376"/>
            <path fill="#5586FF" d="M8.69 9.142a3.09 3.09 0 0 0-3.086 3.086v3.37a3.09 3.09 0 0 0 3.086 3.086h7.607a3.09 3.09 0 0 0 3.087-3.087v-3.369a3.09 3.09 0 0 0-3.087-3.086H8.69zm7.607 10.123H8.69a3.672 3.672 0 0 1-3.668-3.668v-3.369A3.672 3.672 0 0 1 8.69 8.56h7.607a3.672 3.672 0 0 1 3.668 3.668v3.37a3.672 3.672 0 0 1-3.668 3.667z"/>
            <path fill="#5586FF" d="M17.125 13.35a1.09 1.09 0 1 1-2.181 0 1.09 1.09 0 0 1 2.181 0M10.008 13.35a1.09 1.09 0 1 1-2.182 0 1.09 1.09 0 0 1 2.182 0M12.493 16.88c-1.047 0-1.899-.704-1.899-1.57a.244.244 0 1 1 .488 0c0 .597.633 1.082 1.411 1.082.779 0 1.412-.485 1.412-1.082a.244.244 0 1 1 .488 0c0 .866-.852 1.57-1.9 1.57"/>
            <path fill="#FFF" d="M12.493 3.525v2.153"/>
            <mask id="d" fill="#fff">
                <use xlink:href="#c"/>
            </mask>
            <path fill="#5586FF" d="M12.203 5.678h.581V3.525h-.581z" mask="url(#d)"/>
            <path fill="#E3F4F0" d="M14.076 2.18a1.6 1.6 0 1 1-3.2 0 1.6 1.6 0 0 1 3.2 0" mask="url(#d)"/>
            <path fill="#5586FF" d="M12.476.87c-.722 0-1.31.587-1.31 1.31 0 .722.588 1.31 1.31 1.31.722 0 1.31-.588 1.31-1.31 0-.723-.588-1.31-1.31-1.31m0 3.2a1.894 1.894 0 0 1-1.891-1.89c0-1.044.848-1.892 1.89-1.892 1.044 0 1.892.848 1.892 1.891a1.894 1.894 0 0 1-1.891 1.892" mask="url(#d)"/>
        </g>
        <g transform="translate(1.163 7.27)">
            <mask id="f" fill="#fff">
                <use xlink:href="#e"/>
            </mask>
            <path fill="#FFF" d="M11.331 34.302c-3.895 0-7.083-3.187-7.083-7.082v-3.796c0-3.896 3.188-7.083 7.083-7.083s7.082 3.187 7.082 7.083v3.796c0 3.895-3.187 7.082-7.082 7.082" mask="url(#f)"/>
        </g>
        <g transform="translate(1.163 7.27)">
            <mask id="h" fill="#fff">
                <use xlink:href="#g"/>
            </mask>
            <path fill="#5586FF" d="M11.331 16.632a6.8 6.8 0 0 0-6.792 6.792v3.796a6.799 6.799 0 0 0 6.792 6.792 6.799 6.799 0 0 0 6.792-6.792v-3.796a6.799 6.799 0 0 0-6.792-6.792m0 17.961c-4.066 0-7.373-3.308-7.373-7.373v-3.796c0-4.066 3.307-7.373 7.373-7.373 4.065 0 7.373 3.307 7.373 7.373v3.796c0 4.065-3.308 7.373-7.373 7.373" mask="url(#h)"/>
        </g>
    </g>
</svg>
