<svg width="24" height="24" viewBox="0 0 24 24" fill="none" xmlns="http://www.w3.org/2000/svg">
<path opacity="0.9" fill-rule="evenodd" clip-rule="evenodd" d="M12.334 2.4888C12.1435 2.31299 11.8503 2.31188 11.6585 2.48623L2.29332 11.0001H4.00002C4.13263 11.0001 4.25981 11.0527 4.35357 11.1465C4.44734 11.2403 4.50002 11.3674 4.50002 11.5001V20.5001C4.50002 20.7762 4.72387 21.0001 5.00002 21.0001H9.00002V13.5001C9.00002 12.6716 9.67159 12.0001 10.5 12.0001H13.5C14.3284 12.0001 15 12.6716 15 13.5001V21.0001H19C19.2762 21.0001 19.5 20.7762 19.5 20.5001V11.5001C19.5 11.2239 19.7239 11.0001 20 11.0001H21.7268L19.4793 8.91317C19.1737 8.62935 19 8.23109 19 7.81398V5.00005H15.641C15.2639 5.00005 14.9007 4.85803 14.6236 4.60226L12.334 2.4888ZM10.9859 1.74629C11.5612 1.22323 12.4409 1.22657 13.0123 1.754L15.3019 3.86745C15.3942 3.95271 15.5153 4.00005 15.641 4.00005H19.5C19.7762 4.00005 20 4.22391 20 4.50005V7.81398C20 7.95302 20.0579 8.08577 20.1598 8.18038L23.3402 11.1337C23.4909 11.2736 23.5406 11.4914 23.4654 11.6828C23.3903 11.8742 23.2056 12.0001 23 12.0001H20.5V20.5001C20.5 21.3285 19.8284 22.0001 19 22.0001H14.5C14.2239 22.0001 14 21.7762 14 21.5001V13.5001C14 13.2239 13.7762 13.0001 13.5 13.0001H10.5C10.2239 13.0001 10 13.2239 10 13.5001V21.5001C10 21.7762 9.77616 22.0001 9.50002 22.0001H5.00002C4.17159 22.0001 3.50002 21.3285 3.50002 20.5001V12.0001H1.00002C0.793451 12.0001 0.608147 11.873 0.533659 11.6804C0.459171 11.4877 0.510835 11.269 0.663684 11.1301L10.9859 1.74629Z" fill="#3955A7"/>
</svg>
