<svg width="44" height="43" viewBox="0 0 44 43" fill="none" xmlns="http://www.w3.org/2000/svg">
<mask id="mask0" mask-type="alpha" maskUnits="userSpaceOnUse" x="0" y="0" width="44" height="43">
<path d="M43.4033 0H0.436523V42.9667H43.4033V0Z" fill="#C4C4C4"/>
</mask>
<g mask="url(#mask0)">
<path fill-rule="evenodd" clip-rule="evenodd" d="M25.8113 5.20947C23.6732 3.33876 20.4838 3.3206 18.3212 5.1629C12.555 10.0752 9.22522 17.2759 9.22522 24.8507V25.6866L1.41309 34.2909V40.0373V42.9669H4.34264H9.22522H12.1548L31.6851 42.9666L34.6147 42.9669H39.4972H42.4268V40.0373V34.2909L34.6147 25.6866V24.6093C34.6147 17.1759 31.4056 10.1043 25.8113 5.20947ZM34.6147 30.0447V40.037L39.4972 40.0373V35.4224L34.6147 30.0447ZM31.6851 24.6093C31.6851 18.0207 28.8408 11.7527 23.8822 7.41426C22.8396 6.50209 21.2796 6.49106 20.221 7.39297C15.1073 11.7494 12.1548 18.1354 12.1548 24.8507V26.8181V40.037H31.6851V26.8181V24.6093ZM4.34264 35.4224L9.22522 30.0447V40.037L4.34264 40.0373V35.4224Z" fill="#A5A7B8"/>
<path fill-rule="evenodd" clip-rule="evenodd" d="M36.5679 1.95312C37.1072 1.95312 37.5444 1.51592 37.5444 0.976562C37.5444 0.437207 37.1072 0 36.5679 0C36.0285 0 35.5913 0.437207 35.5913 0.976562C35.5913 1.51592 36.0285 1.95312 36.5679 1.95312ZM36.5679 5.85938C37.1072 5.85938 37.5444 5.42217 37.5444 4.88281C37.5444 4.34346 37.1072 3.90625 36.5679 3.90625C36.0285 3.90625 35.5913 4.34346 35.5913 4.88281C35.5913 5.42217 36.0285 5.85938 36.5679 5.85938ZM37.5444 8.78906C37.5444 9.32842 37.1072 9.76562 36.5679 9.76562C36.0285 9.76562 35.5913 9.32842 35.5913 8.78906C35.5913 8.24971 36.0285 7.8125 36.5679 7.8125C37.1072 7.8125 37.5444 8.24971 37.5444 8.78906ZM36.5679 13.6719C37.1072 13.6719 37.5444 13.2347 37.5444 12.6953C37.5444 12.156 37.1072 11.7188 36.5679 11.7188C36.0285 11.7188 35.5913 12.156 35.5913 12.6953C35.5913 13.2347 36.0285 13.6719 36.5679 13.6719ZM43.4038 0.976562C43.4038 1.51592 42.9666 1.95312 42.4272 1.95312C41.8879 1.95312 41.4507 1.51592 41.4507 0.976562C41.4507 0.437207 41.8879 0 42.4272 0C42.9666 0 43.4038 0.437207 43.4038 0.976562ZM42.4272 5.85938C42.9666 5.85938 43.4038 5.42217 43.4038 4.88281C43.4038 4.34346 42.9666 3.90625 42.4272 3.90625C41.8879 3.90625 41.4507 4.34346 41.4507 4.88281C41.4507 5.42217 41.8879 5.85938 42.4272 5.85938ZM43.4038 8.78906C43.4038 9.32842 42.9666 9.76562 42.4272 9.76562C41.8879 9.76562 41.4507 9.32842 41.4507 8.78906C41.4507 8.24971 41.8879 7.8125 42.4272 7.8125C42.9666 7.8125 43.4038 8.24971 43.4038 8.78906ZM42.4272 13.6719C42.9666 13.6719 43.4038 13.2347 43.4038 12.6953C43.4038 12.156 42.9666 11.7188 42.4272 11.7188C41.8879 11.7188 41.4507 12.156 41.4507 12.6953C41.4507 13.2347 41.8879 13.6719 42.4272 13.6719Z" fill="#FE5E00"/>
<path d="M19.4785 24.4131C19.4785 23.0647 20.5716 21.9717 21.9199 21.9717C23.2683 21.9717 24.3613 23.0647 24.3613 24.4131V41.5029H19.4785V24.4131Z" stroke="#5879DA" stroke-width="3"/>
</g>
</svg>
