<svg width="43" height="43" viewBox="0 0 43 43" fill="none" xmlns="http://www.w3.org/2000/svg">
<g clip-path="url(#clip0)">
<mask id="mask0" mask-type="alpha" maskUnits="userSpaceOnUse" x="0" y="0" width="43" height="43">
<path d="M42.9667 0H0V42.9667H42.9667V0Z" fill="#C4C4C4"/>
</mask>
<g mask="url(#mask0)">
</g>
<rect x="8.5" y="6.5" width="27" height="30" stroke="#A2A3B8" stroke-width="3" stroke-linejoin="round"/>
<rect x="18" y="13" width="13" height="2" fill="#5879DA"/>
<rect x="18" y="18" width="13" height="2" fill="#5879DA"/>
<rect x="18" y="23" width="13" height="2" fill="#5879DA"/>
<rect x="18" y="28" width="13" height="2" fill="#5879DA"/>
<path fill-rule="evenodd" clip-rule="evenodd" d="M12 11C12 11.552 12.4477 12 13 12C13.5523 12 14 11.552 14 11C14 10.448 13.5523 10 13 10C12.4477 10 12 10.448 12 11ZM8 11C8 11.552 8.4477 12 9 12C9.5523 12 10 11.552 10 11C10 10.448 9.5523 10 9 10C8.4477 10 8 10.448 8 11ZM5 12C4.4477 12 4 11.552 4 11C4 10.448 4.4477 10 5 10C5.5523 10 6 10.448 6 11C6 11.552 5.5523 12 5 12ZM0 11C0 11.552 0.4477 12 1 12C1.5523 12 2 11.552 2 11C2 10.448 1.5523 10 1 10C0.4477 10 0 10.448 0 11ZM13 18C12.4477 18 12 17.552 12 17C12 16.448 12.4477 16 13 16C13.5523 16 14 16.448 14 17C14 17.552 13.5523 18 13 18ZM8 17C8 17.552 8.4477 18 9 18C9.5523 18 10 17.552 10 17C10 16.448 9.5523 16 9 16C8.4477 16 8 16.448 8 17ZM5 18C4.4477 18 4 17.552 4 17C4 16.448 4.4477 16 5 16C5.5523 16 6 16.448 6 17C6 17.552 5.5523 18 5 18ZM0 17C0 17.552 0.4477 18 1 18C1.5523 18 2 17.552 2 17C2 16.448 1.5523 16 1 16C0.4477 16 0 16.448 0 17Z" fill="#FE5E00"/>
</g>
<defs>
<clipPath id="clip0">
<rect width="42.9667" height="42.9667" fill="white"/>
</clipPath>
</defs>
</svg>
