<svg width="43" height="44" viewBox="0 0 43 44" fill="none" xmlns="http://www.w3.org/2000/svg">
<mask id="mask0" mask-type="alpha" maskUnits="userSpaceOnUse" x="0" y="0" width="43" height="44">
<path d="M42.9667 0.436401H0V43.4031H42.9667V0.436401Z" fill="#C4C4C4"/>
</mask>
<g mask="url(#mask0)">
<path fill-rule="evenodd" clip-rule="evenodd" d="M20.5 26.1468L17.3102 39.7566L18.4386 39.246C19.7489 38.653 21.2511 38.653 22.5614 39.246L23.6898 39.7566L20.5 26.1468ZM22.4473 21.3081C21.9649 19.25 19.0352 19.25 18.5528 21.3081L13.9263 41.048C13.5477 42.6631 15.1867 44.0104 16.6981 43.3265L19.6755 41.9791C20.1996 41.742 20.8005 41.742 21.3246 41.9791L24.302 43.3265C25.8133 44.0104 27.4523 42.6631 27.0738 41.048L22.4473 21.3081Z" fill="#A2A3B8"/>
<path d="M25.8009 7.60131C27.2095 8.96571 28.0009 10.8171 28.0009 12.7478C28.0009 14.6784 27.2095 16.5298 25.8009 17.8942C25.2146 18.4621 25.2141 19.3832 25.7997 19.9517C26.3852 20.5201 27.3352 20.5206 27.9214 19.9528C29.8935 18.0426 31.0015 15.4506 31.0015 12.7478C31.0015 10.0449 29.8935 7.45288 27.9214 5.54272C27.3352 4.9749 26.3852 4.97541 25.7997 5.54387C25.2141 6.11233 25.2146 7.03348 25.8009 7.60131Z" fill="#5879DA"/>
<path d="M15.1992 17.8797C13.7906 16.5153 12.9991 14.6639 12.9991 12.7332C12.9991 10.8026 13.7906 8.95118 15.1992 7.58678C15.7854 7.01895 15.786 6.0978 15.2004 5.52934C14.6148 4.96088 13.6649 4.96037 13.0786 5.5282C11.1066 7.43836 9.99854 10.0304 9.99854 12.7332C9.99854 15.4361 11.1066 18.0281 13.0786 19.9383C13.6649 20.5061 14.6148 20.5056 15.2004 19.9371C15.786 19.3687 15.7854 18.4475 15.1992 17.8797Z" fill="#5879DA"/>
<path d="M30.0462 3.48339C35.3174 8.59639 35.3174 16.8846 30.0462 21.9975C29.4604 22.5658 29.4605 23.4869 30.0465 24.055C30.6325 24.623 31.5824 24.6229 32.1683 24.0547C38.6108 17.8055 38.6108 7.67548 32.1683 1.42626C31.5824 0.858033 30.6325 0.857894 30.0465 1.42595C29.4605 1.99401 29.4604 2.91516 30.0462 3.48339Z" fill="#5879DA"/>
<path d="M10.954 21.9975C5.68279 16.8846 5.68279 8.59639 10.954 3.48339C11.5398 2.91516 11.5396 1.99401 10.9537 1.42595C10.3677 0.857894 9.41773 0.858033 8.83192 1.42626C2.38936 7.67548 2.38936 17.8055 8.83192 24.0547C9.41773 24.6229 10.3677 24.623 10.9537 24.055C11.5396 23.4869 11.5398 22.5658 10.954 21.9975Z" fill="#5879DA"/>
<path fill-rule="evenodd" clip-rule="evenodd" d="M15.999 12.7405C15.999 15.1509 18.0141 17.1049 20.4999 17.1049C22.9857 17.1049 25.0008 15.1509 25.0008 12.7405C25.0008 10.33 22.9857 8.37598 20.4999 8.37598C18.0141 8.37598 15.999 10.33 15.999 12.7405ZM22.0002 12.7405C22.0002 13.544 21.3285 14.1953 20.4999 14.1953C19.6713 14.1953 18.9996 13.544 18.9996 12.7405C18.9996 11.937 19.6713 11.2856 20.4999 11.2856C21.3285 11.2856 22.0002 11.937 22.0002 12.7405Z" fill="#5879DA"/>
<path fill-rule="evenodd" clip-rule="evenodd" d="M23 36C23 35.448 22.5523 35 22 35C21.4477 35 21 35.448 21 36C21 36.552 21.4477 37 22 37C22.5523 37 23 36.552 23 36ZM27 36C27 35.448 26.5523 35 26 35C25.4477 35 25 35.448 25 36C25 36.552 25.4477 37 26 37C26.5523 37 27 36.552 27 36ZM30 35C30.5523 35 31 35.448 31 36C31 36.552 30.5523 37 30 37C29.4477 37 29 36.552 29 36C29 35.448 29.4477 35 30 35ZM35 36C35 35.448 34.5523 35 34 35C33.4477 35 33 35.448 33 36C33 36.552 33.4477 37 34 37C34.5523 37 35 36.552 35 36ZM22 29C22.5523 29 23 29.448 23 30C23 30.552 22.5523 31 22 31C21.4477 31 21 30.552 21 30C21 29.448 21.4477 29 22 29ZM27 30C27 29.448 26.5523 29 26 29C25.4477 29 25 29.448 25 30C25 30.552 25.4477 31 26 31C26.5523 31 27 30.552 27 30ZM30 29C30.5523 29 31 29.448 31 30C31 30.552 30.5523 31 30 31C29.4477 31 29 30.552 29 30C29 29.448 29.4477 29 30 29ZM35 30C35 29.448 34.5523 29 34 29C33.4477 29 33 29.448 33 30C33 30.552 33.4477 31 34 31C34.5523 31 35 30.552 35 30Z" fill="#FE5E00"/>
</g>
</svg>
