<svg width="293" height="28" viewBox="0 0 293 28" fill="none" xmlns="http://www.w3.org/2000/svg">
<path d="M5.20594 7.17976L2.99949 5.23766L5.31168 2.96073L7.28197 5.13192C7.68134 4.82822 8.10053 4.55151 8.53675 4.30362L7.25377 1.68127L10.2744 0.447634L11.2508 3.19688C11.7385 3.06804 12.2342 2.97149 12.7346 2.90785L12.569 0H15.8399L15.6601 2.90785C16.1605 2.97167 16.6562 3.06822 17.144 3.19688L18.1203 0.447634L21.141 1.68127L19.8897 4.30362C20.3258 4.55173 20.745 4.82843 21.1445 5.13192L23.1148 2.96073L25.427 5.23766L23.2205 7.17976C23.5288 7.57275 23.8103 7.98607 24.0629 8.41692L26.7276 7.15509L27.9788 10.1299L25.1767 11.0921C25.3066 11.5715 25.4044 12.059 25.4693 12.5514L28.423 12.3892V15.6108L25.4693 15.4486C25.4047 15.9411 25.3069 16.4286 25.1767 16.9079L27.9683 17.8701L26.717 20.8449L24.0524 19.5831C23.7994 20.0137 23.518 20.427 23.21 20.8202L25.4164 22.7623L23.1042 25.0393L21.1339 22.8681C20.7344 23.1716 20.3152 23.4483 19.8792 23.6964L21.1621 26.3187L18.1415 27.5524L17.1652 24.8031C16.6774 24.9318 16.1817 25.0284 15.6813 25.0921L15.8469 28H12.576L12.7417 25.0921C12.2413 25.0282 11.7456 24.9317 11.2578 24.8031L10.2815 27.5524L7.26082 26.3187L8.5438 23.6964C8.10771 23.4483 7.68853 23.1716 7.28902 22.8681L5.31873 25.0393L3.00655 22.7623L5.21299 20.8202C4.90483 20.4272 4.6234 20.0138 4.37059 19.5831L1.70594 20.8449L0.45468 17.8701L3.24622 16.9079C3.11573 16.4286 3.01799 15.9411 2.95367 15.4486L0 15.6108V12.3857L2.95367 12.5478C3.01798 12.0554 3.11572 11.5678 3.24622 11.0886L0.45468 10.1264L1.70594 7.15156L4.38117 8.41692C4.62843 7.98675 4.90396 7.57345 5.20594 7.17976ZM7.32074 13.9965C7.29976 15.3629 7.68578 16.7048 8.42969 17.8512C9.1736 18.9976 10.2418 19.8968 11.4982 20.4343C12.7547 20.9718 14.1427 21.1234 15.4856 20.8697C16.8285 20.616 18.0655 19.9686 19.0393 19.0097C20.0131 18.0509 20.6796 16.824 20.9541 15.4852C21.2285 14.1464 21.0984 12.7562 20.5804 11.4916C20.0624 10.227 19.1798 9.14501 18.045 8.38346C16.9103 7.6219 15.5746 7.21517 14.208 7.215C13.3104 7.20803 12.4204 7.37792 11.5885 7.71495C10.7567 8.05198 9.99934 8.54957 9.3598 9.17929C8.72026 9.80901 8.21102 10.5585 7.86116 11.3851C7.51129 12.2116 7.32766 13.099 7.32074 13.9965ZM164.447 6.73565L175.374 17.5529V7.29607H176.935V21.1339L166.009 10.3343V20.5383H164.447V6.73565ZM145.368 13.9119C145.368 16.8973 147.93 19.3892 151.11 19.3892C154.289 19.3892 156.848 16.8973 156.848 13.9119C156.848 10.9265 154.321 8.43102 151.11 8.43102C147.899 8.43102 145.368 10.9124 145.368 13.9119ZM158.409 13.9295C158.409 17.7397 155.103 20.7603 151.11 20.7603C147.116 20.7603 143.81 17.7397 143.81 13.9295C143.81 10.1193 147.116 7.06344 151.11 7.06344C155.103 7.06344 158.409 10.1405 158.409 13.933V13.9295ZM137.282 9.87613C136.726 8.96324 136.056 8.43454 134.868 8.43454C133.624 8.43454 132.545 9.27694 132.545 10.4894C132.545 11.6314 133.79 12.1566 134.738 12.5619L135.668 12.9496C137.49 13.7039 139.031 14.5639 139.031 16.6717C139.031 18.9909 137.06 20.7638 134.628 20.7638C132.38 20.7638 130.709 19.3927 130.265 17.3379L131.788 16.9325C131.874 17.6177 132.209 18.2474 132.728 18.7022C133.248 19.157 133.917 19.4052 134.607 19.3998C136.112 19.3998 137.487 18.3107 137.487 16.8197C137.487 15.3288 136.204 14.7472 134.903 14.1868L134.05 13.8343C132.415 13.1294 131.005 12.3434 131.005 10.4471C131.005 8.39225 132.845 7.07402 134.924 7.07402C135.658 7.05698 136.382 7.23907 137.02 7.60092C137.658 7.96276 138.186 8.49082 138.548 9.1289L137.282 9.87613ZM119.162 13.4255H119.638C121.4 13.4255 123.184 13.1083 123.184 11.0534C123.184 8.87512 121.492 8.66365 119.617 8.66365H119.152L119.162 13.4255ZM119.162 20.5383H117.601V7.29607H119.638C122.296 7.29607 124.763 7.96223 124.763 10.9476C124.763 12.9849 123.406 14.423 121.238 14.5992L125.7 20.5383H123.786L119.557 14.7261H119.166L119.162 20.5383ZM104.284 7.29607H111.531V8.66365H105.842V12.6007H111.376V13.9718H105.842V19.1707H111.531V20.5418H104.284V7.29607ZM93.0055 13.3726H94.0629C95.79 13.3726 97.2563 12.8792 97.2563 10.9829C97.2563 8.82226 95.4164 8.66365 93.5977 8.66365H93.0232L93.0055 13.3726ZM93.0055 20.5383H91.4406V7.29607H93.7457C94.9512 7.29607 96.213 7.33132 97.2175 8.00101C97.7108 8.33388 98.1134 8.7843 98.389 9.31164C98.6647 9.83898 98.8048 10.4267 98.7966 11.0217C98.8012 11.5656 98.6836 12.1035 98.4524 12.5959C98.2211 13.0882 97.8822 13.5223 97.4607 13.8661C96.5126 14.6027 95.3071 14.7437 94.137 14.7437H93.002L93.0055 20.5383ZM80.1616 9.54481V12.4597H84.3348V14.7085H80.1616V18.2931H84.497V20.5418H77.5393V7.29607H84.497V9.54481H80.1616ZM66.641 15.1843L69.8449 7.31017H72.6647L66.6939 21.2749L60.7759 7.29607H63.5957L66.641 15.1843ZM55.9119 20.5418H53.2895V7.29607H55.9119V20.5418ZM44.5624 18.2931H48.2739V20.5418H41.9295V7.29607H44.5624V18.2931Z" fill="#FF6900"/>
<path d="M195.264 13.9888L193.525 15.7954V20.6001H191.65V6.38135H193.525V13.4126L199.844 6.38135H202.109L196.514 12.6606L202.549 20.6001H200.303L195.264 13.9888ZM205.781 10.0337L205.839 11.3618C206.647 10.3462 207.701 9.83838 209.004 9.83838C211.237 9.83838 212.363 11.0981 212.382 13.6177V20.6001H210.576V13.6079C210.569 12.8462 210.393 12.283 210.048 11.9185C209.71 11.5539 209.179 11.3716 208.457 11.3716C207.871 11.3716 207.356 11.5278 206.914 11.8403C206.471 12.1528 206.126 12.563 205.879 13.0708V20.6001H204.072V10.0337H205.781ZM215.029 15.2192C215.029 14.1841 215.23 13.2531 215.634 12.4263C216.044 11.5994 216.611 10.9614 217.333 10.5122C218.062 10.063 218.892 9.83838 219.823 9.83838C221.262 9.83838 222.424 10.3364 223.31 11.3325C224.202 12.3286 224.648 13.6535 224.648 15.3071V15.4341C224.648 16.4627 224.449 17.3872 224.052 18.2075C223.661 19.0213 223.098 19.6561 222.362 20.1118C221.633 20.5675 220.793 20.7954 219.843 20.7954C218.411 20.7954 217.249 20.2974 216.357 19.3013C215.471 18.3052 215.029 16.9868 215.029 15.3462V15.2192ZM216.845 15.4341C216.845 16.606 217.115 17.5467 217.655 18.2563C218.202 18.966 218.932 19.3208 219.843 19.3208C220.761 19.3208 221.49 18.9627 222.03 18.2466C222.571 17.5239 222.841 16.5148 222.841 15.2192C222.841 14.0604 222.564 13.1229 222.011 12.4067C221.464 11.6841 220.735 11.3228 219.823 11.3228C218.932 11.3228 218.212 11.6776 217.665 12.3872C217.118 13.0968 216.845 14.1125 216.845 15.4341ZM236.669 18.1099L238.7 10.0337H240.507L237.43 20.6001H235.966L233.397 12.5923L230.897 20.6001H229.432L226.366 10.0337H228.163L230.243 17.9438L232.704 10.0337H234.159L236.669 18.1099ZM244.715 20.6001H242.909V5.6001H244.715V20.6001ZM252.4 20.7954C250.968 20.7954 249.803 20.3267 248.904 19.3892C248.006 18.4451 247.557 17.1854 247.557 15.6099V15.2778C247.557 14.2297 247.755 13.2954 248.152 12.4751C248.556 11.6483 249.116 11.0037 249.832 10.5415C250.555 10.0728 251.336 9.83838 252.176 9.83838C253.549 9.83838 254.617 10.2909 255.379 11.1958C256.141 12.1007 256.521 13.3963 256.521 15.0825V15.8345H249.363C249.389 16.8761 249.692 17.7192 250.271 18.3638C250.857 19.0018 251.6 19.3208 252.498 19.3208C253.136 19.3208 253.676 19.1906 254.119 18.9302C254.562 18.6698 254.949 18.3247 255.281 17.895L256.385 18.7544C255.499 20.1151 254.171 20.7954 252.4 20.7954ZM252.176 11.3228C251.447 11.3228 250.835 11.5897 250.34 12.1235C249.845 12.6509 249.539 13.3931 249.422 14.3501H254.715V14.2134C254.663 13.2954 254.415 12.5858 253.973 12.0845C253.53 11.5767 252.931 11.3228 252.176 11.3228ZM258.582 15.229C258.582 13.6079 258.966 12.3058 259.734 11.3228C260.502 10.3332 261.508 9.83838 262.752 9.83838C263.989 9.83838 264.968 10.2616 265.691 11.1079V5.6001H267.498V20.6001H265.838L265.75 19.4673C265.027 20.3527 264.021 20.7954 262.732 20.7954C261.508 20.7954 260.509 20.2941 259.734 19.2915C258.966 18.2889 258.582 16.9803 258.582 15.3657V15.229ZM260.388 15.4341C260.388 16.632 260.636 17.5695 261.13 18.2466C261.625 18.9237 262.309 19.2622 263.181 19.2622C264.327 19.2622 265.164 18.7479 265.691 17.7192V12.8657C265.151 11.8696 264.321 11.3716 263.201 11.3716C262.315 11.3716 261.625 11.7134 261.13 12.397C260.636 13.0806 260.388 14.0929 260.388 15.4341ZM270.28 15.229C270.28 13.5819 270.661 12.2733 271.423 11.3032C272.185 10.3267 273.194 9.83838 274.45 9.83838C275.739 9.83838 276.745 10.2941 277.468 11.2056L277.556 10.0337H279.206V20.3462C279.206 21.7134 278.799 22.7909 277.986 23.5786C277.178 24.3664 276.091 24.7603 274.724 24.7603C273.962 24.7603 273.217 24.5975 272.488 24.272C271.758 23.9465 271.202 23.5005 270.818 22.9341L271.755 21.8501C272.53 22.8071 273.477 23.2856 274.597 23.2856C275.476 23.2856 276.159 23.0382 276.648 22.5435C277.142 22.0487 277.39 21.3521 277.39 20.4536V19.5454C276.667 20.3787 275.681 20.7954 274.431 20.7954C273.194 20.7954 272.191 20.2974 271.423 19.3013C270.661 18.3052 270.28 16.9478 270.28 15.229ZM272.097 15.4341C272.097 16.6255 272.341 17.563 272.829 18.2466C273.318 18.9237 274.001 19.2622 274.88 19.2622C276.019 19.2622 276.856 18.7446 277.39 17.7095V12.8853C276.836 11.8761 276.006 11.3716 274.9 11.3716C274.021 11.3716 273.334 11.7134 272.839 12.397C272.344 13.0806 272.097 14.0929 272.097 15.4341ZM286.725 20.7954C285.293 20.7954 284.128 20.3267 283.229 19.3892C282.331 18.4451 281.882 17.1854 281.882 15.6099V15.2778C281.882 14.2297 282.08 13.2954 282.477 12.4751C282.881 11.6483 283.441 11.0037 284.157 10.5415C284.88 10.0728 285.661 9.83838 286.501 9.83838C287.874 9.83838 288.942 10.2909 289.704 11.1958C290.466 12.1007 290.846 13.3963 290.846 15.0825V15.8345H283.688C283.714 16.8761 284.017 17.7192 284.596 18.3638C285.182 19.0018 285.925 19.3208 286.823 19.3208C287.461 19.3208 288.001 19.1906 288.444 18.9302C288.887 18.6698 289.274 18.3247 289.606 17.895L290.71 18.7544C289.824 20.1151 288.496 20.7954 286.725 20.7954ZM286.501 11.3228C285.772 11.3228 285.16 11.5897 284.665 12.1235C284.17 12.6509 283.864 13.3931 283.747 14.3501H289.04V14.2134C288.988 13.2954 288.74 12.5858 288.298 12.0845C287.855 11.5767 287.256 11.3228 286.501 11.3228Z" fill="white"/>
</svg>
