<svg width="23" height="26" viewBox="0 0 23 26" fill="none" xmlns="http://www.w3.org/2000/svg">
<path fill-rule="evenodd" clip-rule="evenodd" d="M11.9905 6.69678C11.9952 6.9743 11.9998 7.24363 11.9998 7.50001C11.9998 7.77615 11.7759 8 11.4998 8C11.2236 7.99999 10.9998 7.77613 10.9998 7.49999C10.9998 7.27985 10.9954 7.03706 10.9907 6.77791C10.9862 6.53159 10.9814 6.27046 10.98 6H8V9C8 9.2761 7.7761 9.5 7.5 9.5C7.2239 9.5 7 9.2761 7 9V5.5C7 5.22386 7.2239 5 7.5 5H10.9947C11.0226 4.30326 11.0952 3.58923 11.2644 2.93696C11.4653 2.16255 11.813 1.41965 12.424 0.87036C13.0442 0.31281 13.8851 0 14.98 0C16.0749 0 16.9158 0.31281 17.536 0.87037C18.1469 1.41966 18.4946 2.16256 18.6955 2.93697C18.8647 3.58924 18.9373 4.30326 18.9652 5H22.5C22.7761 5 23 5.22386 23 5.5V21.5C23 21.7761 22.7761 22 22.5 22H16.5C16.2239 22 16 21.7761 16 21.5C16 21.2239 16.2239 21 16.5 21H22V6H18.9799C18.9784 6.27048 18.9737 6.5316 18.9692 6.77794C18.9645 7.03693 18.96 7.27999 18.96 7.5C18.96 7.77614 18.7362 8 18.46 8C18.1839 8 17.96 7.77614 17.96 7.5C17.96 7.2437 17.9646 6.97448 17.9693 6.69704C17.9732 6.46951 17.9771 6.23599 17.9788 6H11.9811C11.9827 6.23598 11.9867 6.46924 11.9905 6.69678ZM17.9651 5H11.9948C12.0203 4.37582 12.085 3.75644 12.2324 3.18804C12.4044 2.52495 12.6781 1.9866 13.0926 1.61401C13.4978 1.24969 14.0862 1 14.98 1C15.8737 1 16.4622 1.24969 16.8674 1.61401C17.2818 1.98659 17.5555 2.52494 17.7275 3.18803C17.8749 3.75644 17.9396 4.37582 17.9651 5Z" fill="#5879DA"/>
<path fill-rule="evenodd" clip-rule="evenodd" d="M6.5 11C5.39543 11 4.5 11.8954 4.5 13H1C0.44771 13 0 13.4477 0 14V18.7924L0.66662 18.5568C0.77024 18.5201 0.88223 18.5 1 18.5C1.55228 18.5 2 18.9477 2 19.5C2 20.0523 1.55228 20.5 1 20.5C0.88223 20.5 0.77024 20.4799 0.66662 20.4432L0 20.2076V25C0 25.5523 0.44772 26 1 26H5.79239L5.55677 25.3334C5.52015 25.2298 5.5 25.1178 5.5 25C5.5 24.4477 5.94772 24 6.5 24C7.0523 24 7.5 24.4477 7.5 25C7.5 25.1178 7.4799 25.2298 7.4432 25.3334L7.2076 26H12C12.5523 26 13 25.5523 13 25V21.5C14.1046 21.5 15 20.6046 15 19.5C15 18.3954 14.1046 17.5 13 17.5V14C13 13.4477 12.5523 13 12 13H8.5C8.5 11.8954 7.6046 11 6.5 11ZM5.5 13C5.5 12.4477 5.94772 12 6.5 12C7.0523 12 7.5 12.4477 7.5 13C7.5 13.1178 7.4799 13.2298 7.4432 13.3334L7.2076 14H12V18.7924L12.6666 18.5568C12.7702 18.5201 12.8822 18.5 13 18.5C13.5523 18.5 14 18.9477 14 19.5C14 20.0523 13.5523 20.5 13 20.5C12.8822 20.5 12.7702 20.4799 12.6666 20.4432L12 20.2076V25H8.5C8.5 23.8954 7.6046 23 6.5 23C5.39543 23 4.5 23.8954 4.5 25H1V21.5C2.10457 21.5 3 20.6046 3 19.5C3 18.3954 2.10457 17.5 1 17.5V14H5.79239L5.55677 13.3334C5.52015 13.2298 5.5 13.1178 5.5 13Z" fill="#5879DA"/>
</svg>
