<svg width="33" height="32" fill="none" xmlns="http://www.w3.org/2000/svg"><path d="M23.833 15.5v-3a2 2 0 00-2-2h-15a2 2 0 00-2 2v9a2 2 0 002 2h9" stroke="#5879da" stroke-linecap="round" stroke-linejoin="bevel"/><path d="M25.833 16.5v-6a2 2 0 00-2-2h-15" stroke="#5879da" stroke-linecap="round" stroke-linejoin="bevel"/><path d="M27.833 17.5v-9a2 2 0 00-2-2h-15" stroke="#5879da" stroke-linecap="round" stroke-linejoin="bevel"/><circle cx="11.333" cy="16" r="2.5" stroke="#5879da"/><path d="M15.833 23.5v-2a3 3 0 00-3-3h-3a3 3 0 00-3 3v2" stroke="#5879da" stroke-linecap="round" stroke-linejoin="round"/><path d="M17.833 14.5h3M17.833 16.5h2" stroke="#5879da" stroke-linecap="round"/><path d="M23.663 17.5h.5a.5.5 0 00-.5-.5v.5zm-2 0V17a.5.5 0 00-.5.5h.5zm0 1.471l.136.482a.5.5 0 00.364-.482h-.5zm-1.555.9l-.25.432a.5.5 0 00.599-.074l-.349-.359zm-1.275-.737l.25-.433a.5.5 0 00-.683.183l.433.25zm-1 1.732l-.433-.25a.5.5 0 00.183.683l.25-.433zm1.275.736l.484.122a.5.5 0 00-.234-.555l-.25.433zm0 1.796l.25.433a.5.5 0 00.234-.555l-.484.122zm-1.275.736l-.25-.433a.5.5 0 00-.183.683l.433-.25zm1 1.732l-.433.25a.5.5 0 00.683.183l-.25-.433zm1.275-.736l.349-.359a.5.5 0 00-.599-.074l.25.433zm1.555.899h.5a.5.5 0 00-.364-.482l-.136.482zm0 1.471h-.5a.5.5 0 00.5.5v-.5zm2 0v.5a.5.5 0 00.5-.5h-.5zm0-1.471l-.136-.482a.5.5 0 00-.364.482h.5zm1.555-.899l.25-.433a.5.5 0 00-.598.074l.348.359zm1.276.736l-.25.433a.5.5 0 00.683-.183l-.433-.25zm1-1.732l.433.25a.5.5 0 00-.183-.683l-.25.433zm-1.275-.736l-.485-.122a.5.5 0 00.235.555l.25-.433zm0-1.796l-.25-.433a.5.5 0 00-.235.555l.485-.122zm1.274-.736l.25.433a.5.5 0 00.184-.683l-.433.25zm-1-1.732l.434-.25a.5.5 0 00-.683-.183l.25.433zm-1.274.736l-.349.359a.5.5 0 00.598.074l-.25-.433zm-1.556-.899h-.5a.5.5 0 00.364.482l.136-.482zm0-1.971h-2v1h2v-1zm-2.5.5v1.471h1V17.5h-1zm.364.99c-.675.191-1.28.547-1.767 1.022l.697.717a3.162 3.162 0 011.342-.776l-.272-.963zm-1.169.947l-1.275-.736-.5.866 1.275.736.5-.866zm-1.958-.553l-1 1.732.866.5 1-1.732-.866-.5zm-.817 2.415l1.275.736.5-.866-1.275-.736-.5.866zm1.04.18a4.17 4.17 0 00-.126 1.021h1c0-.268.033-.528.095-.776l-.97-.244zm-.126 1.021c0 .352.043.693.126 1.02l.97-.244a3.176 3.176 0 01-.096-.776h-1zm.36.465l-1.274.736.5.866 1.275-.736-.5-.866zm-1.457 1.42l1 1.731.866-.5-1-1.732-.866.5zm1.683 1.914l1.275-.736-.5-.866-1.275.736.5.866zm.677-.81c.488.474 1.092.83 1.767 1.02l.272-.962a3.161 3.161 0 01-1.342-.776l-.697.717zm1.403.54V27.5h1v-1.471h-1zm.5 1.971h2v-1h-2v1zm2.5-.5v-1.471h-1V27.5h1zm-.364-.99a4.163 4.163 0 001.768-1.022l-.697-.717a3.163 3.163 0 01-1.343.776l.272.963zm1.17-.947l1.274.736.5-.866-1.275-.736-.5.866zm1.957.553l1-1.732-.865-.5-1 1.732.866.5zm.818-2.415l-1.275-.736-.5.866 1.274.736.5-.866zm-1.04-.18c.082-.328.126-.67.126-1.021h-1c0 .268-.033.528-.096.776l.97.244zm.126-1.021a4.17 4.17 0 00-.126-1.02l-.97.244c.063.248.096.508.096.776h1zm-.36-.465l1.274-.736-.5-.866-1.275.736.5.866zm1.457-1.419l-1-1.732-.866.5 1 1.732.866-.5zm-1.683-1.915l-1.276.736.5.866 1.276-.736-.5-.866zm-.677.81a4.164 4.164 0 00-1.768-1.02l-.272.962c.512.144.971.415 1.343.776l.697-.717zm-1.404-.54V17.5h-1v1.471h1z" fill="#5879da"/><circle cx="22.721" cy="22.5" r=".75" fill="#5879da" stroke="#5879da"/></svg>