<svg width="32" height="32" viewBox="0 0 32 32" fill="none" xmlns="http://www.w3.org/2000/svg">
<path fill-rule="evenodd" clip-rule="evenodd" d="M15.9905 8.69678C15.9952 8.9743 15.9998 9.24363 15.9998 9.50001C15.9998 9.77615 15.7759 10 15.4998 10C15.2236 9.99999 14.9998 9.77613 14.9998 9.49999C14.9998 9.27985 14.9954 9.03706 14.9907 8.77791C14.9862 8.53159 14.9814 8.27046 14.98 8H12V11C12 11.2761 11.7761 11.5 11.5 11.5C11.2239 11.5 11 11.2761 11 11V7.5C11 7.22386 11.2239 7 11.5 7H14.9947C15.0226 6.30326 15.0952 5.58923 15.2644 4.93696C15.4653 4.16255 15.813 3.41965 16.424 2.87036C17.0442 2.31281 17.8851 2 18.98 2C20.0749 2 20.9158 2.31281 21.536 2.87037C22.1469 3.41966 22.4946 4.16256 22.6955 4.93697C22.8647 5.58924 22.9373 6.30326 22.9652 7H26.5C26.7761 7 27 7.22386 27 7.5V23.5C27 23.7761 26.7761 24 26.5 24H20.5C20.2239 24 20 23.7761 20 23.5C20 23.2239 20.2239 23 20.5 23H26V8H22.9799C22.9784 8.27048 22.9737 8.5316 22.9692 8.77794C22.9645 9.03693 22.96 9.27999 22.96 9.5C22.96 9.77614 22.7362 10 22.46 10C22.1839 10 21.96 9.77614 21.96 9.5C21.96 9.2437 21.9646 8.97448 21.9693 8.69704C21.9732 8.46951 21.9771 8.23599 21.9788 8H15.9811C15.9827 8.23598 15.9867 8.46924 15.9905 8.69678ZM21.9651 7H15.9948C16.0203 6.37582 16.085 5.75644 16.2324 5.18804C16.4044 4.52495 16.6781 3.9866 17.0926 3.61401C17.4978 3.24969 18.0862 3 18.98 3C19.8737 3 20.4622 3.24969 20.8674 3.61401C21.2818 3.98659 21.5555 4.52494 21.7275 5.18803C21.8749 5.75644 21.9396 6.37582 21.9651 7Z" fill="#5879DA"/>
<path fill-rule="evenodd" clip-rule="evenodd" d="M10.5 13C9.39543 13 8.5 13.8954 8.5 15H5C4.44771 15 4 15.4477 4 16V20.7924L4.66662 20.5568C4.77024 20.5201 4.88223 20.5 5 20.5C5.55228 20.5 6 20.9477 6 21.5C6 22.0523 5.55228 22.5 5 22.5C4.88223 22.5 4.77024 22.4799 4.66662 22.4432L4 22.2076V27C4 27.5523 4.44772 28 5 28H9.79239L9.55677 27.3334C9.52015 27.2298 9.5 27.1178 9.5 27C9.5 26.4477 9.94772 26 10.5 26C11.0523 26 11.5 26.4477 11.5 27C11.5 27.1178 11.4799 27.2298 11.4432 27.3334L11.2076 28H16C16.5523 28 17 27.5523 17 27V23.5C18.1046 23.5 19 22.6046 19 21.5C19 20.3954 18.1046 19.5 17 19.5V16C17 15.4477 16.5523 15 16 15H12.5C12.5 13.8954 11.6046 13 10.5 13ZM9.5 15C9.5 14.4477 9.94772 14 10.5 14C11.0523 14 11.5 14.4477 11.5 15C11.5 15.1178 11.4799 15.2298 11.4432 15.3334L11.2076 16H16V20.7924L16.6666 20.5568C16.7702 20.5201 16.8822 20.5 17 20.5C17.5523 20.5 18 20.9477 18 21.5C18 22.0523 17.5523 22.5 17 22.5C16.8822 22.5 16.7702 22.4799 16.6666 22.4432L16 22.2076V27H12.5C12.5 25.8954 11.6046 25 10.5 25C9.39543 25 8.5 25.8954 8.5 27H5V23.5C6.10457 23.5 7 22.6046 7 21.5C7 20.3954 6.10457 19.5 5 19.5V16H9.79239L9.55677 15.3334C9.52015 15.2298 9.5 15.1178 9.5 15Z" fill="#5879DA"/>
</svg>
