<svg width="24" height="24" viewBox="0 0 24 24" fill="none" xmlns="http://www.w3.org/2000/svg">
<g opacity="0.9">
<path opacity="0.9" fill-rule="evenodd" clip-rule="evenodd" d="M11.9875 5.91408C11.9908 6.11497 11.9941 6.31131 11.9941 6.50001C11.9941 6.77615 11.7703 7.00001 11.4941 7C11.218 6.99999 10.9941 6.77613 10.9941 6.49999C10.9941 6.34767 10.991 6.17799 10.9876 5.99562C10.982 5.69181 10.9758 5.35265 10.9823 5H8V9C8 9.27614 7.77614 9.5 7.5 9.5C7.22386 9.5 7 9.27614 7 9V4.5C7 4.22386 7.22386 4 7.5 4H11.044C11.0756 3.72815 11.1215 3.45998 11.1877 3.20482C11.3353 2.63577 11.5943 2.0759 12.0588 1.65831C12.5324 1.23245 13.1692 1 13.98 1C14.7908 1 15.4275 1.23245 15.9012 1.65831C16.3657 2.07591 16.6246 2.63578 16.7722 3.20482C16.8384 3.45998 16.8843 3.72816 16.9159 4H20.5C20.7761 4 21 4.22386 21 4.5V18.5C21 18.7761 20.7761 19 20.5 19H14.5C14.2239 19 14 18.7761 14 18.5C14 18.2239 14.2239 18 14.5 18H20V5H16.9776C16.9841 5.35266 16.9778 5.6917 16.9722 5.99551C16.9689 6.17793 16.9657 6.34765 16.9657 6.5C16.9657 6.77614 16.7419 7 16.4657 7C16.1896 7 15.9657 6.77614 15.9657 6.5C15.9657 6.3113 15.969 6.11497 15.9724 5.91409C15.9774 5.61607 15.9825 5.30802 15.9774 5H11.9825C11.9773 5.30798 11.9825 5.61609 11.9875 5.91408ZM15.9093 4H12.0506C12.0761 3.8134 12.1102 3.6312 12.1557 3.4559C12.2744 2.99816 12.4594 2.64285 12.7273 2.40196C12.9861 2.16934 13.3703 2 13.98 2C14.5896 2 14.9739 2.16934 15.2326 2.40196C15.5005 2.64284 15.6855 2.99815 15.8042 3.45589C15.8497 3.63119 15.8838 3.8134 15.9093 4Z" fill="#3955A7"/>
<path opacity="0.9" fill-rule="evenodd" clip-rule="evenodd" d="M6.78569 11C5.96597 11 5.29285 11.6276 5.22067 12.4286H3C2.44772 12.4286 2 12.8763 2 13.4286V16.9109L2.66663 16.6753C2.72557 16.6544 2.78948 16.6429 2.85716 16.6429C3.17276 16.6429 3.42859 16.8987 3.42859 17.2143C3.42859 17.5299 3.17276 17.7857 2.85716 17.7857C2.78948 17.7857 2.72557 17.7742 2.66663 17.7533L2 17.5177V21C2 21.5523 2.44771 22 3 22H6.48231L6.24671 21.3334C6.22588 21.2744 6.21433 21.2105 6.21433 21.1429C6.21433 20.8273 6.47017 20.5714 6.78576 20.5714C7.10135 20.5714 7.35719 20.8273 7.35719 21.1429C7.35719 21.2105 7.34563 21.2744 7.3248 21.3334L7.08921 22H10.5714C11.1237 22 11.5714 21.5523 11.5714 21V18.7793C12.3724 18.7071 13 18.034 13 17.2143C13 16.3946 12.3724 15.7214 11.5714 15.6493V13.4286C11.5714 12.8763 11.1237 12.4286 10.5714 12.4286H8.35071C8.27854 11.6276 7.60541 11 6.78569 11ZM6.21426 12.5714C6.21426 12.2558 6.4701 12 6.78569 12C7.10128 12 7.35712 12.2558 7.35712 12.5714C7.35712 12.6391 7.34557 12.703 7.32474 12.7619L7.08912 13.4286H10.5714V16.9109L11.2381 16.6753C11.297 16.6544 11.3609 16.6429 11.4286 16.6429C11.7442 16.6429 12 16.8987 12 17.2143C12 17.5299 11.7442 17.7857 11.4286 17.7857C11.3609 17.7857 11.297 17.7742 11.2381 17.7533L10.5714 17.5177V21H8.35078C8.27859 20.1991 7.60547 19.5714 6.78576 19.5714C5.96604 19.5714 5.29292 20.1991 5.22074 21H3V18.7793C3.80094 18.7072 4.42859 18.034 4.42859 17.2143C4.42859 16.3946 3.80094 15.7214 3 15.6493V13.4286H6.48226L6.24665 12.7619C6.22582 12.703 6.21426 12.6391 6.21426 12.5714Z" fill="#3955A7"/>
</g>
</svg>
