<svg width="32" height="32" viewBox="0 0 32 32" fill="none" xmlns="http://www.w3.org/2000/svg">
<path fill-rule="evenodd" clip-rule="evenodd" d="M16.3024 8.30558C16.3074 8.60833 16.3123 8.90214 16.3123 9.18183C16.3123 9.48307 16.0744 9.72727 15.781 9.72727C15.4876 9.72726 15.2498 9.48305 15.2498 9.18181C15.2498 8.94166 15.2451 8.67679 15.2401 8.39408C15.2353 8.12537 15.2302 7.8405 15.2287 7.54545H12.0625V10.8182C12.0625 11.1194 11.8246 11.3636 11.5312 11.3636C11.2379 11.3636 11 11.1194 11 10.8182V7C11 6.69876 11.2379 6.45455 11.5312 6.45455H15.2444C15.274 5.69447 15.3511 4.91552 15.5309 4.20396C15.7444 3.35915 16.1138 2.54871 16.763 1.94948C17.422 1.34125 18.3154 1 19.4787 1C20.6421 1 21.5355 1.34125 22.1945 1.94949C22.8436 2.54872 23.213 3.35916 23.4265 4.20397C23.6062 4.91553 23.6834 5.69447 23.713 6.45455H27.4688C27.7621 6.45455 28 6.69876 28 7V24.4545C28 24.7557 27.7621 25 27.4688 25H21.0938C20.8004 25 20.5625 24.7557 20.5625 24.4545C20.5625 24.1533 20.8004 23.9091 21.0938 23.9091H26.9375V7.54545H23.7286C23.7271 7.84052 23.7221 8.12538 23.7173 8.39412C23.7123 8.67665 23.7075 8.94181 23.7075 9.18182C23.7075 9.48306 23.4697 9.72727 23.1762 9.72727C22.8829 9.72727 22.645 9.48306 22.645 9.18182C22.645 8.90222 22.6499 8.60852 22.6549 8.30586C22.659 8.05765 22.6632 7.8029 22.665 7.54545H16.2924C16.2941 7.80289 16.2984 8.05735 16.3024 8.30558ZM22.6504 6.45455H16.307C16.3341 5.77362 16.4028 5.09793 16.5594 4.47786C16.7422 3.75449 17.033 3.1672 17.4734 2.76074C17.9039 2.3633 18.5291 2.09091 19.4787 2.09091C20.4283 2.09091 21.0536 2.3633 21.4841 2.76074C21.9244 3.16719 22.2152 3.75448 22.398 4.47785C22.5546 5.09793 22.6233 5.77362 22.6504 6.45455Z" fill="#5879DA"/>
<path fill-rule="evenodd" clip-rule="evenodd" d="M9.93333 13C8.75513 13 7.8 13.9551 7.8 15.1333H4.06667C3.47756 15.1333 3 15.6109 3 16.2V21.3119L3.71106 21.0606C3.82159 21.0214 3.94105 21 4.06667 21C4.65577 21 5.13333 21.4775 5.13333 22.0667C5.13333 22.6558 4.65577 23.1333 4.06667 23.1333C3.94105 23.1333 3.82159 23.1119 3.71106 23.0727L3 22.8214V27.9333C3 28.5225 3.47757 29 4.06667 29H9.17855L8.92722 28.289C8.88816 28.1785 8.86667 28.059 8.86667 27.9333C8.86667 27.3442 9.34423 26.8667 9.93333 26.8667C10.5225 26.8667 11 27.3442 11 27.9333C11 28.059 10.9786 28.1785 10.9394 28.289L10.6881 29H15.8C16.3891 29 16.8667 28.5225 16.8667 27.9333V24.2C18.0449 24.2 19 23.2449 19 22.0667C19 20.8884 18.0449 19.9333 16.8667 19.9333V16.2C16.8667 15.6109 16.3891 15.1333 15.8 15.1333H12.0667C12.0667 13.9551 11.1116 13 9.93333 13ZM8.86667 15.1333C8.86667 14.5442 9.34423 14.0667 9.93333 14.0667C10.5225 14.0667 11 14.5442 11 15.1333C11 15.259 10.9786 15.3785 10.9394 15.489L10.6881 16.2H15.8V21.3119L16.511 21.0606C16.6215 21.0214 16.741 21 16.8667 21C17.4558 21 17.9333 21.4775 17.9333 22.0667C17.9333 22.6558 17.4558 23.1333 16.8667 23.1333C16.741 23.1333 16.6215 23.1119 16.511 23.0727L15.8 22.8214V27.9333H12.0667C12.0667 26.7551 11.1116 25.8 9.93333 25.8C8.75513 25.8 7.8 26.7551 7.8 27.9333H4.06667V24.2C5.24487 24.2 6.2 23.2449 6.2 22.0667C6.2 20.8884 5.24487 19.9333 4.06667 19.9333V16.2H9.17855L8.92722 15.489C8.88816 15.3785 8.86667 15.259 8.86667 15.1333Z" fill="#5879DA"/>
</svg>
