<svg width="19" height="22" viewBox="0 0 19 22" fill="none" xmlns="http://www.w3.org/2000/svg">
<path fill-rule="evenodd" clip-rule="evenodd" d="M9.36669 5.47918C9.3708 5.70625 9.37482 5.92661 9.37482 6.13637C9.37482 6.3623 9.17891 6.54545 8.93732 6.54545C8.69565 6.54545 8.49982 6.36229 8.49982 6.13636C8.49982 5.95624 8.49597 5.75759 8.49186 5.54556C8.48792 5.34403 8.48372 5.13038 8.4825 4.90909H5.875V7.36364C5.875 7.58954 5.67909 7.77273 5.4375 7.77273C5.19591 7.77273 5 7.58954 5 7.36364V4.5C5 4.27407 5.19591 4.09091 5.4375 4.09091H8.49536C8.51978 3.52085 8.5833 2.93664 8.73135 2.40297C8.90714 1.76936 9.21137 1.16153 9.746 0.712113C10.2887 0.255935 11.0245 0 11.9825 0C12.9405 0 13.6763 0.255935 14.219 0.712121C14.7535 1.16154 15.0578 1.76937 15.2336 2.40298C15.3816 2.93665 15.4451 3.52085 15.4696 4.09091H18.5625C18.8041 4.09091 19 4.27407 19 4.5V17.5909C19 17.8168 18.8041 18 18.5625 18H13.3125C13.0709 18 12.875 17.8168 12.875 17.5909C12.875 17.365 13.0709 17.1818 13.3125 17.1818H18.125V4.90909H15.4824C15.4811 5.13039 15.477 5.34404 15.4731 5.54559C15.4689 5.75749 15.465 5.95636 15.465 6.13636C15.465 6.3623 15.2692 6.54545 15.0275 6.54545C14.7859 6.54545 14.59 6.3623 14.59 6.13636C14.59 5.92666 14.594 5.70639 14.5981 5.4794C14.6015 5.29324 14.605 5.10217 14.6064 4.90909H9.35846C9.35986 5.10217 9.36336 5.29301 9.36669 5.47918ZM14.5945 4.09091H9.37045C9.39276 3.58022 9.44938 3.07345 9.57835 2.6084C9.72885 2.06587 9.96834 1.6254 10.331 1.32055C10.6856 1.02247 11.2004 0.818182 11.9825 0.818182C12.7645 0.818182 13.2794 1.02247 13.634 1.32055C13.9966 1.62539 14.2361 2.06586 14.3866 2.60839C14.5155 3.07345 14.5721 3.58022 14.5945 4.09091Z" fill="#5879DA"/>
<path fill-rule="evenodd" clip-rule="evenodd" d="M5.63333 9C4.67604 9 3.9 9.77601 3.9 10.7333H0.866667C0.388015 10.7333 0 11.1213 0 11.6V15.7534L0.577737 15.5492C0.667541 15.5174 0.764599 15.5 0.866667 15.5C1.34531 15.5 1.73333 15.888 1.73333 16.3667C1.73333 16.8453 1.34531 17.2333 0.866667 17.2333C0.764599 17.2333 0.667541 17.2159 0.577737 17.1841L0 16.9799V21.1333C0 21.612 0.388024 22 0.866667 22H5.02007L4.81587 21.4223C4.78413 21.3325 4.76667 21.2354 4.76667 21.1333C4.76667 20.6547 5.15469 20.2667 5.63333 20.2667C6.11199 20.2667 6.5 20.6547 6.5 21.1333C6.5 21.2354 6.48258 21.3325 6.45077 21.4223L6.24659 22H10.4C10.8787 22 11.2667 21.612 11.2667 21.1333V18.1C12.224 18.1 13 17.324 13 16.3667C13 15.4093 12.224 14.6333 11.2667 14.6333V11.6C11.2667 11.1213 10.8787 10.7333 10.4 10.7333H7.36667C7.36667 9.77601 6.59065 9 5.63333 9ZM4.76667 10.7333C4.76667 10.2547 5.15469 9.86667 5.63333 9.86667C6.11199 9.86667 6.5 10.2547 6.5 10.7333C6.5 10.8354 6.48258 10.9325 6.45077 11.0223L6.24659 11.6H10.4V15.7534L10.9777 15.5492C11.0675 15.5174 11.1646 15.5 11.2667 15.5C11.7453 15.5 12.1333 15.888 12.1333 16.3667C12.1333 16.8453 11.7453 17.2333 11.2667 17.2333C11.1646 17.2333 11.0675 17.2159 10.9777 17.1841L10.4 16.9799V21.1333H7.36667C7.36667 20.176 6.59065 19.4 5.63333 19.4C4.67604 19.4 3.9 20.176 3.9 21.1333H0.866667V18.1C1.82396 18.1 2.6 17.324 2.6 16.3667C2.6 15.4093 1.82396 14.6333 0.866667 14.6333V11.6H5.02007L4.81587 11.0223C4.78413 10.9325 4.76667 10.8354 4.76667 10.7333Z" fill="#5879DA"/>
</svg>
