<svg width="21" height="24" viewBox="0 0 21 24" fill="none" xmlns="http://www.w3.org/2000/svg">
<path fill-rule="evenodd" clip-rule="evenodd" d="M10.6786 6.08798C10.683 6.34027 10.6873 6.58512 10.6873 6.81819C10.6873 7.06923 10.4774 7.27273 10.2186 7.27273C9.95962 7.27272 9.74981 7.06921 9.74981 6.81817C9.74981 6.61805 9.74569 6.39733 9.74128 6.16174C9.73706 5.93781 9.73256 5.70042 9.73125 5.45455H6.9375V8.18182C6.9375 8.43282 6.72759 8.63636 6.46875 8.63636C6.20991 8.63636 6 8.43282 6 8.18182V5C6 4.74896 6.20991 4.54545 6.46875 4.54545H9.74503C9.77119 3.91205 9.83925 3.26294 9.99787 2.66996C10.1862 1.96595 10.5122 1.29059 11.085 0.791236C11.6664 0.284373 12.4548 0 13.4812 0C14.5077 0 15.2961 0.284373 15.8775 0.791245C16.4502 1.2906 16.7762 1.96596 16.9645 2.66997C17.1232 3.26295 17.1912 3.91205 17.2174 4.54545H20.5312C20.7901 4.54545 21 4.74896 21 5V19.5455C21 19.7965 20.7901 20 20.5312 20H14.9062C14.6474 20 14.4375 19.7965 14.4375 19.5455C14.4375 19.2945 14.6474 19.0909 14.9062 19.0909H20.0625V5.45455H17.2312C17.2298 5.70044 17.2253 5.93782 17.2211 6.16176C17.2167 6.39721 17.2125 6.61817 17.2125 6.81818C17.2125 7.06922 17.0027 7.27273 16.7437 7.27273C16.4849 7.27273 16.275 7.06922 16.275 6.81818C16.275 6.58518 16.2793 6.34044 16.2837 6.08822C16.2874 5.88137 16.291 5.66908 16.2926 5.45455H10.6698C10.6713 5.66907 10.675 5.88113 10.6786 6.08798ZM16.2798 4.54545H10.6826C10.7065 3.97802 10.7672 3.41495 10.9054 2.89822C11.0666 2.29541 11.3232 1.806 11.7118 1.46728C12.0917 1.13608 12.6433 0.909091 13.4812 0.909091C14.3191 0.909091 14.8708 1.13608 15.2507 1.46728C15.6392 1.80599 15.8958 2.2954 16.057 2.89821C16.1952 3.41495 16.2559 3.97802 16.2798 4.54545Z" fill="#5879DA"/>
<path fill-rule="evenodd" clip-rule="evenodd" d="M6.06667 10C5.03573 10 4.2 10.8357 4.2 11.8667H0.933333C0.417863 11.8667 0 12.2845 0 12.8V17.2729L0.622178 17.053C0.71889 17.0188 0.823415 17 0.933333 17C1.44879 17 1.86667 17.4179 1.86667 17.9333C1.86667 18.4488 1.44879 18.8667 0.933333 18.8667C0.823415 18.8667 0.71889 18.8479 0.622178 18.8137L0 18.5938V23.0667C0 23.5821 0.417872 24 0.933333 24H5.40623L5.18632 23.3778C5.15214 23.2811 5.13333 23.1766 5.13333 23.0667C5.13333 22.5512 5.55121 22.1333 6.06667 22.1333C6.58215 22.1333 7 22.5512 7 23.0667C7 23.1766 6.98124 23.2811 6.94699 23.3778L6.72709 24H11.2C11.7155 24 12.1333 23.5821 12.1333 23.0667V19.8C13.1643 19.8 14 18.9643 14 17.9333C14 16.9024 13.1643 16.0667 12.1333 16.0667V12.8C12.1333 12.2845 11.7155 11.8667 11.2 11.8667H7.93333C7.93333 10.8357 7.09763 10 6.06667 10ZM5.13333 11.8667C5.13333 11.3512 5.55121 10.9333 6.06667 10.9333C6.58215 10.9333 7 11.3512 7 11.8667C7 11.9766 6.98124 12.0811 6.94699 12.1778L6.72709 12.8H11.2V17.2729L11.8222 17.053C11.9189 17.0188 12.0234 17 12.1333 17C12.6488 17 13.0667 17.4179 13.0667 17.9333C13.0667 18.4488 12.6488 18.8667 12.1333 18.8667C12.0234 18.8667 11.9189 18.8479 11.8222 18.8137L11.2 18.5938V23.0667H7.93333C7.93333 22.0357 7.09763 21.2 6.06667 21.2C5.03573 21.2 4.2 22.0357 4.2 23.0667H0.933333V19.8C1.96427 19.8 2.8 18.9643 2.8 17.9333C2.8 16.9024 1.96427 16.0667 0.933333 16.0667V12.8H5.40623L5.18632 12.1778C5.15214 12.0811 5.13333 11.9766 5.13333 11.8667Z" fill="#5879DA"/>
</svg>
