<svg width="24" height="24" viewBox="0 0 24 24" fill="none" xmlns="http://www.w3.org/2000/svg">
<g opacity="0.9">
<path opacity="0.9" fill-rule="evenodd" clip-rule="evenodd" d="M7.5 8C6.67157 8 6 8.67157 6 9.5C6 10.3284 6.67157 11 7.5 11H16.5C17.3284 11 18 10.3284 18 9.5C18 8.67157 17.3284 8 16.5 8H7.5ZM16.5 9H7.5C7.22386 9 7 9.22386 7 9.5C7 9.77614 7.22386 10 7.5 10H16.5C16.7761 10 17 9.77614 17 9.5C17 9.22386 16.7761 9 16.5 9Z" fill="#3955A7"/>
<path opacity="0.9" fill-rule="evenodd" clip-rule="evenodd" d="M6 14.5C6 13.6716 6.67157 13 7.5 13H13.5C14.3284 13 15 13.6716 15 14.5C15 15.3284 14.3284 16 13.5 16H7.5C6.67157 16 6 15.3284 6 14.5ZM7.5 14H13.5C13.7761 14 14 14.2239 14 14.5C14 14.7761 13.7761 15 13.5 15H7.5C7.22386 15 7 14.7761 7 14.5C7 14.2239 7.22386 14 7.5 14Z" fill="#3955A7"/>
<path opacity="0.9" fill-rule="evenodd" clip-rule="evenodd" d="M5 5C3.34315 5 2 6.34315 2 8V21.0956C2 21.9014 2.90435 22.3763 3.56773 21.9188L7.45795 19.236C7.62489 19.1208 7.82288 19.0592 8.02567 19.0592H19C20.6569 19.0592 22 17.716 22 16.0592V8C22 6.34315 20.6569 5 19 5H5ZM19 6H5C3.89543 6 3 6.89543 3 8V21.0956L6.89022 18.4127C7.2241 18.1825 7.6201 18.0592 8.02567 18.0592H19C20.1046 18.0592 21 17.1637 21 16.0592V8C21 6.89543 20.1046 6 19 6Z" fill="#3955A7"/>
</g>
</svg>
