<svg xmlns="http://www.w3.org/2000/svg" width="55" height="55" viewBox="0 0 55 55">
    <g fill="none" fill-rule="evenodd">
        <circle cx="27.5" cy="27.5" r="26.5" fill="#FFF"/>
        <path fill="#F6720D" d="M27.5 55C12.312 55 0 42.688 0 27.5S12.312 0 27.5 0 55 12.312 55 27.5 42.688 55 27.5 55zM12.595 29.473c.022.169.108.322.241.426l19.862 15.675c.825.65 2.006.495 2.643-.348l11.13-14.719a1.953 1.953 0 0 0-.338-2.7L26.268 12.133a.616.616 0 0 0-.484-.123l-12.667 2.065c-1.344.211-2.273 1.483-2.095 2.858l1.573 12.54z"/>
        <circle cx="17.5" cy="19.5" r="2.5" fill="#F6720D"/>
    </g>
</svg>
