<svg height="55" viewBox="0 0 55 55" width="55" xmlns="http://www.w3.org/2000/svg"><g fill="none" fill-rule="evenodd"><circle cx="27.5" cy="27.5" fill="#fff" r="26.5"/><g fill="#f6720d"><path d="m27.5 55c-15.188 0-27.5-12.312-27.5-27.5s12.312-27.5 27.5-27.5 27.5 12.312 27.5 27.5-12.312 27.5-27.5 27.5zm-14.905-25.527c.022.169.108.322.241.426l19.862 15.675c.825.65 2.006.495 2.643-.348l11.13-14.719a1.953 1.953 0 0 0 -.338-2.7l-19.865-15.674a.616.616 0 0 0 -.484-.123l-12.667 2.065c-1.344.211-2.273 1.483-2.095 2.858z"/><circle cx="17.5" cy="19.5" r="2.5"/></g></g></svg>