<svg height="35" viewBox="0 0 42 35" width="42" xmlns="http://www.w3.org/2000/svg"><g fill="none"><g fill="#5586ff"><path d="m40.369 25.69c.983-1.069 1.41-2.994 1.574-3.976a3.85 3.85 0 0 0 0-1.224c-.163-.978-.591-2.907-1.574-3.975-1.297-.983-4.253-.49-4.253-.49v10.155s2.944.497 4.253-.49z"/><path d="m41.507 23.496c-1.11.538-2.545.66-2.447-.323.453-2.687-.946-5.86-1.668-7.266-.426.016-.85.055-1.272.118v10.155s2.94.497 4.249-.49a5.974 5.974 0 0 0 1.138-2.193z" opacity=".5"/><path d="m1.631 25.69c-.987-1.07-1.419-2.995-1.581-3.977a3.85 3.85 0 0 1 0-1.224c.163-.978.595-2.907 1.574-3.975 1.297-.983 4.253-.49 4.253-.49v10.156s-2.956.497-4.245-.49z"/><path d="m.473 23.496c1.113.538 2.549.66 2.467-.323-.457-2.687.942-5.86 1.664-7.27.426.016.85.055 1.272.118v10.159s-2.956.497-4.245-.49a6.035 6.035 0 0 1 -1.158-2.193z" opacity=".5"/></g><path d="m40.145 20.943c0 7.666-8.563 13.884-19.165 13.884s-19.165-6.218-19.165-13.864c0-7.645 8.563-13.863 19.165-13.863s19.165 6.178 19.165 13.844z" fill="#fff"/><path d="m36.801 13.106a10.716 10.716 0 0 1 1.631 5.594c0 7.67-8.563 13.885-19.165 13.885-6.565 0-12.335-2.41-15.805-6.043 2.968 4.893 9.697 8.285 17.534 8.285 10.577 0 19.165-6.218 19.165-13.864-.016-2.927-1.252-5.627-3.36-7.857z" fill="#d0d2d3" opacity=".5"/><path d="m26.26 9.786c0 1.081-2.357 1.958-5.268 1.958-2.912 0-5.273-.881-5.273-1.958 0-1.076 2.361-1.957 5.273-1.957 2.911 0 5.268.873 5.268 1.957z" fill="#231f20"/><rect fill="#354983" height="9.37" rx="4.685" width="27.161" x="7.409" y="16.258"/><path d="m15.72 20.943a2.659 2.659 0 1 1 -5.318 0 2.659 2.659 0 0 1 5.317 0zm15.857 0a2.659 2.659 0 1 1 -5.317 0 2.659 2.659 0 0 1 5.317 0z" fill="#bce6f7"/><path d="m16.902 25.628h3.698l2.688-9.37h-3.699zm4.424 0h.857l2.687-9.37h-.857z" fill="#fff" opacity=".5"/><path d="m22.806 2.186a1.782 1.782 0 1 0 -2.475 1.63v5.644c0 .225.183.408.408.408h.575a.408.408 0 0 0 .408-.408v-5.635a1.778 1.778 0 0 0 1.084-1.64z" fill="#fff"/></g></svg>