<?xml version="1.0" encoding="utf-8"?>
<!-- Generator: Adobe Illustrator 23.0.3, SVG Export Plug-In . SVG Version: 6.00 Build 0)  -->
<svg version="1.1" id="Puzzle" xmlns="http://www.w3.org/2000/svg" xmlns:xlink="http://www.w3.org/1999/xlink" x="0px" y="0px"
	 viewBox="0 0 50 50" style="enable-background:new 0 0 50 50;" xml:space="preserve">
<style type="text/css">
	.st0{fill-rule:evenodd;clip-rule:evenodd;fill:#FFFFFF;}
	.st1{fill-rule:evenodd;clip-rule:evenodd;fill:#162036;}
	.st2{fill-rule:evenodd;clip-rule:evenodd;fill:#FF720B;}
</style>
<g>
	<path class="st0" d="M15.4,7.7c-1.1,0-2,0.9-2,2c0,0.6,0.2,1,0.6,1.4h-2.9v6.1c-0.4-0.3-0.8-0.5-1.3-0.5c-1.1,0-2,0.9-2,2
		c0,1.1,0.9,2,2,2c0.5,0,0.9-0.2,1.3-0.5v4.8v6.1c-0.4-0.3-0.8-0.5-1.3-0.5c-1.1,0-2,0.9-2,2c0,1.1,0.9,2,2,2c0.5,0,0.9-0.2,1.3-0.5
		v4.7h4.1c-0.3,0.4-0.5,0.8-0.5,1.3c0,1.1,0.9,2,2,2c1.1,0,2-0.9,2-2c0-0.5-0.2-1-0.5-1.3h10.4c-0.4,0.4-0.6,0.8-0.6,1.3
		c0,1.1,0.9,2,2,2c1.1,0,2-0.9,2-2c0-0.5-0.2-1-0.6-1.3h7.5v-6.7c0.4,0.3,0.9,0.6,1.4,0.6c1.1,0,2-0.9,2-2c0-1.1-0.9-2-2-2
		c-0.5,0-1,0.2-1.4,0.6v-4.2v-5.6c0.4,0.4,0.9,0.6,1.4,0.6c1.1,0,2-0.9,2-2c0-1.1-0.9-2-2-2c-0.5,0-1,0.2-1.4,0.6v-5.4h-4.9
		c0.4-0.4,0.6-0.9,0.6-1.4c0-1.1-0.9-2-2-2c-1.1,0-2,0.9-2,2c0,0.5,0.2,1,0.6,1.4H16.8c0.4-0.4,0.6-0.8,0.6-1.4
		C17.4,8.6,16.5,7.7,15.4,7.7z"/>
	<path class="st0" d="M15.4,7.7c-1.1,0-2,0.9-2,2c0,0.6,0.2,1,0.6,1.4h-2.9v6.1c-0.4-0.3-0.8-0.5-1.3-0.5c-1.1,0-2,0.9-2,2
		c0,1.1,0.9,2,2,2c0.5,0,0.9-0.2,1.3-0.5v4.8L25,11.1h-8.2c0.4-0.4,0.6-0.8,0.6-1.4C17.4,8.6,16.5,7.7,15.4,7.7z"/>
	<path class="st1" d="M15.4,7.2c-1.3,0-2.5,1.1-2.5,2.5c0,0.3,0.1,0.6,0.2,0.9h-2c-0.3,0-0.5,0.2-0.5,0.5v5.3
		c-0.3-0.1-0.6-0.1-0.8-0.1c-1.3,0-2.5,1.1-2.5,2.5c0,1.3,1.1,2.5,2.5,2.5c0.3,0,0.6-0.1,0.8-0.2v3.9c0,0.3,0.2,0.5,0.5,0.5
		c0.3,0,0.5-0.2,0.5-0.5v-4.8c0-0.2-0.1-0.4-0.3-0.5c-0.1,0-0.1,0-0.2,0c-0.1,0-0.2,0-0.3,0.1c-0.2,0.2-0.5,0.4-1,0.4
		c-0.8,0-1.5-0.7-1.5-1.5c0-0.9,0.7-1.6,1.5-1.6c0.5,0,0.8,0.2,1,0.4c0.1,0.1,0.2,0.1,0.3,0.1c0.1,0,0.1,0,0.2,0
		c0.2-0.1,0.3-0.3,0.3-0.5v-5.6H14c0.2,0,0.4-0.1,0.5-0.3c0.1-0.2,0-0.4-0.1-0.5c-0.3-0.3-0.5-0.7-0.5-1.1c0-0.8,0.7-1.5,1.5-1.5
		c0.8,0,1.6,0.7,1.6,1.5c0,0.4-0.2,0.8-0.5,1.1c-0.2,0.1-0.2,0.3-0.1,0.5c0.1,0.2,0.3,0.3,0.5,0.3H25c0.3,0,0.5-0.2,0.5-0.5
		c0-0.3-0.3-0.5-0.5-0.5h-7.3c0.1-0.3,0.2-0.6,0.2-0.9C17.9,8.3,16.8,7.2,15.4,7.2z"/>
	<path class="st1" d="M38.8,24.5c-0.3,0-0.5,0.2-0.5,0.5v4.3c0,0.2,0.1,0.4,0.3,0.5c0.1,0,0.1,0,0.2,0c0.1,0,0.2,0,0.3-0.1
		c0.3-0.3,0.7-0.4,1-0.4c0.8,0,1.5,0.7,1.5,1.5c0,0.8-0.7,1.5-1.5,1.5c-0.4,0-0.8-0.2-1-0.4c-0.1-0.1-0.2-0.1-0.3-0.1
		c-0.1,0-0.1,0-0.2,0c-0.2,0.1-0.3,0.3-0.3,0.5v6.3h-7c-0.2,0-0.4,0.1-0.4,0.3c-0.1,0.2-0.1,0.4,0.1,0.5c0.3,0.3,0.4,0.6,0.4,1
		c0,0.8-0.7,1.5-1.5,1.5c-0.8,0-1.5-0.7-1.5-1.5c0-0.4,0.1-0.8,0.4-1c0.2-0.2,0.2-0.4,0.1-0.5c-0.1-0.2-0.3-0.3-0.4-0.3h-3.6
		c-0.3,0-0.5,0.2-0.5,0.5c0,0.3,0.2,0.5,0.5,0.5h2.7c-0.1,0.3-0.2,0.6-0.2,0.8c0,1.4,1.1,2.5,2.5,2.5c1.3,0,2.5-1.1,2.5-2.5
		c0-0.3-0.1-0.6-0.2-0.8h6.6c0.3,0,0.5-0.2,0.5-0.5V33c0.3,0.1,0.6,0.2,0.9,0.2c1.4,0,2.5-1.1,2.5-2.5c0-1.4-1.1-2.5-2.5-2.5
		c-0.3,0-0.6,0.1-0.9,0.2v-3.4C39.3,24.7,39.1,24.5,38.8,24.5z"/>
	<path class="st1" d="M11.1,24.5c-0.3,0-0.5,0.2-0.5,0.5v5.4c-0.3-0.1-0.6-0.1-0.8-0.1c-1.3,0-2.5,1.1-2.5,2.5
		c0,1.3,1.1,2.5,2.5,2.5c0.3,0,0.6-0.1,0.8-0.2v3.8c0,0.3,0.2,0.5,0.5,0.5h3.2c-0.1,0.3-0.2,0.6-0.2,0.8c0,1.4,1.1,2.5,2.5,2.5
		c1.4,0,2.5-1.1,2.5-2.5c0-0.3-0.1-0.6-0.2-0.8H25c0.3,0,0.5-0.2,0.5-0.5c0-0.3-0.3-0.5-0.5-0.5h-6.9c-0.2,0-0.4,0.1-0.5,0.3
		c-0.1,0.2-0.1,0.4,0.1,0.5c0.3,0.3,0.4,0.6,0.4,1c0,0.9-0.7,1.6-1.6,1.6c-0.8,0-1.5-0.7-1.5-1.6c0-0.4,0.2-0.7,0.4-1
		c0.1-0.2,0.2-0.4,0.1-0.5c-0.1-0.2-0.3-0.3-0.5-0.3h-3.6v-4.2c0-0.2-0.1-0.4-0.3-0.5c-0.1,0-0.1,0-0.2,0c-0.1,0-0.2,0-0.3,0.1
		c-0.2,0.2-0.5,0.4-1,0.4c-0.8,0-1.5-0.7-1.5-1.5c0-0.9,0.7-1.6,1.5-1.6c0.5,0,0.8,0.2,1,0.4c0.1,0.1,0.2,0.1,0.3,0.1
		c0.1,0,0.1,0,0.2,0c0.2-0.1,0.3-0.3,0.3-0.5v-6.2C11.5,24.7,11.3,24.5,11.1,24.5z"/>
	<path class="st1" d="M24.9,24.5c-0.3,0-0.5,0.2-0.5,0.5v7.4c-0.2-0.1-0.4-0.1-0.7-0.1c-1.3,0-2.5,1.1-2.5,2.5
		c0,1.4,1.1,2.5,2.5,2.5c0.3,0,0.5,0,0.7-0.1v1.7c0,0.3,0.2,0.5,0.5,0.5c0.3,0,0.5-0.2,0.5-0.5v-2.5c0-0.2-0.1-0.3-0.3-0.4
		c-0.1,0-0.1,0-0.2,0c-0.1,0-0.2,0-0.3,0.1c-0.3,0.2-0.6,0.3-0.9,0.3c-0.8,0-1.5-0.7-1.5-1.6s0.7-1.5,1.5-1.5c0.3,0,0.6,0.1,0.9,0.3
		c0.1,0.1,0.2,0.1,0.2,0.1s0.2,0,0.2-0.1c0.2-0.1,0.3-0.2,0.3-0.4v-8.1C25.4,24.7,25.2,24.5,24.9,24.5z"/>
	<path class="st1" d="M20.3,21.3c-1.3,0-2.5,1.1-2.5,2.5c0,0.3,0.1,0.5,0.1,0.7h-6.9c-0.3,0-0.5,0.2-0.5,0.5c0,0.3,0.2,0.5,0.5,0.5
		h7.7c0.2,0,0.4-0.1,0.4-0.3c0.1-0.2,0.1-0.4-0.1-0.5c-0.2-0.3-0.3-0.6-0.3-0.9c0-0.8,0.7-1.5,1.5-1.5c0.8,0,1.5,0.7,1.5,1.5
		c0,0.4-0.1,0.6-0.3,0.9c-0.1,0.1-0.2,0.3-0.1,0.5c0.1,0.2,0.3,0.3,0.4,0.3H25c0.3,0,0.5-0.2,0.5-0.5c0-0.3-0.3-0.5-0.5-0.5h-2.3
		c0.1-0.3,0.1-0.5,0.1-0.7C22.8,22.4,21.7,21.3,20.3,21.3z"/>
	<path class="st0" d="M32.5,7.7c-1.1,0-2,0.9-2,2c0,0.6,0.2,1,0.6,1.4h-5.7l13.5,13.9v-5.6c0.4,0.4,0.9,0.6,1.4,0.6c1.1,0,2-0.9,2-2
		c0-1.1-0.9-2-2-2c-0.5,0-1,0.2-1.4,0.6v-5.4h-4.9c0.4-0.4,0.6-0.8,0.6-1.4C34.5,8.6,33.6,7.7,32.5,7.7z"/>
	<path class="st2" d="M32.5,7.2c-1.3,0-2.5,1.1-2.5,2.5c0,0.3,0.1,0.6,0.2,0.9h-4.8c-0.3,0-0.5,0.2-0.5,0.5c0,0.3,0.3,0.5,0.5,0.5
		h5.7c0.2,0,0.4-0.2,0.5-0.3c0.1-0.2,0-0.4-0.2-0.5c-0.3-0.3-0.4-0.7-0.4-1.1c0-0.8,0.7-1.5,1.5-1.5c0.8,0,1.5,0.7,1.5,1.5
		c0,0.4-0.2,0.8-0.4,1.1c-0.2,0.1-0.2,0.3-0.1,0.5c0.1,0.2,0.3,0.3,0.5,0.3h4.5v4.9c0,0.2,0.1,0.4,0.3,0.4c0.1,0,0.1,0.1,0.2,0.1
		c0.1,0,0.2,0,0.3-0.1c0.3-0.3,0.7-0.5,1-0.5c0.8,0,1.5,0.7,1.5,1.5c0,0.9-0.7,1.6-1.5,1.6c-0.4,0-0.8-0.2-1-0.5
		c-0.1-0.1-0.3-0.1-0.4-0.1c0,0-0.1,0-0.1,0c-0.2,0.1-0.3,0.3-0.3,0.5v5.6c0,0.3,0.2,0.5,0.5,0.5c0.3,0,0.5-0.2,0.5-0.5v-4.8
		c0.3,0.1,0.6,0.2,0.9,0.2c1.4,0,2.5-1.1,2.5-2.5c0-1.3-1.1-2.5-2.5-2.5c-0.3,0-0.6,0.1-0.9,0.2v-4.6c0-0.3-0.3-0.5-0.5-0.5h-4
		c0.1-0.3,0.2-0.6,0.2-0.9C34.9,8.3,33.9,7.2,32.5,7.2z"/>
	<path class="st0" d="M26.2,16.8c-0.5,0-0.9,0.2-1.2,0.4v3.2c0.4,0.3,0.8,0.4,1.2,0.4c1.1,0,2-0.9,2-2
		C28.3,17.6,27.4,16.8,26.2,16.8z"/>
	<path class="st2" d="M25,10.7c-0.3,0-0.5,0.2-0.5,0.5v6.1c0,0.2,0.1,0.4,0.3,0.5c0.1,0,0.1,0.1,0.2,0.1c0.1,0,0.2,0,0.3-0.1
		c0.3-0.2,0.6-0.4,0.9-0.4c0.8,0,1.6,0.7,1.6,1.6c0,0.8-0.7,1.5-1.6,1.5c-0.3,0-0.7-0.1-0.9-0.4c-0.1-0.1-0.2-0.1-0.3-0.1
		c-0.1,0-0.1,0-0.2,0c-0.2,0.1-0.3,0.3-0.3,0.5v4.7c0,0.3,0.2,0.5,0.5,0.5c0.3,0,0.5-0.2,0.5-0.5v-3.9c0.2,0.1,0.5,0.2,0.7,0.2
		c1.4,0,2.5-1.1,2.5-2.5c0-1.4-1.1-2.5-2.5-2.5c-0.3,0-0.5,0-0.7,0.1v-5.3C25.5,10.9,25.3,10.7,25,10.7z"/>
	<path class="st0" d="M28.1,25.1c-0.3,0.4-0.5,0.8-0.5,1.3c0,1.1,0.9,2,2,2s2-0.9,2-2c0-0.5-0.2-0.9-0.5-1.3H28.1z"/>
	<path class="st2" d="M25.1,24.6c-0.3,0-0.5,0.2-0.5,0.5c0,0.3,0.2,0.5,0.5,0.5h2.1c-0.1,0.3-0.2,0.5-0.2,0.8c0,1.4,1.1,2.5,2.5,2.5
		c1.3,0,2.5-1.1,2.5-2.5c0-0.3-0.1-0.5-0.2-0.8h6.9c0.3,0,0.5-0.2,0.5-0.5c0-0.3-0.3-0.5-0.5-0.5h-7.8c-0.2,0-0.4,0.1-0.4,0.3
		c-0.1,0.2-0.1,0.4,0.1,0.5c0.2,0.2,0.4,0.5,0.4,0.9c0,0.9-0.7,1.6-1.5,1.6c-0.8,0-1.5-0.7-1.5-1.6c0-0.4,0.2-0.8,0.4-0.9
		c0.1-0.2,0.2-0.4,0.1-0.5c-0.1-0.2-0.3-0.3-0.4-0.3H25.1z"/>
</g>
</svg>
