<svg enable-background="new 0 0 50 50" viewBox="0 0 50 50" xmlns="http://www.w3.org/2000/svg"><g clip-rule="evenodd" fill-rule="evenodd"><path d="m15.4 7.7c-1.1 0-2 .9-2 2 0 .6.2 1 .6 1.4h-2.9v6.1c-.4-.3-.8-.5-1.3-.5-1.1 0-2 .9-2 2s.9 2 2 2c.5 0 .9-.2 1.3-.5v4.8 6.1c-.4-.3-.8-.5-1.3-.5-1.1 0-2 .9-2 2s.9 2 2 2c.5 0 .9-.2 1.3-.5v4.7h4.1c-.3.4-.5.8-.5 1.3 0 1.1.9 2 2 2s2-.9 2-2c0-.5-.2-1-.5-1.3h10.4c-.4.4-.6.8-.6 1.3 0 1.1.9 2 2 2s2-.9 2-2c0-.5-.2-1-.6-1.3h7.5v-6.7c.4.3.9.6 1.4.6 1.1 0 2-.9 2-2s-.9-2-2-2c-.5 0-1 .2-1.4.6v-4.2-5.6c.4.4.9.6 1.4.6 1.1 0 2-.9 2-2s-.9-2-2-2c-.5 0-1 .2-1.4.6v-5.4h-4.9c.4-.4.6-.9.6-1.4 0-1.1-.9-2-2-2s-2 .9-2 2c0 .5.2 1 .6 1.4h-14.4c.4-.4.6-.8.6-1.4 0-1.3-.9-2.2-2-2.2z" fill="#fff"/><path d="m15.4 7.7c-1.1 0-2 .9-2 2 0 .6.2 1 .6 1.4h-2.9v6.1c-.4-.3-.8-.5-1.3-.5-1.1 0-2 .9-2 2s.9 2 2 2c.5 0 .9-.2 1.3-.5v4.8l13.9-13.9h-8.2c.4-.4.6-.8.6-1.4 0-1.1-.9-2-2-2z" fill="#fff"/><g fill="#162036"><path d="m15.4 7.2c-1.3 0-2.5 1.1-2.5 2.5 0 .3.1.6.2.9h-2c-.3 0-.5.2-.5.5v5.3c-.3-.1-.6-.1-.8-.1-1.3 0-2.5 1.1-2.5 2.5 0 1.3 1.1 2.5 2.5 2.5.3 0 .6-.1.8-.2v3.9c0 .3.2.5.5.5s.5-.2.5-.5v-4.8c0-.2-.1-.4-.3-.5-.1 0-.1 0-.2 0s-.2 0-.3.1c-.2.2-.5.4-1 .4-.8 0-1.5-.7-1.5-1.5 0-.9.7-1.6 1.5-1.6.5 0 .8.2 1 .4.1.1.2.1.3.1h.2c.2-.1.3-.3.3-.5v-5.6h2.4c.2 0 .4-.1.5-.3s0-.4-.1-.5c-.3-.3-.5-.7-.5-1.1 0-.8.7-1.5 1.5-1.5s1.6.7 1.6 1.5c0 .4-.2.8-.5 1.1-.2.1-.2.3-.1.5s.3.3.5.3h8.1c.3 0 .5-.2.5-.5s-.3-.5-.5-.5h-7.3c.1-.3.2-.6.2-.9 0-1.3-1.1-2.4-2.5-2.4z"/><path d="m38.8 24.5c-.3 0-.5.2-.5.5v4.3c0 .2.1.4.3.5h.2c.1 0 .2 0 .3-.1.3-.3.7-.4 1-.4.8 0 1.5.7 1.5 1.5s-.7 1.5-1.5 1.5c-.4 0-.8-.2-1-.4-.1-.1-.2-.1-.3-.1s-.1 0-.2 0c-.2.1-.3.3-.3.5v6.3h-7c-.2 0-.4.1-.4.3-.1.2-.1.4.1.5.3.3.4.6.4 1 0 .8-.7 1.5-1.5 1.5s-1.5-.7-1.5-1.5c0-.4.1-.8.4-1 .2-.2.2-.4.1-.5-.1-.2-.3-.3-.4-.3h-3.6c-.3 0-.5.2-.5.5s.2.5.5.5h2.7c-.1.3-.2.6-.2.8 0 1.4 1.1 2.5 2.5 2.5 1.3 0 2.5-1.1 2.5-2.5 0-.3-.1-.6-.2-.8h6.6c.3 0 .5-.2.5-.5v-6.1c.3.1.6.2.9.2 1.4 0 2.5-1.1 2.5-2.5s-1.1-2.5-2.5-2.5c-.3 0-.6.1-.9.2v-3.4c0-.3-.2-.5-.5-.5z"/><path d="m11.1 24.5c-.3 0-.5.2-.5.5v5.4c-.3-.1-.6-.1-.8-.1-1.3 0-2.5 1.1-2.5 2.5 0 1.3 1.1 2.5 2.5 2.5.3 0 .6-.1.8-.2v3.8c0 .3.2.5.5.5h3.2c-.1.3-.2.6-.2.8 0 1.4 1.1 2.5 2.5 2.5s2.5-1.1 2.5-2.5c0-.3-.1-.6-.2-.8h6.1c.3 0 .5-.2.5-.5s-.3-.5-.5-.5h-6.9c-.2 0-.4.1-.5.3s-.1.4.1.5c.3.3.4.6.4 1 0 .9-.7 1.6-1.6 1.6-.8 0-1.5-.7-1.5-1.6 0-.4.2-.7.4-1 .1-.2.2-.4.1-.5-.1-.2-.3-.3-.5-.3h-3.6v-4.2c0-.2-.1-.4-.3-.5-.1 0-.1 0-.2 0s-.2 0-.3.1c-.2.2-.5.4-1 .4-.8 0-1.5-.7-1.5-1.5 0-.9.7-1.6 1.5-1.6.5 0 .8.2 1 .4.1.1.2.1.3.1h.2c.2-.1.3-.3.3-.5v-6.2c.1-.2-.1-.4-.3-.4z"/><path d="m24.9 24.5c-.3 0-.5.2-.5.5v7.4c-.2-.1-.4-.1-.7-.1-1.3 0-2.5 1.1-2.5 2.5s1.1 2.5 2.5 2.5c.3 0 .5 0 .7-.1v1.7c0 .3.2.5.5.5s.5-.2.5-.5v-2.5c0-.2-.1-.3-.3-.4-.1 0-.1 0-.2 0s-.2 0-.3.1c-.3.2-.6.3-.9.3-.8 0-1.5-.7-1.5-1.6s.7-1.5 1.5-1.5c.3 0 .6.1.9.3.1.1.2.1.2.1s.2 0 .2-.1c.2-.1.3-.2.3-.4v-8.1c.1-.4-.1-.6-.4-.6z"/><path d="m20.3 21.3c-1.3 0-2.5 1.1-2.5 2.5 0 .3.1.5.1.7h-6.9c-.3 0-.5.2-.5.5s.2.5.5.5h7.7c.2 0 .4-.1.4-.3.1-.2.1-.4-.1-.5-.2-.3-.3-.6-.3-.9 0-.8.7-1.5 1.5-1.5s1.5.7 1.5 1.5c0 .4-.1.6-.3.9-.1.1-.2.3-.1.5s.3.3.4.3h3.3c.3 0 .5-.2.5-.5s-.3-.5-.5-.5h-2.3c.1-.3.1-.5.1-.7 0-1.4-1.1-2.5-2.5-2.5z"/></g><path d="m32.5 7.7c-1.1 0-2 .9-2 2 0 .6.2 1 .6 1.4h-5.7l13.5 13.9v-5.6c.4.4.9.6 1.4.6 1.1 0 2-.9 2-2s-.9-2-2-2c-.5 0-1 .2-1.4.6v-5.4h-4.9c.4-.4.6-.8.6-1.4-.1-1.2-1-2.1-2.1-2.1z" fill="#fff"/><path d="m32.5 7.2c-1.3 0-2.5 1.1-2.5 2.5 0 .3.1.6.2.9h-4.8c-.3 0-.5.2-.5.5s.3.5.5.5h5.7c.2 0 .4-.2.5-.3.1-.2 0-.4-.2-.5-.3-.3-.4-.7-.4-1.1 0-.8.7-1.5 1.5-1.5s1.5.7 1.5 1.5c0 .4-.2.8-.4 1.1-.2.1-.2.3-.1.5s.3.3.5.3h4.5v4.9c0 .2.1.4.3.4.1 0 .1.1.2.1s.2 0 .3-.1c.3-.3.7-.5 1-.5.8 0 1.5.7 1.5 1.5 0 .9-.7 1.6-1.5 1.6-.4 0-.8-.2-1-.5-.1-.1-.3-.1-.4-.1h-.1c-.2.1-.3.3-.3.5v5.6c0 .3.2.5.5.5s.5-.2.5-.5v-4.8c.3.1.6.2.9.2 1.4 0 2.5-1.1 2.5-2.5 0-1.3-1.1-2.5-2.5-2.5-.3 0-.6.1-.9.2v-4.6c0-.3-.3-.5-.5-.5h-4c.1-.3.2-.6.2-.9-.3-1.3-1.3-2.4-2.7-2.4z" fill="#ff720b"/><path d="m26.2 16.8c-.5 0-.9.2-1.2.4v3.2c.4.3.8.4 1.2.4 1.1 0 2-.9 2-2 .1-1.2-.8-2-2-2z" fill="#fff"/><path d="m25 10.7c-.3 0-.5.2-.5.5v6.1c0 .2.1.4.3.5.1 0 .1.1.2.1s.2 0 .3-.1c.3-.2.6-.4.9-.4.8 0 1.6.7 1.6 1.6 0 .8-.7 1.5-1.6 1.5-.3 0-.7-.1-.9-.4-.1-.1-.2-.1-.3-.1s-.1 0-.2 0c-.2.1-.3.3-.3.5v4.7c0 .3.2.5.5.5s.5-.2.5-.5v-3.9c.2.1.5.2.7.2 1.4 0 2.5-1.1 2.5-2.5s-1.1-2.5-2.5-2.5c-.3 0-.5 0-.7.1v-5.3c0-.4-.2-.6-.5-.6z" fill="#ff720b"/><path d="m28.1 25.1c-.3.4-.5.8-.5 1.3 0 1.1.9 2 2 2s2-.9 2-2c0-.5-.2-.9-.5-1.3z" fill="#fff"/><path d="m25.1 24.6c-.3 0-.5.2-.5.5s.2.5.5.5h2.1c-.1.3-.2.5-.2.8 0 1.4 1.1 2.5 2.5 2.5 1.3 0 2.5-1.1 2.5-2.5 0-.3-.1-.5-.2-.8h6.9c.3 0 .5-.2.5-.5s-.3-.5-.5-.5h-7.8c-.2 0-.4.1-.4.3-.1.2-.1.4.1.5.2.2.4.5.4.9 0 .9-.7 1.6-1.5 1.6s-1.5-.7-1.5-1.6c0-.4.2-.8.4-.9.1-.2.2-.4.1-.5-.1-.2-.3-.3-.4-.3z" fill="#ff720b"/></g></svg>