<svg width="24" height="24" viewBox="0 0 24 24" fill="none" xmlns="http://www.w3.org/2000/svg">
<g opacity="0.9">
<path opacity="0.9" d="M16.8536 8.85343C17.0489 8.65817 17.0489 8.34159 16.8536 8.14632C16.6584 7.95106 16.3418 7.95106 16.1465 8.14632L11.0001 13.2928L8.85368 11.1463C8.65842 10.9511 8.34184 10.9511 8.14657 11.1463C7.95131 11.3416 7.95131 11.6582 8.14657 11.8534L10.293 13.9999C10.6835 14.3904 11.3167 14.3904 11.7072 13.9999L16.8536 8.85343Z" fill="#3955A7"/>
<path opacity="0.9" fill-rule="evenodd" clip-rule="evenodd" d="M12.4138 2.13883C12.1509 2.01932 11.8492 2.01932 11.5862 2.13883L4.58626 5.32065C4.22649 5.48419 3.99874 5.84597 4.00099 6.23713C4.0217 9.82915 4.3904 12.4402 5.51251 14.7831C6.63299 17.1226 8.4799 19.1425 11.3498 21.6029C11.7225 21.9224 12.2776 21.9224 12.6503 21.6029C15.5202 19.1425 17.3671 17.1226 18.4876 14.7831C19.6097 12.4402 19.9784 9.82915 19.9991 6.23713C20.0014 5.84597 19.7736 5.48419 19.4139 5.32065L12.4138 2.13883ZM12 3.04919L19.0001 6.23102C18.9797 9.76715 18.6137 12.2047 17.5857 14.3511C16.5562 16.5006 14.8369 18.4109 12.0008 20.8425C12.0011 20.8425 12.0006 20.8425 12.0008 20.8425C12.0005 20.8425 11.9995 20.8425 11.9993 20.8425C9.16317 18.4109 7.4439 16.5006 6.41441 14.3511C5.38638 12.2047 5.02137 9.7675 5.00098 6.23137L12 3.04919ZM11.9993 20.8425C11.9977 20.8414 11.9979 20.8424 11.9993 20.8425L12 20.8432L12.0008 20.8425C12.0022 20.8424 12.0024 20.8414 12.0008 20.8425L12 20.8432L11.9993 20.8425Z" fill="#3955A7"/>
</g>
</svg>
