<?xml version="1.0" encoding="utf-8"?>
<!-- Generator: Adobe Illustrator 23.0.1, SVG Export Plug-In . SVG Version: 6.00 Build 0)  -->
<svg version="1.1" xmlns="http://www.w3.org/2000/svg" xmlns:xlink="http://www.w3.org/1999/xlink" x="0px" y="0px"
	 viewBox="0 0 23 23" style="enable-background:new 0 0 23 23;" xml:space="preserve">
<style type="text/css">
	.st0{display:none;}
	.st1{display:inline;}
	.st2{fill:none;stroke:#5879DA;}
	.st3{display:inline;fill:none;stroke:#5879DA;}
	.st4{fill:none;stroke:#5879DA;stroke-width:0.75;stroke-linecap:round;stroke-linejoin:round;stroke-miterlimit:10;}
</style>
<g id="Layer_1" class="st0">
	<g class="st1">
		<path class="st2" d="M11.2,0.7C8.4,2.8,5.3,3.9,1.8,4.1V16c1.1,2.1,3,3.7,5.3,5c1.7,0.9,3.6,1.5,4.2,1.5c0.7,0,2.7-0.6,4.4-1.5
			c2.4-1.2,4.3-2.9,5.5-5v-4.8V9.8V4.1C17,4,13.7,2.8,11.2,0.7z"/>
	</g>
	<polyline class="st3" points="6,14.4 9.8,16.9 16.9,7 	"/>
</g>
<g id="Layer_2">
	<path class="st4" d="M11.8,0.5C9.3,2.6,6.2,3.7,2.5,4.1v3.7c0,6.7,3.7,12.6,9.2,14.7l0,0l0,0c5.5-2.1,9.2-8,9.2-14.7V4.1
		C17.4,3.7,14.2,2.6,11.8,0.5z"/>
	<line class="st4" x1="7.6" y1="11.7" x2="11.3" y2="15.4"/>
	<line class="st4" x1="16.8" y1="7.1" x2="11.3" y2="15.4"/>
</g>
</svg>
