<svg height="24" viewBox="0 0 19 24" width="19" xmlns="http://www.w3.org/2000/svg" xmlns:xlink="http://www.w3.org/1999/xlink"><mask id="a" fill="#fff"><path d="m.201.201h6.17v5.492h-6.171z" fill="#fff" fill-rule="evenodd"/></mask><mask id="b" fill="#fff"><path d="m0 31.78h18.963v-31.563h-18.963z" fill="#fff" fill-rule="evenodd"/></mask><mask id="c" fill="#fff"><path d="m.04 8.752c0 4.722 3.831 8.55 8.558 8.55s8.558-3.828 8.558-8.55-3.831-8.55-8.558-8.55-8.558 3.828-8.558 8.551" fill="#fff" fill-rule="evenodd"/></mask><mask id="d" fill="#fff"><path d="m.04 8.752c0 4.722 3.831 8.55 8.558 8.55s8.558-3.828 8.558-8.55-3.831-8.55-8.558-8.55-8.558 3.828-8.558 8.551" fill="#fff" fill-rule="evenodd"/></mask><g fill="none" fill-rule="evenodd"><g transform="translate(0 .002)"><path d="m18.258 14.163c0 4.842-3.93 8.767-8.776 8.767-4.847 0-8.776-3.925-8.776-8.767 0-4.841 3.929-8.766 8.776-8.766s8.776 3.925 8.776 8.766" fill="#cfdbdd"/><path d="m9.482 5.617c-4.718 0-8.555 3.834-8.555 8.546s3.837 8.546 8.555 8.546c4.717 0 8.555-3.834 8.555-8.546s-3.838-8.546-8.555-8.546m0 17.533c-4.962 0-8.997-4.03-8.997-8.987 0-4.955 4.036-8.987 8.997-8.987 4.96 0 8.997 4.032 8.997 8.987 0 4.956-4.036 8.987-8.997 8.987" fill="#5586ff"/><path d="m4.18 13.417h-2.191a1.772 1.772 0 0 1 -1.768-1.767v-1.519c0-.97.795-1.765 1.767-1.765h2.193c.972 0 1.767.794 1.767 1.765v1.52c0 .97-.795 1.765-1.767 1.765" fill="#fff"/><path d="m1.988 8.587c-.852 0-1.546.694-1.546 1.545v1.52c0 .851.694 1.544 1.546 1.544h2.193c.852 0 1.546-.693 1.546-1.545v-1.519c0-.851-.694-1.545-1.546-1.545zm2.193 5.05h-2.193a1.99 1.99 0 0 1 -1.988-1.985v-1.519a1.99 1.99 0 0 1 1.988-1.986h2.193a1.99 1.99 0 0 1 1.988 1.986v1.52a1.99 1.99 0 0 1 -1.988 1.986z" fill="#5586ff"/><path d="m16.975 13.417h-2.192a1.772 1.772 0 0 1 -1.768-1.766v-1.519c0-.97.796-1.765 1.768-1.765h2.192c.972 0 1.767.794 1.767 1.765v1.52c0 .97-.795 1.765-1.767 1.765" fill="#fff"/><path d="m2.19.643c-.853 0-1.547.693-1.547 1.544v1.52c0 .851.694 1.544 1.547 1.544h2.192c.853 0 1.546-.693 1.546-1.544v-1.52c0-.851-.693-1.544-1.546-1.544zm2.192 5.05h-2.192a1.99 1.99 0 0 1 -1.99-1.986v-1.52a1.99 1.99 0 0 1 1.99-1.986h2.192a1.99 1.99 0 0 1 1.988 1.986v1.52a1.99 1.99 0 0 1 -1.988 1.986z" fill="#5586ff" mask="url(#a)" transform="translate(12.593 7.945)"/><path d="m12.468 16.351h-5.946a4.197 4.197 0 0 1 -4.187-4.182v-3.676c0-2.3 1.884-4.183 4.187-4.183h5.946a4.197 4.197 0 0 1 4.188 4.183v3.676c0 2.3-1.885 4.182-4.188 4.182" fill="#fff"/><path d="m6.522 4.531a3.969 3.969 0 0 0 -3.966 3.962v3.675a3.969 3.969 0 0 0 3.966 3.963h5.946a3.969 3.969 0 0 0 3.967-3.963v-3.675a3.969 3.969 0 0 0 -3.967-3.962zm5.946 12.041h-5.946a4.411 4.411 0 0 1 -4.408-4.404v-3.675a4.41 4.41 0 0 1 4.408-4.403h5.946a4.41 4.41 0 0 1 4.409 4.403v3.675a4.411 4.411 0 0 1 -4.409 4.404z" fill="#5586ff"/><path d="m12.386 14.405h-5.782a2.573 2.573 0 0 1 -2.566-2.564v-2.558a2.573 2.573 0 0 1 2.566-2.563h5.782a2.573 2.573 0 0 1 2.566 2.564v2.558a2.573 2.573 0 0 1 -2.566 2.564" fill="#fff"/><path d="m6.604 6.94a2.347 2.347 0 0 0 -2.344 2.343v2.558a2.347 2.347 0 0 0 2.345 2.343h5.782a2.347 2.347 0 0 0 2.346-2.343v-2.558a2.347 2.347 0 0 0 -2.346-2.343zm5.782 7.685h-5.782a2.789 2.789 0 0 1 -2.787-2.784v-2.558a2.79 2.79 0 0 1 2.787-2.783h5.782a2.79 2.79 0 0 1 2.787 2.784v2.558a2.789 2.789 0 0 1 -2.787 2.784z" fill="#5586ff"/><path d="m13.015 10.135a.829.829 0 1 1 -1.657-.001.829.829 0 0 1 1.657 0m-5.409.001a.829.829 0 1 1 -1.657-.001.829.829 0 0 1 1.657 0m1.889 2.681c-.796 0-1.444-.535-1.444-1.192a.185.185 0 0 1 .372 0c0 .453.48.821 1.072.821.591 0 1.073-.368 1.073-.82a.185.185 0 0 1 .37 0c0 .656-.647 1.191-1.443 1.191" fill="#5586ff"/><path d="m9.495 2.676v1.635" fill="#fff"/><path d="m9.274 4.31h.442v-1.633h-.442z" fill="#5586ff" mask="url(#b)"/><path d="m10.698 1.655a1.216 1.216 0 1 1 -2.431-.002 1.216 1.216 0 0 1 2.431.002" fill="#e3f4f0" mask="url(#b)"/><path d="m9.482.66a.996.996 0 0 0 -.996.995.996.996 0 0 0 1.991 0 .996.996 0 0 0 -.995-.995m0 2.43a1.438 1.438 0 0 1 -1.438-1.435 1.438 1.438 0 0 1 2.875 0c0 .791-.645 1.435-1.437 1.435" fill="#5586ff" mask="url(#b)"/></g><path d="m8.612 26.041c-2.96 0-5.383-2.42-5.383-5.376v-2.882c0-2.958 2.422-5.377 5.382-5.377s5.383 2.42 5.383 5.377v2.882c0 2.957-2.422 5.376-5.382 5.376" fill="#fff" mask="url(#c)" transform="translate(.884 5.52)"/><path d="m8.612 12.627a5.165 5.165 0 0 0 -5.162 5.155v2.883a5.164 5.164 0 0 0 5.16 5.155 5.164 5.164 0 0 0 5.162-5.156v-2.883a5.164 5.164 0 0 0 -5.161-5.155m0 13.635a5.607 5.607 0 0 1 -5.604-5.597v-2.883a5.607 5.607 0 0 1 5.603-5.597 5.607 5.607 0 0 1 5.604 5.597v2.883a5.607 5.607 0 0 1 -5.603 5.597" fill="#5586ff" mask="url(#d)" transform="translate(.884 5.52)"/></g></svg>