<svg width="24" height="24" viewBox="0 0 24 24" fill="none" xmlns="http://www.w3.org/2000/svg">
<path d="M16.6363 9.23659L13.1207 15.7691C13.0811 15.8543 13.0313 15.9364 12.9712 16.0137C12.5418 16.566 11.746 16.6656 11.1938 16.2362C10.6415 15.8068 10.5419 15.011 10.9713 14.4587C11.0188 14.3975 11.0709 14.3419 11.1266 14.2919L16.6363 9.23659Z" fill="#3955A7"/>
<path d="M5.66669 15.8999C5.66669 16.2497 5.38314 16.5333 5.03336 16.5333C4.68358 16.5333 4.40002 16.2497 4.40002 15.8999C4.40002 15.5502 4.68358 15.2666 5.03336 15.2666C5.38314 15.2666 5.66669 15.5502 5.66669 15.8999Z" fill="#3955A7"/>
<path d="M5.03336 11.4669C5.38314 11.4669 5.66669 11.1833 5.66669 10.8335C5.66669 10.4837 5.38314 10.2002 5.03336 10.2002C4.68358 10.2002 4.40002 10.4837 4.40002 10.8335C4.40002 11.1833 4.68358 11.4669 5.03336 11.4669Z" fill="#3955A7"/>
<path d="M9.46662 7.03372C9.46662 7.3835 9.18307 7.66706 8.83329 7.66706C8.48351 7.66706 8.19995 7.3835 8.19995 7.03372C8.19995 6.68394 8.48351 6.40039 8.83329 6.40039C9.18307 6.40039 9.46662 6.68394 9.46662 7.03372Z" fill="#3955A7"/>
<path d="M15.1667 7.66706C15.5164 7.66706 15.8 7.3835 15.8 7.03372C15.8 6.68394 15.5164 6.40039 15.1667 6.40039C14.8169 6.40039 14.5333 6.68394 14.5333 7.03372C14.5333 7.3835 14.8169 7.66706 15.1667 7.66706Z" fill="#3955A7"/>
<path d="M19.6 10.8335C19.6 11.1833 19.3165 11.4669 18.9667 11.4669C18.6169 11.4669 18.3333 11.1833 18.3333 10.8335C18.3333 10.4837 18.6169 10.2002 18.9667 10.2002C19.3165 10.2002 19.6 10.4837 19.6 10.8335Z" fill="#3955A7"/>
<path d="M18.9667 16.5333C19.3165 16.5333 19.6 16.2497 19.6 15.8999C19.6 15.5502 19.3165 15.2666 18.9667 15.2666C18.6169 15.2666 18.3333 15.5502 18.3333 15.8999C18.3333 16.2497 18.6169 16.5333 18.9667 16.5333Z" fill="#3955A7"/>
<path fill-rule="evenodd" clip-rule="evenodd" d="M12 4C6.47715 4 2 8.47715 2 14C2 15.6846 2.41694 17.2732 3.15368 18.667L3.29447 18.9333H20.7055L20.8463 18.667C21.5831 17.2732 22 15.6846 22 14C22 8.47715 17.5228 4 12 4ZM3 14C3 9.02944 7.02944 5 12 5C16.9706 5 21 9.02944 21 14C21 15.4113 20.6755 16.7455 20.0974 17.9333H3.90261C3.32449 16.7455 3 15.4113 3 14Z" fill="#3955A7"/>
</svg>
