<?xml version="1.0" encoding="utf-8"?>
<!-- Generator: Adobe Illustrator 23.0.1, SVG Export Plug-In . SVG Version: 6.00 Build 0)  -->
<svg version="1.1" xmlns="http://www.w3.org/2000/svg" xmlns:xlink="http://www.w3.org/1999/xlink" x="0px" y="0px"
	 viewBox="0 0 23 23" style="enable-background:new 0 0 23 23;" xml:space="preserve">
<style type="text/css">
	.st0{display:none;}
	.st1{display:inline;}
	.st2{fill:none;stroke:#5879DA;}
	.st3{display:inline;fill:none;stroke:#5879DA;}
	.st4{fill:none;stroke:#5879DA;stroke-width:0.75;stroke-linecap:round;stroke-linejoin:round;stroke-miterlimit:10;}
	.st5{display:inline;fill:#5779DA;}
	.st6{fill:#5879DA;}
</style>
<g id="Layer_1" class="st0">
	<g>
		<g class="st1">
			<path class="st2" d="M11.2,0.7C8.4,2.8,5.3,3.9,1.8,4.1V16c1.1,2.1,3,3.7,5.3,5c1.7,0.9,3.6,1.5,4.2,1.5c0.7,0,2.7-0.6,4.4-1.5
				c2.4-1.2,4.3-2.9,5.5-5v-4.8V9.8V4.1C17,4,13.7,2.8,11.2,0.7z"/>
		</g>
		<polyline class="st3" points="6,14.4 9.8,16.9 16.9,7 		"/>
	</g>
	<g class="st1">
		<path class="st4" d="M11.8,0.5C9.3,2.6,6.2,3.7,2.5,4.1v3.7c0,6.7,3.7,12.6,9.2,14.7l0,0l0,0c5.5-2.1,9.2-8,9.2-14.7V4.1
			C17.4,3.7,14.2,2.6,11.8,0.5z"/>
		<line class="st4" x1="7.6" y1="11.7" x2="11.3" y2="15.4"/>
		<line class="st4" x1="16.8" y1="7.1" x2="11.3" y2="15.4"/>
	</g>
</g>
<g id="Layer_2" class="st0">
	<g class="st1">
		<g>
			<path class="st4" d="M13,13.6c0,0.7-0.5,1.2-1.2,1.2s-1.2-0.5-1.2-1.2c0-0.7,0.5-1.2,1.2-1.2S13,13,13,13.6z"/>
			<line class="st4" x1="12.9" y1="13.2" x2="18.3" y2="11.4"/>
			<line class="st4" x1="8.7" y1="14.6" x2="10.6" y2="14"/>
		</g>
		<line class="st4" x1="15.8" y1="6.1" x2="16.8" y2="4.4"/>
		<line class="st4" x1="18.9" y1="9.3" x2="20.7" y2="8.3"/>
		<line class="st4" x1="2.3" y1="18.9" x2="4.1" y2="17.9"/>
		<line class="st4" x1="20.1" y1="13.6" x2="22.1" y2="13.6"/>
		<line class="st4" x1="0.9" y1="13.6" x2="2.9" y2="13.6"/>
		<line class="st4" x1="18.9" y1="17.9" x2="20.7" y2="18.9"/>
		<line class="st4" x1="2.3" y1="8.3" x2="4.1" y2="9.3"/>
		<line class="st4" x1="6.2" y1="4.4" x2="7.2" y2="6.1"/>
		<line class="st4" x1="11.5" y1="2.9" x2="11.5" y2="5"/>
		<path class="st4" d="M2.3,18.9c-0.9-1.6-1.4-3.4-1.4-5.3c0-5.9,4.8-10.6,10.6-10.6s10.6,4.8,10.6,10.6c0,1.9-0.5,3.8-1.4,5.3"/>
	</g>
</g>
<g id="Layer_3" class="st0">
	<g class="st1">
		<path class="st4" d="M11.5,1.3c-5.4,0-9.9,4.4-9.9,9.9c0,2,0.6,3.9,1.7,5.5L2.2,21c0,0.1,0,0.3,0.1,0.4c0.1,0.1,0.2,0.1,0.3,0.1
			c0.1,0,0.1,0,0.2,0l3.8-1.8c1.5,0.9,3.2,1.3,4.9,1.3c5.4,0,9.9-4.4,9.9-9.9C21.4,5.7,16.9,1.3,11.5,1.3z"/>
	</g>
	<rect x="10.6" y="14.8" class="st5" width="1.7" height="1.3"/>
	<path class="st5" d="M14.6,10.2c-0.2,0.4-0.7,0.9-1.5,1.5c-0.4,0.3-0.6,0.6-0.7,0.8c-0.1,0.2-0.1,0.6-0.1,1.1h-1.7
		c0-0.2,0-0.4,0-0.4c0-0.5,0.1-1,0.3-1.3c0.2-0.4,0.5-0.7,1.1-1.2c0.5-0.4,0.9-0.7,1-0.9C13,9.5,13.1,9.3,13.1,9
		c0-0.4-0.1-0.7-0.4-0.9c-0.3-0.3-0.7-0.4-1.2-0.4c-0.5,0-0.9,0.1-1.2,0.4C10,8.4,9.8,8.8,9.7,9.3L8,9.1c0-0.8,0.4-1.5,1-2
		c0.6-0.5,1.4-0.8,2.5-0.8c1.1,0,1.9,0.3,2.5,0.8c0.6,0.6,0.9,1.2,0.9,1.9C14.9,9.5,14.8,9.9,14.6,10.2z"/>
</g>
<g id="Layer_5">
	<path class="st6" d="M22.1,8l-1.3-1.3c-0.2-0.2-0.4-0.2-0.6-0.2c-0.2,0-0.4,0.1-0.5,0.2c-0.1-0.2-0.1-0.2-0.2-0.5
		c0-0.1,0-0.3-0.1-0.5c-0.1-0.5-0.4-1.1-0.7-1.4l-1.3-1.3c-0.7-0.7-1.1-1.1-2.1-1.6c-0.9-0.4-1.8-0.6-2.8-0.6
		c-1.3,0-2.8,0.4-4.7,1.2C7.7,2,7.6,2.2,7.6,2.4c0,0.2,0.2,0.4,0.5,0.4c0.2,0,0.3,0,0.5,0c0.1,0,0.3,0,0.4,0c1.2,0,2,0.1,3.3,1.4
		c0.3,0.3,0.5,0.7,0.5,1.2c0,0.4-0.2,0.9-0.5,1.2c0,0,0,0,0,0c0,0,0,0,0,0L1,19.1c-0.3,0.3-0.5,0.7-0.5,1.2c0,0.4,0.2,0.8,0.4,1
		l0.5,0.5c0.3,0.3,0.7,0.4,1.1,0.4c0,0,0,0,0,0c0.4,0,0.8-0.2,1.1-0.5c0,0,0,0,0,0l11-12.3c0.3,0.1,0.5,0.2,0.8,0.3c0,0,0,0,0,0
		c0.2,0,0.4,0,0.5,0c0.3,0,0.3,0,0.5,0.2c-0.1,0.1-0.2,0.3-0.2,0.5c0,0.2,0.1,0.4,0.2,0.6l1.2,1.2c0,0,0,0,0,0
		c0.2,0.2,0.5,0.4,0.8,0.4c0.3,0,0.6-0.1,0.8-0.4l2.6-2.6C22.5,9.2,22.5,8.5,22.1,8z M3.1,21.1c-0.1,0.1-0.3,0.2-0.5,0.2
		c-0.1,0-0.3,0-0.4-0.2l-0.5-0.5c0,0,0,0,0,0c-0.1-0.1-0.2-0.2-0.2-0.4c0-0.2,0.1-0.4,0.2-0.5c0,0,0,0,0,0L12.6,7.5L14,8.8L3.1,21.1
		z M16.1,8.8c-0.1,0-0.2,0-0.4,0c-0.4-0.1-0.7-0.2-0.9-0.5c0,0,0,0,0,0l-1.5-1.5c0.3-0.4,0.5-0.9,0.5-1.4c0-0.7-0.2-1.4-0.7-1.9
		c-1-1-1.8-1.4-2.6-1.6c0.8-0.2,1.5-0.3,2.2-0.3c0.8,0,1.6,0.2,2.4,0.5c0,0,0,0,0,0c0.8,0.4,1.1,0.7,1.8,1.4l1.3,1.3
		c0.3,0.3,0.4,0.6,0.5,0.9c0,0.2,0,0.3,0,0.4c0,0.3,0,0.5,0.2,0.8l-1.9,2C16.6,8.8,16.4,8.8,16.1,8.8z M21.4,9l-2.6,2.6
		c-0.1,0.1-0.3,0.1-0.4,0l-1.1-1.2c0.2-0.2,0.2-0.5,0.2-0.7l2-2.1c0,0,0.1,0,0.1,0c0.2,0,0.4-0.1,0.5-0.2l1.2,1.2
		C21.5,8.8,21.5,8.9,21.4,9z"/>
</g>
</svg>
