<svg enable-background="new 0 0 23 23" viewBox="0 0 23 23" xmlns="http://www.w3.org/2000/svg"><path d="m22.1 8-1.3-1.3c-.2-.2-.4-.2-.6-.2s-.4.1-.5.2c-.1-.2-.1-.2-.2-.5 0-.1 0-.3-.1-.5-.1-.5-.4-1.1-.7-1.4l-1.3-1.3c-.7-.7-1.1-1.1-2.1-1.6-.9-.4-1.8-.6-2.8-.6-1.3 0-2.8.4-4.7 1.2-.1 0-.2.2-.2.4s.2.4.5.4h.5.4c1.2 0 2 .1 3.3 1.4.3.3.5.7.5 1.2 0 .4-.2.9-.5 1.2l-11.3 12.5c-.3.3-.5.7-.5 1.2 0 .4.2.8.4 1l.5.5c.3.3.7.4 1.1.4.4 0 .8-.2 1.1-.5l11-12.3c.3.1.5.2.8.3h.5c.3 0 .3 0 .5.2-.1.1-.2.3-.2.5s.1.4.2.6l1.2 1.2c.2.2.5.4.8.4s.6-.1.8-.4l2.6-2.6c.7-.4.7-1.1.3-1.6zm-19 13.1c-.1.1-.3.2-.5.2-.1 0-.3 0-.4-.2l-.5-.5c-.1-.1-.2-.2-.2-.4s.1-.4.2-.5l10.9-12.2 1.4 1.3zm13-12.3c-.1 0-.2 0-.4 0-.4-.1-.7-.2-.9-.5l-1.5-1.5c.3-.4.5-.9.5-1.4 0-.7-.2-1.4-.7-1.9-1-1-1.8-1.4-2.6-1.6.8-.2 1.5-.3 2.2-.3.8 0 1.6.2 2.4.5.8.4 1.1.7 1.8 1.4l1.3 1.3c.3.3.4.6.5.9v.4c0 .3 0 .5.2.8l-1.9 2c-.4-.1-.6-.1-.9-.1zm5.3.2-2.6 2.6c-.1.1-.3.1-.4 0l-1.1-1.2c.2-.2.2-.5.2-.7l2-2.1h.1c.2 0 .4-.1.5-.2l1.2 1.2c.2.2.2.3.1.4z" fill="#5879da"/></svg>