<svg width="24" height="24" viewBox="0 0 24 24" fill="none" xmlns="http://www.w3.org/2000/svg">
<path d="M12.4645 8.84313C12.4722 8.696 12.5977 8.58294 12.7448 8.59062C13.2953 8.61934 13.7533 8.78597 14.0795 9.12323C14.4044 9.45921 14.5637 9.92857 14.5917 10.4923C14.599 10.6394 14.4856 10.7646 14.3385 10.7719C14.1913 10.7792 14.0661 10.6658 14.0588 10.5187C14.0348 10.0362 13.9025 9.70767 13.696 9.49416C13.4907 9.28195 13.1775 9.14747 12.717 9.12344C12.5699 9.11577 12.4568 8.99027 12.4645 8.84313Z" fill="#f2f1f2"/>
<path d="M12.3456 7.1593C12.1987 7.14854 12.0708 7.25894 12.0601 7.40589C12.0493 7.55283 12.1597 7.68067 12.3067 7.69143C13.3224 7.76576 14.0853 8.10574 14.631 8.70137C15.1783 9.29948 15.447 10.045 15.4272 10.9586C15.424 11.1059 15.5409 11.2279 15.6882 11.2311C15.8355 11.2342 15.9575 11.1174 15.9606 10.9701C15.9831 9.93423 15.6743 9.05108 15.0246 8.34116L15.0245 8.34106C14.3677 7.62407 13.4659 7.24129 12.3456 7.1593Z" fill="#f2f1f2"/>
<path d="M11.5891 6.03961C11.5901 5.89228 11.7104 5.77367 11.8577 5.7747C13.4059 5.78548 14.7146 6.30089 15.7653 7.32515C16.8248 8.35797 17.3487 9.76407 17.362 11.5104C17.3631 11.6577 17.2446 11.7781 17.0972 11.7792C16.9499 11.7803 16.8296 11.6618 16.8284 11.5145C16.816 9.87806 16.3292 8.61998 15.3928 7.7072C14.4477 6.78586 13.2742 6.31813 11.854 6.30824C11.7067 6.30721 11.5881 6.18694 11.5891 6.03961Z" fill="#f2f1f2"/>
<path d="M13.3607 13.8615C13.1588 14.1103 12.7838 14.0786 12.7838 14.0786C10.0429 13.3789 9.30933 10.6026 9.30933 10.6026C9.30933 10.6026 9.27642 10.2276 9.52642 10.0257L10.0217 9.63203C10.2673 9.44279 10.4239 8.9836 10.1739 8.53518C9.98215 8.19858 9.77365 7.87179 9.54921 7.55605C9.33117 7.25826 8.82325 6.64844 8.82135 6.64654C8.57641 6.35761 8.21628 6.29052 7.83652 6.48831C7.83537 6.48831 7.8338 6.48882 7.83228 6.48931C7.83088 6.48977 7.82952 6.49021 7.82861 6.49021C7.45091 6.70783 7.11034 6.9843 6.81974 7.30921C6.81875 7.31119 6.81775 7.31214 6.81676 7.31308C6.81586 7.31395 6.81495 7.31482 6.81404 7.31649C6.57944 7.59961 6.44515 7.87704 6.41118 8.14878C6.40413 8.18888 6.40169 8.22965 6.40391 8.2703C6.40264 8.39039 6.42092 8.50988 6.45802 8.6241L6.471 8.63296C6.58935 9.05322 6.88556 9.75323 7.52924 10.9203C7.89741 11.5954 8.32204 12.2381 8.79856 12.8416C9.03731 13.1441 9.29322 13.4326 9.56503 13.7058C9.57484 13.7156 9.58434 13.7254 9.59415 13.7349L9.62326 13.7644L9.68149 13.8226C9.95468 14.0944 10.2432 14.3503 10.5457 14.5891C11.1493 15.0657 11.7921 15.4903 12.4673 15.8584C13.6341 16.5021 14.3347 16.7983 14.7544 16.9166L14.7632 16.9296C14.8774 16.9668 14.9969 16.9852 15.117 16.984C15.1577 16.986 15.1984 16.9835 15.2385 16.9765C15.5109 16.9442 15.7882 16.8101 16.0705 16.5742C16.0722 16.5733 16.073 16.5724 16.0739 16.5715C16.0749 16.5705 16.0758 16.5695 16.0778 16.5685C16.4027 16.2778 16.6793 15.9373 16.8971 15.5597C16.8971 15.5587 16.8975 15.5574 16.8979 15.556C16.8983 15.5545 16.8987 15.5529 16.8987 15.5517C17.0965 15.172 17.0294 14.8119 16.7389 14.5666C16.7385 14.5666 16.7148 14.5471 16.6747 14.514C16.5101 14.3784 16.0688 14.0148 15.8294 13.8387C15.5139 13.6143 15.1875 13.4058 14.8512 13.214C14.4025 12.964 13.9442 13.1207 13.7543 13.3663L13.3607 13.8615Z" fill="#f2f1f2"/>
<path fill-rule="evenodd" clip-rule="evenodd" d="M19.7424 4.05694C19.2184 3.57339 17.1006 2.03602 12.3834 2.01514C12.3834 2.01514 6.82068 1.67969 4.10893 4.16707C2.59941 5.6769 2.06839 7.88612 2.01238 10.6251C1.95637 13.3641 1.8839 18.497 6.83176 19.8888H6.83651L6.83334 22.0126C6.83334 22.0126 6.8017 22.8724 7.36784 23.0477C7.93937 23.2252 8.31385 22.7994 8.80215 22.2442C8.89894 22.1342 9.00021 22.019 9.10838 21.9025C9.46725 21.5158 9.96282 20.9477 10.3362 20.5135C13.7202 20.7983 16.3227 20.1474 16.6183 20.0512C16.6793 20.0314 16.7657 20.0094 16.8729 19.9822C17.9663 19.7042 21.2239 18.876 21.7966 14.2017C22.4456 8.91145 21.4826 5.56519 19.7424 4.05694ZM20.3158 13.8223C19.838 17.681 17.2481 18.2836 16.3149 18.5008L16.3148 18.5008L16.3146 18.5008C16.2115 18.5248 16.1287 18.5441 16.0711 18.5625C15.8253 18.6417 13.5395 19.2103 10.665 19.0227C10.665 19.0227 8.52324 21.6066 7.85425 22.2784C7.74981 22.3835 7.62703 22.4259 7.54506 22.405C7.42987 22.3768 7.39823 22.2405 7.39949 22.0411C7.40139 21.7563 7.41785 18.5119 7.41785 18.5119C3.37065 17.3883 3.46504 13.2664 3.51861 10.9269L3.51862 10.9267C3.52045 10.8468 3.52223 10.769 3.5238 10.6934C3.57127 8.40574 4.00102 6.53166 5.27762 5.2712C7.57133 3.19364 12.2964 3.50408 12.2964 3.50408C16.2867 3.52149 18.1987 4.72309 18.6421 5.12563C20.1143 6.38609 20.8643 9.40228 20.3158 13.821V13.8223Z" fill="#f2f1f2"/>
</svg>
