<?xml version="1.0" encoding="utf-8"?>
<!-- Generator: Adobe Illustrator 23.0.3, SVG Export Plug-In . SVG Version: 6.00 Build 0)  -->
<svg version="1.1" id="WEB" xmlns="http://www.w3.org/2000/svg" xmlns:xlink="http://www.w3.org/1999/xlink" x="0px" y="0px"
	 viewBox="0 0 50 50" style="enable-background:new 0 0 50 50;" xml:space="preserve">
<style type="text/css">
	.st0{fill-rule:evenodd;clip-rule:evenodd;fill:#FFFFFF;}
	.st1{fill-rule:evenodd;clip-rule:evenodd;fill:#162036;}
	.st2{fill-rule:evenodd;clip-rule:evenodd;fill:#FF720B;}
</style>
<g>
	<path class="st0" d="M7.3,11.1c-1.1,0-1.3,0.5-1.3,1.3v25.1c0,0.8,0.6,1.4,1.4,1.4h35.3c0.8,0,1.4-0.6,1.4-1.4V12.4
		c0-0.8-0.3-1.2-0.9-1.2L7.3,11.1z"/>
	<path class="st1" d="M7.3,11.6l35.8,0.1c0.2,0,0.5,0,0.5,0.7v25.1c0,0.5-0.4,0.9-0.9,0.9H7.3c-0.5,0-0.9-0.4-0.9-0.9V12.4
		C6.4,11.8,6.5,11.6,7.3,11.6z M7.3,10.6c-1.2,0-1.8,0.6-1.8,1.8v25.1c0,1,0.8,1.9,1.8,1.9h35.3c1,0,1.8-0.9,1.8-1.9V12.4
		c0-1.5-1-1.7-1.4-1.7L7.3,10.6z"/>
	<path class="st0" d="M6.2,15.4h37.7"/>
	<path class="st1" d="M6.2,14.9c-0.3,0-0.5,0.2-0.5,0.5c0,0.3,0.2,0.5,0.5,0.5h37.7c0.3,0,0.5-0.3,0.5-0.5c0-0.3-0.2-0.5-0.5-0.5
		H6.2z"/>
	<path class="st1" d="M8.8,12.6c-0.4,0-0.7,0.3-0.7,0.6s0.3,0.7,0.7,0.7c0.3,0,0.6-0.3,0.6-0.7S9.1,12.6,8.8,12.6z"/>
	<path class="st1" d="M11,12.6c-0.4,0-0.6,0.3-0.6,0.6s0.3,0.7,0.6,0.7s0.7-0.3,0.7-0.7S11.4,12.6,11,12.6z"/>
	<path class="st1" d="M13.4,12.6c-0.4,0-0.7,0.3-0.7,0.6s0.3,0.7,0.7,0.7s0.6-0.3,0.6-0.7S13.7,12.6,13.4,12.6z"/>
	<path class="st2" d="M21.6,24c-0.1,0-0.2,0-0.3,0.1l-4.7,3.1c-0.1,0.1-0.2,0.3-0.2,0.4c0,0.2,0.1,0.3,0.2,0.4l4.7,3.1
		c0.1,0.1,0.2,0.1,0.3,0.1c0.2,0,0.3-0.1,0.4-0.2c0.2-0.2,0.1-0.5-0.1-0.7l-4.1-2.7l4.1-2.7c0.2-0.2,0.3-0.5,0.1-0.7
		C21.9,24,21.7,24,21.6,24z"/>
	<path class="st2" d="M27.1,24c-0.2,0-0.3,0.1-0.4,0.2c-0.2,0.2-0.1,0.5,0.1,0.7l4.1,2.7l-4.1,2.7c-0.2,0.2-0.3,0.5-0.1,0.7
		c0.1,0.2,0.2,0.2,0.4,0.2c0.1,0,0.2,0,0.3-0.1l4.7-3.1c0.1-0.1,0.2-0.3,0.2-0.4c0-0.2-0.1-0.3-0.2-0.4L27.4,24
		C27.3,24,27.2,24,27.1,24z"/>
	<path class="st2" d="M25.6,21.9c-0.2,0-0.4,0.1-0.5,0.4l-2.5,10.4c-0.1,0.3,0.1,0.5,0.3,0.6H23c0.2,0,0.4-0.2,0.5-0.4L26,22.5
		C26.1,22.2,25.9,22,25.6,21.9C25.6,21.9,25.6,21.9,25.6,21.9z"/>
</g>
</svg>
