<svg enable-background="new 0 0 50 50" viewBox="0 0 50 50" xmlns="http://www.w3.org/2000/svg"><g clip-rule="evenodd" fill-rule="evenodd"><path d="m7.3 11.1c-1.1 0-1.3.5-1.3 1.3v25.1c0 .8.6 1.4 1.4 1.4h35.3c.8 0 1.4-.6 1.4-1.4v-25.1c0-.8-.3-1.2-.9-1.2z" fill="#fff"/><path d="m7.3 11.6 35.8.1c.2 0 .5 0 .5.7v25.1c0 .5-.4.9-.9.9h-35.4c-.5 0-.9-.4-.9-.9v-25.1c0-.6.1-.8.9-.8zm0-1c-1.2 0-1.8.6-1.8 1.8v25.1c0 1 .8 1.9 1.8 1.9h35.3c1 0 1.8-.9 1.8-1.9v-25.1c0-1.5-1-1.7-1.4-1.7z" fill="#162036"/><path d="m6.2 15.4h37.7" fill="#fff"/><g fill="#162036"><path d="m6.2 14.9c-.3 0-.5.2-.5.5s.2.5.5.5h37.7c.3 0 .5-.3.5-.5 0-.3-.2-.5-.5-.5z"/><path d="m8.8 12.6c-.4 0-.7.3-.7.6s.3.7.7.7c.3 0 .6-.3.6-.7s-.3-.6-.6-.6z"/><path d="m11 12.6c-.4 0-.6.3-.6.6s.3.7.6.7.7-.3.7-.7-.3-.6-.7-.6z"/><path d="m13.4 12.6c-.4 0-.7.3-.7.6s.3.7.7.7.6-.3.6-.7-.3-.6-.6-.6z"/></g><path d="m21.6 24c-.1 0-.2 0-.3.1l-4.7 3.1c-.1.1-.2.3-.2.4 0 .2.1.3.2.4l4.7 3.1c.1.1.2.1.3.1.2 0 .3-.1.4-.2.2-.2.1-.5-.1-.7l-4.1-2.7 4.1-2.7c.2-.2.3-.5.1-.7-.1-.2-.3-.2-.4-.2z" fill="#ff720b"/><path d="m27.1 24c-.2 0-.3.1-.4.2-.2.2-.1.5.1.7l4.1 2.7-4.1 2.7c-.2.2-.3.5-.1.7.1.2.2.2.4.2.1 0 .2 0 .3-.1l4.7-3.1c.1-.1.2-.3.2-.4 0-.2-.1-.3-.2-.4l-4.7-3.2c-.1 0-.2 0-.3 0z" fill="#ff720b"/><path d="m25.6 21.9c-.2 0-.4.1-.5.4l-2.5 10.4c-.1.3.1.5.3.6h.1c.2 0 .4-.2.5-.4l2.5-10.4c.1-.3-.1-.5-.4-.6z" fill="#ff720b"/></g></svg>