<?xml version="1.0" encoding="utf-8"?>
<!-- Generator: Adobe Illustrator 23.0.3, SVG Export Plug-In . SVG Version: 6.00 Build 0)  -->
<svg version="1.1" id="Layer_1" xmlns="http://www.w3.org/2000/svg" xmlns:xlink="http://www.w3.org/1999/xlink" x="0px" y="0px"
	 viewBox="0 0 28.9 25" style="enable-background:new 0 0 28.9 25;" xml:space="preserve">
<style type="text/css">
	.st0{fill:#FFFFFF;}
</style>
<title>Artboard 2</title>
<path class="st0" d="M19.3,8.1c-0.2-1.7-1-3.2-2.3-4.3c-2.5-2.4-6.2-3.2-9.5-2.1C5.7,2.3,4.1,3.4,3,5c-1.6,2.1-1.9,5-0.7,7.4
	c0.6,1.2,1.5,2.2,2.6,3c0.6,0.4,0.6,0.5,0.4,1.3c-0.2,0.7-0.3,1.2-0.5,1.9L5,18.6l0.2-0.1c0.7-0.4,1.3-0.8,2-1.2
	C7.6,17,8,16.9,8.5,16.9c0.7,0.1,1.4,0.1,2.1,0.2c0.4,0,0.4,0,0.4-0.4c0-0.7,0.1-1.5,0.2-2.2c0.6-2.4,2.4-4.4,4.7-5.2
	c0.9-0.4,1.9-0.6,2.9-0.6C19.4,8.6,19.4,8.6,19.3,8.1z M7.6,8.8C7,8.8,6.6,8.5,6.4,8C6.3,7.9,6.3,7.7,6.3,7.6l0,0
	c0-0.7,0.5-1.3,1.2-1.3c0.7,0,1.3,0.5,1.3,1.2S8.3,8.8,7.6,8.8C7.6,8.8,7.6,8.8,7.6,8.8z M15.1,7.6c0,0.1,0,0.3-0.1,0.4
	c-0.2,0.6-1,1-1.6,0.7c-0.6-0.2-1-1-0.7-1.6c0.2-0.5,0.6-0.8,1.2-0.8c0.5,0,1,0.4,1.2,0.9c0,0,0,0.1,0,0.1C15,7.4,15,7.5,15.1,7.6
	L15.1,7.6L15.1,7.6z"/>
<path class="st0" d="M25.6,20.7c1.1-1.1,1.8-2.6,1.7-4.2c0-1.7-0.7-3.3-1.9-4.4c-1.4-1.4-3.3-2.2-5.2-2.3c-2.2-0.2-4.5,0.6-6.1,2.1
	c-2.1,1.8-2.7,4.8-1.4,7.3c1.6,3.2,5.3,4.8,8.7,3.8c0.8-0.3,1.7-0.2,2.5,0.2c0.3,0.2,0.6,0.3,0.9,0.5l0.1-0.1
	c-0.1-0.2-0.1-0.5-0.2-0.7c-0.2-0.5-0.1-1.1,0.2-1.5C25.1,21.2,25.4,21,25.6,20.7z M16.6,15.7c-0.7,0-1.2-0.6-1.2-1.2
	s0.6-1.2,1.2-1.2c0.7,0,1.2,0.6,1.2,1.2C17.9,15.2,17.4,15.7,16.6,15.7C16.7,15.8,16.7,15.8,16.6,15.7L16.6,15.7z M22,15.7
	c-0.7,0-1.2-0.6-1.2-1.2s0.6-1.2,1.2-1.2s1.2,0.6,1.2,1.2C23.3,15.2,22.7,15.7,22,15.7C22,15.8,22,15.8,22,15.7L22,15.7z"/>
</svg>
