<svg enable-background="new 0 0 28.9 25" viewBox="0 0 28.9 25" xmlns="http://www.w3.org/2000/svg"><g fill="#fff"><path d="m19.3 8.1c-.2-1.7-1-3.2-2.3-4.3-2.5-2.4-6.2-3.2-9.5-2.1-1.8.6-3.4 1.7-4.5 3.3-1.6 2.1-1.9 5-.7 7.4.6 1.2 1.5 2.2 2.6 3 .6.4.6.5.4 1.3-.2.7-.3 1.2-.5 1.9h.2l.2-.1c.7-.4 1.3-.8 2-1.2.4-.3.8-.4 1.3-.4.7.1 1.4.1 2.1.2.4 0 .4 0 .4-.4 0-.7.1-1.5.2-2.2.6-2.4 2.4-4.4 4.7-5.2.9-.4 1.9-.6 2.9-.6.6-.1.6-.1.5-.6zm-11.7.7c-.6 0-1-.3-1.2-.8-.1-.1-.1-.3-.1-.4 0-.7.5-1.3 1.2-1.3s1.3.5 1.3 1.2-.5 1.3-1.2 1.3zm7.5-1.2c0 .1 0 .3-.1.4-.2.6-1 1-1.6.7-.6-.2-1-1-.7-1.6.2-.5.6-.8 1.2-.8.5 0 1 .4 1.2.9v.1c-.1.1-.1.2 0 .3z"/><path d="m25.6 20.7c1.1-1.1 1.8-2.6 1.7-4.2 0-1.7-.7-3.3-1.9-4.4-1.4-1.4-3.3-2.2-5.2-2.3-2.2-.2-4.5.6-6.1 2.1-2.1 1.8-2.7 4.8-1.4 7.3 1.6 3.2 5.3 4.8 8.7 3.8.8-.3 1.7-.2 2.5.2.3.2.6.3.9.5l.1-.1c-.1-.2-.1-.5-.2-.7-.2-.5-.1-1.1.2-1.5.2-.2.5-.4.7-.7zm-9-5c-.7 0-1.2-.6-1.2-1.2s.6-1.2 1.2-1.2c.7 0 1.2.6 1.2 1.2.1.7-.4 1.2-1.2 1.2.1.1.1.1 0 0zm5.4 0c-.7 0-1.2-.6-1.2-1.2s.6-1.2 1.2-1.2 1.2.6 1.2 1.2c.1.7-.5 1.2-1.2 1.2 0 .1 0 .1 0 0z"/></g></svg>