<svg id="Layer_1" data-name="Layer 1" xmlns="http://www.w3.org/2000/svg" viewBox="0 0 28.88 24.97"><defs><style>.cls-1{fill:#b2b2b2;}</style></defs><title>Artboard 2</title><path class="cls-1" d="M19.29,8.14A7.06,7.06,0,0,0,17,3.85,9.37,9.37,0,0,0,7.51,1.78,8,8,0,0,0,3,5a7.05,7.05,0,0,0-.73,7.35,8.1,8.1,0,0,0,2.62,3c.61.45.63.54.44,1.28S5,17.87,4.85,18.5l.11.07.21-.11c.65-.41,1.31-.8,2-1.22a1.93,1.93,0,0,1,1.34-.32c.69.08,1.39.15,2.08.24.45.05.43,0,.45-.42a10.26,10.26,0,0,1,.22-2.22A7.57,7.57,0,0,1,16,9.3a9.85,9.85,0,0,1,2.89-.64C19.36,8.62,19.35,8.59,19.29,8.14ZM7.57,8.82A1.23,1.23,0,0,1,6.41,8a1,1,0,0,1-.09-.42h0A1.25,1.25,0,1,1,7.57,8.82ZM15.09,7.6A1.07,1.07,0,0,1,15,8a1.24,1.24,0,1,1-1.16-1.68A1.22,1.22,0,0,1,15,7.21a.5.5,0,0,1,0,.12,1,1,0,0,1,.05.24v0Z"/><path class="cls-1" d="M25.63,20.73a5.86,5.86,0,0,0,1.74-4.22,6.29,6.29,0,0,0-1.87-4.44,7.74,7.74,0,0,0-5.23-2.31,7.92,7.92,0,0,0-6.1,2.1,6.08,6.08,0,0,0-1.45,7.29A7.53,7.53,0,0,0,21.43,23a3,3,0,0,1,2.45.24c.29.17.6.3.9.46l.12-.11c-.07-.22-.14-.45-.23-.66a1.26,1.26,0,0,1,.23-1.45C25.14,21.2,25.4,21,25.63,20.73Zm-9-5a1.25,1.25,0,1,1,1.25-1.25A1.25,1.25,0,0,1,16.67,15.77Zm5.37,0a1.25,1.25,0,1,1,1.25-1.25A1.25,1.25,0,0,1,22,15.77Z"/></svg>