<svg enable-background="new 0 0 23 23" viewBox="0 0 23 23" xmlns="http://www.w3.org/2000/svg"><path d="m18.4 10.6 2.8.7m-3.2 1.6 2.1 1.9m-.9-6.4 2.7-.6" fill="none" stroke="#5879da" stroke-linecap="round" stroke-width=".75" transform="matrix(.96592583 -.25881905 .25881905 .96592583 -.999928 5.95279)"/><path d="m16.8 2.7c-.2 0-.3.1-.5.2l-6.8 4.4-6.6 1v5.8l2.8.4-1.3 3.4c-.1.3-.1.6.1.9.2.2.5.4.8.4h3l1.5-3.8 6.5 4.2c.2.1.3.2.5.2.2 0 .5-.1.6-.3.1-.1.2-.3.2-.5v-15.4c0-.5-.4-.9-.8-.9zm-6.8 11.8-6.5-1v-4.5l6.5-1c.2 0 .4-.1.5-.2l4-2.6v12.1l-3.9-2.6c-.2-.1-.5-.2-.6-.2zm7 4.4-1.8-1.2v-13l1.8-1.1z" fill="#5879da"/></svg>