<svg width="24" height="24" viewBox="0 0 24 24" fill="none" xmlns="http://www.w3.org/2000/svg">
<g opacity="0.9">
<path opacity="0.9" fill-rule="evenodd" clip-rule="evenodd" d="M10.8322 3.41915C10.535 3.68326 10.3182 4.09021 10.3182 4.6818C10.3182 4.95795 10.0943 5.1818 9.81817 5.1818C9.22821 5.1818 8.26591 5.48995 7.45044 6.23317C6.65307 6.95989 6 8.09999 6 9.77273V15.1505C6 15.8056 5.7054 16.3847 5.47108 16.8453L5.44582 16.8949C5.23087 17.3183 5.06619 17.659 5.01593 18H18.9841C18.9338 17.659 18.7691 17.3183 18.5542 16.8949L18.5289 16.8453C18.2946 16.3847 18 15.8056 18 15.1505V9.77273C18 9.49658 18.2239 9.27273 18.5 9.27273C18.7761 9.27273 19 9.49658 19 9.77273V15.1505C19 15.5472 19.1836 15.9258 19.4458 16.4422L19.4608 16.4718C19.6991 16.9407 20 17.5329 20 18.2131V18.5C20 18.7761 19.7761 19 19.5 19H15C15 20.6569 13.6569 22 12 22C10.3431 22 9 20.6569 9 19H4.5C4.22386 19 4 18.7761 4 18.5V18.2131C4 17.5329 4.30089 16.9407 4.53916 16.4718L4.55418 16.4422C4.81637 15.9258 5 15.5472 5 15.1505V9.77273C5 7.80909 5.77875 6.40373 6.77683 5.49408C7.59034 4.75265 8.55326 4.33788 9.35151 4.21836C9.4473 3.57165 9.74384 3.04861 10.1678 2.67174C10.6797 2.21676 11.348 2 12 2C12.652 2 13.3203 2.21677 13.8322 2.67175C14.3532 3.13491 14.6818 3.81886 14.6818 4.6818C14.6818 4.95795 14.4579 5.1818 14.1818 5.1818C13.9057 5.1818 13.6818 4.95795 13.6818 4.6818C13.6818 4.09022 13.4649 3.68327 13.1678 3.41916C12.8615 3.14687 12.4389 3 12 3C11.5611 3 11.1385 3.14687 10.8322 3.41915ZM12 21C10.8954 21 10 20.1046 10 19H14C14 20.1046 13.1046 21 12 21Z" fill="#3955A7"/>
<path opacity="0.9" d="M19 8C20.6569 8 22 6.65685 22 5C22 3.34315 20.6569 2 19 2C17.3431 2 16 3.34315 16 5C16 6.65685 17.3431 8 19 8Z" fill="#3955A7"/>
</g>
</svg>
