<?xml version="1.0" encoding="utf-8"?>
<!-- Generator: Adobe Illustrator 23.0.1, SVG Export Plug-In . SVG Version: 6.00 Build 0)  -->
<svg version="1.1" xmlns="http://www.w3.org/2000/svg" xmlns:xlink="http://www.w3.org/1999/xlink" x="0px" y="0px"
	 viewBox="0 0 23 23" style="enable-background:new 0 0 23 23;" xml:space="preserve">
<style type="text/css">
	.st0{display:none;fill:none;stroke:#5879DA;stroke-width:0.75;}
	.st1{fill:none;stroke:#5879DA;stroke-width:0.75;stroke-linecap:round;}
	.st2{fill:#5879DA;}
	.st3{display:none;fill:#5879DA;}
</style>
<g id="Layer_3">
	<g transform="rotate(-15 22.108 6.774)">
		<path class="st0" d="M3.9,9.9L3.9,9.9c-0.3-0.2-0.5,0-0.7,0.2l0,0L2.8,11c-0.2,0.3,0,0.5,0.2,0.7l3.3,1.9l0,0
			c0.3,0.2,0.5,0,0.7-0.2l0,0l0.4-0.9c0.2-0.3,0-0.5-0.2-0.7L3.9,9.9L3.9,9.9z M3.4,2.2L1.2,8.4L13.4,15L17.4,2L3.4,2.2z M1.4,4.3
			 M1.4,3.7 M1.2,6.5 M0.8,7.3 M0,6.8 M0.4,6 M3.2,10.9l3.6,2.3L6.5,13L3,11.3L3.2,10.9z M3.4,10.4l3.8,2.2l-0.3-0.2L3.4,10.4
			L3.4,10.4z"/>
		<path class="st1" d="M18.4,10.6l2.8,0.7 M18,12.9l2.1,1.9 M19.2,8.4l2.7-0.6"/>
	</g>
</g>
<g id="Layer_2">
	<g>
		<path class="st2" d="M16.8,2.7c-0.2,0-0.3,0.1-0.5,0.2L9.5,7.3c0,0,0,0,0,0l-6.6,1v5.8l2.8,0.4l-1.3,3.4c-0.1,0.3-0.1,0.6,0.1,0.9
			c0.2,0.2,0.5,0.4,0.8,0.4h3l1.5-3.8l6.5,4.2c0.2,0.1,0.3,0.2,0.5,0.2l0,0c0.2,0,0.5-0.1,0.6-0.3c0.1-0.1,0.2-0.3,0.2-0.5V3.6
			C17.6,3.1,17.2,2.7,16.8,2.7z M10,14.5l-6.5-1V9L10,8c0.2,0,0.4-0.1,0.5-0.2l4-2.6v12.1l-3.9-2.6C10.4,14.6,10.1,14.5,10,14.5z
			 M17,18.9l-1.8-1.2v-13L17,3.6V18.9z"/>
		<path class="st3" d="M22.2,10.7h-3.6c-0.3,0-0.6,0.3-0.6,0.6c0,0.3,0.3,0.6,0.6,0.6h3.6c0.3,0,0.6-0.3,0.6-0.6
			C22.8,10.9,22.6,10.7,22.2,10.7z"/>
		<path class="st3" d="M17.6,8c0.1,0,0.2,0,0.3-0.1L21,6.1c0.3-0.2,0.4-0.5,0.2-0.8c-0.2-0.3-0.5-0.4-0.8-0.2l-3.1,1.8
			C17,7,16.9,7.4,17.1,7.7C17.2,7.9,17.4,8,17.6,8z"/>
		<path class="st3" d="M21,16.4l-3.1-1.8c-0.3-0.2-0.6-0.1-0.8,0.2c-0.2,0.3-0.1,0.6,0.2,0.8l3.1,1.8c0.1,0.1,0.2,0.1,0.3,0.1
			c0.2,0,0.4-0.1,0.5-0.3C21.4,16.9,21.3,16.6,21,16.4z"/>
	</g>
</g>
</svg>
