<?xml version="1.0" encoding="utf-8"?>
<!-- Generator: Adobe Illustrator 23.0.1, SVG Export Plug-In . SVG Version: 6.00 Build 0)  -->
<svg version="1.1" id="Layer_1" xmlns="http://www.w3.org/2000/svg" xmlns:xlink="http://www.w3.org/1999/xlink" x="0px" y="0px"
	 viewBox="0 0 25 18" style="enable-background:new 0 0 25 18;" xml:space="preserve">
<style type="text/css">
	.st0{fill:none;stroke:#5879DA;}
	.st1{fill:none;stroke:#5879DA;stroke-linecap:round;}
</style>
<g transform="rotate(-15 22.108 6.774)">
	<path class="st0" d="M2.7,3.8c-0.5,0-1,0.4-1,1l0,0l0,4.1c0,0.5,0.4,1,1,1s1-0.4,1-1l0-4.1C3.6,4.2,3.2,3.8,2.7,3.8L2.7,3.8z
		 M6.7,10L6.7,10c-0.3-0.1-0.5,0.1-0.6,0.4l0,0l-0.2,1C5.8,11.7,6,11.9,6.3,12l3.7,1l0,0c0.3,0.1,0.5-0.1,0.6-0.4l0,0l0.2-1
		c0.1-0.3-0.1-0.5-0.4-0.6L6.7,10L6.7,10z M3.7,4.6l0,4.6l13.5,3.4V0.9L3.7,4.6z M2.6,5.1l0.3,0.1L3,4.6H2.7L2.6,5.1z M2,7.1
		l0.7,0.3L3,6L2.3,5.7L2,7.1z M2.1,8L3,8.3l0.2-0.9L2.3,7.1L2.1,8z M2.2,9.1l0.7,0.2l0.2-0.6L2.4,8.6L2.2,9.1z M6.3,11.4l4,1.1
		L10,12.4L6.3,11.4L6.3,11.4z M6.3,10.6l4.2,1.2l-0.3-0.1L6.3,10.6L6.3,10.6z"/>
	<path class="st1" d="M19.3,7.1l2.9,0 M19.5,9.4l2.5,1.3 M19.5,4.7L22,3.4"/>
</g>
</svg>
