<svg xmlns="http://www.w3.org/2000/svg" width="25" height="18" viewBox="0 0 25 18">
    <g fill="none" fill-rule="nonzero" stroke="#5879DA" transform="rotate(-15 22.108 6.774)">
        <rect width="1.907" height="14" x="16.002" y=".5" rx=".953"/>
        <path d="M1.453 4.5a.953.953 0 0 0-.953.953v4.094a.953.953 0 0 0 1.907 0V5.453a.953.953 0 0 0-.954-.953zM5.474 10.753l-.008-.002a.5.5 0 0 0-.61.358l-.25.962a.5.5 0 0 0 .351.607l3.688 1.02.007.002a.5.5 0 0 0 .61-.358l.25-.962a.5.5 0 0 0-.351-.608l-3.687-1.02zM2.438 5.329v4.63l13.543 3.4V1.654L2.438 5.329z"/>
        <path stroke-linecap="round" d="M19.632 7.966h2.885M19.825 10.307l2.498 1.317M19.825 5.624l2.498-1.317"/>
    </g>
</svg>
